<mxfile host="app.diagrams.net" modified="2023-06-27T06:47:09.997Z" agent="Mozilla/5.0 (Windows NT 10.0; Win64; x64) AppleWebKit/537.36 (KHTML, like Gecko) Chrome/114.0.0.0 Safari/537.36" etag="7LkB1NkEFMKegxEogQYj" version="21.5.0" type="github">
  <diagram name="Page-1" id="VkN3Mp8k7b-EoUsN7H3i">
    <mxGraphModel dx="2615" dy="2174" grid="0" gridSize="10" guides="1" tooltips="1" connect="1" arrows="1" fold="1" page="1" pageScale="1" pageWidth="850" pageHeight="1100" math="0" shadow="0">
      <root>
        <mxCell id="0" />
        <mxCell id="1" parent="0" />
        <mxCell id="gcJ8K4zWGFhd17STxBYR-36" value="" style="group" vertex="1" connectable="0" parent="1">
          <mxGeometry x="-850" width="955.5699999999999" height="474" as="geometry" />
        </mxCell>
        <mxCell id="gcJ8K4zWGFhd17STxBYR-5" value="On-Premise" style="sketch=0;outlineConnect=0;gradientColor=none;html=1;whiteSpace=wrap;fontSize=12;fontStyle=0;shape=mxgraph.aws4.group;grIcon=mxgraph.aws4.group_on_premise;strokeColor=#858B94;fillColor=none;verticalAlign=top;align=left;spacingLeft=30;fontColor=#858B94;dashed=0;" vertex="1" parent="gcJ8K4zWGFhd17STxBYR-36">
          <mxGeometry y="4" width="686" height="470" as="geometry" />
        </mxCell>
        <mxCell id="gcJ8K4zWGFhd17STxBYR-6" value="" style="shape=image;verticalLabelPosition=bottom;labelBackgroundColor=default;verticalAlign=top;aspect=fixed;imageAspect=0;image=data:image/png,iVBORw0KGgoAAAANSUhEUgAABAAAAAQABAMAAACNMzawAAAAJFBMVEX/AAD/////+Pj/CAj/5ub/z8//iYn/HR3/MzP/S0v/rKz/bm6inPktAAAgAElEQVR42uydy08U2R6AK6lk2sldVQU27qoCJhc3nVQiIKsmYEZY0elGdDb3CtxR2Jh0rg26MSEq6mYSUVA3177gAzaTO4iP+eduA+MMODzOqT6n6tQ535dpMykfaer31Xn8fufU8QJwGo9bgACAAIAAgACAAIAAgACAAIAAgACAAIAAgACAAIAAgACAAIAAgACAAIAAgACAAIAAgACAAIAAgACAAIAAgACAAIAAgACAAIAAgACAAIAAgACAAIAAgACAAIAAgACAAIAAgACAAIAAgACAAIAAgACAAIAAgACAAIAAgACAAIAAgACAAIAAgACAAIAAgACAAIAAgACAAIAAgACAAIAAgACAAIAAgACAAIAAgAAIwC1AAEAAQABAAEAAQABAAEAAQABAAEAAQABAAEAAQABAAEAAQABAAEAAQABAAEAAQABAAEAAQABAAEAAQABAAEAAQABAAEAAQABAAEAAQABAAEAAQABAAEAAQABAAEAAQABAAEAAQABAAEAAQABAAEAAQABAAEAAQABAAEAAQABAAEAAQABAAEAAQABAAEAAQABAAEAAQABAAEAAQABAAEAAQABAAEAAQABAAATgFiAAIAAgACAAIAAgACAAIAAgACAAIAAgACAAIAAgACAAIAAgACAAIAAgACAAIAAgACAAIAAgACAAIAAgACAAIAAgACAAIAAgACAAIAAgACAAIAAgACAAIAAgACAAIAAgACAAIAAgACAAIAAgACBAmygM4jAMorj9f1EUheG3F/Yvtj97F9ufPy7sXdz/BHu/Ee9/vv7G3r/z9XP4r3698PWvHflvHboYIYBawjgeqdevbRaIen1kOI4QoHPieLS+Of/b57Vm82Gz2Wy0P83+A58jLxy62Djp4vEXOvhTzYWF5qNXv+3M1WtxjACdPPoj9Tf/erH8MCl7u+z/aj7+3q9JsrD8oi3BSIwA6aLfU39zc20v+L5XRHa/eKPdFMzVh2MEkG76Rzbn1xpJ2Ss8SXPx+WwtRgCpp3/0zaclzxb8pPlirlZBAOGnf3RrreFZhZ8sflmPEUDs6d9atSz8uwaUk0c7hnYERgkQ9r5ZSzw7KS3O1SIEOJGea58bnr30v9ocRoCTWv/5Jc9uFnbMawQ8cx7/T43EcgE8/9HsMAIc3ftv2f747+cFFr5UIwT4a/zHbjTKnhP4T9YjBPh27j+5mjgS/7YBi7MVBDjc/W89dCb8ezPCL1UEOEDvzYbnFqXnNQT4g9FPjbJjAuwOBBDgd8Y+JZ57JMYMBXMWIBz7WPYdFMD3FjciBGjHf9XF539/MjATOS9AO/5lz3PWgA3nBRhb9VzGiDbAI/45GmDASDBHAdrjP8cF8AbXHRag96MHd1uRqwL03igTf89/UnVUgJ53xH/PgAcTTgoQvif+v9cFXlYcFCCcbPrEfp/+D5F7Aow9JfB/TgVmnBOg91fCfoChlmMC9PxE0A9xu+qUAOFWQswPTwVeRg4JEF66R8i/EaB/NnJHgN5VIv4XAwZrzgjQRQboCJIHFUcECH+8hQBH5YPyygZkLUDfU+J/JGfWnRCg6wYzgOMKgxUHBGh3AET6uE7gWWS/AH0/E+hjGVi3XoCuG4T5hLng7YrlAoSTDcJs2kwgSwGoAZ1WF2xZLUD4nhCf0gk8jmwWYIwawGkCDMxYLEAXReDTuT1hrwA/kgIUqAlkPg7MTAC2AYiVBauWChBepQEQagKyXhuSlQAUgUSbgJaVAoTvKQIJGnAnslGAviVCK0j/uoUCxCwDkmgCKvYJ0HeLwIqXBGasE4AckLlVwUwEuMQIQGoUMGOZACGvAjC3CfBoANweBWQgAFMA+ZpQxSYBmALINwEtiwQI3xJQaR5E9ghAEjAF2W0T0S5AOEU4U5DZ4jDtAvQuMQRM0wS0bBGAdQCpyGxdgG4Bun9FgFQMTtghwDjxT9kEfLBCgJAyUFqGKjYIcI4kkOH5YM0CvCOQqclmbZheAXrvEUfDZ4J6BWAO2AmZvDFCqwBdarYD+0l/c3l5+UURaH/PZiNR430mM0GtApxT8D6ApLn8amduo14bKQb1+rU3859XmwqWwWeyMkinAJ3XAf3+RzubtZE4CKIgjsMwiAz/L472vmrP6Ob8WqPjduB2VGwBujssA/jN57O14cwKowqJgjAcmbz5MDF/GKhRgPByR/H3F3bqRQz+gaVQo/MdHoz5rNACdHWyH9gf2KnFQcGJwtH5h4ZnAzUK0MlSsP7nG1EUBcUnHLvZwUjYv15kAdJnAf3FueHAFnomOzggW382UJ8AXanPBSq9Wo8Ce4jSNwK+/lSAPgFS14EGvlQDu+jZSjsfSmYKK0DaJIC/MDtsWfyDsGsy7XRAeypAmwDdT1N2/xtxYB/hWEoDBqpFFSDdUiD/rlXd/wFG052VnqwUVIDwbTlV/GuBrfR+SnVHdPcBugRItxLgSTUK7DUg1SZp3elgXQKMp3r+W7G98Q/C0VRtwEohBUi1GPRuK7CasC/FOMC/EBVRgO4UGwIHNwLbGUtxZuKZ10UUIMUcYCC/0zOzawPSvCtju4ACpMgClZ5VAvtJc2qW3j5AjwDdP0t3dY+HAxfoeS/dNg5MFE+A89I/5V2bJ4CHno2fZO+Nv104AULZtwL5A+uOxL89FZDOkV+MiiaAdCU4t5NzcxkGyBaHtdaEtQggWwn2HwwH7iB/fvr1oglwVVbxVuASfbLZgMcFE0B2Q5BLHcAek5It5N8qxRLgrGS2I/ujsvLuBCSP0C29LpYAkmnAfA5NzrcTkHxEVgolgGQa0H8ZuMfVxJRkoAYBJNOAixMOCtD90ZRkoAYB5CaBpe3IQQGCcalkgP+/Igkg92rQ21UX4y87DrxfIAFCqdatNONkAxAEl6TWzOnbJKhegG6Znyzb83HMygeasSpEvQDnZYYApeuONgDtoZLUg7JdGAHk3g5+x9n4B+E7I7LBygWQygOX1gN36WuYkA1WLsDZezIjgMhhAXpkmgBth8goF2A8kRkBBC4z1jAgG6xcAJlit7NTgH1iic0T2g4VVy1A17RMEjBwG5lcwGClGAJI7An0hyqOCyBzprKuTIBqASRKwf5K5LgAUjsot4shwJS4AN9PuB5/qbdo3CmEADKFgPvONwBSqyeHoiIIIFEI6G8R/6BP/H6VqkUQQGItwAUagN1t9MJdpqY1AV5eTZq/Tfh3Z4LCT4x/vwAChP8Vn9dWif5un/lLzk2mWgG6xJcDZnY4ruF9gHjxVM8OMbUCiFeCHC8DHBgGCvcBeupBagUQ3xauc7NLoeiZzjcVpFYA8fYskxOxipEKKOeaClIqQDhNEkBj6kRL7USpAOJjQJIAKZ4aLdtDlAogPKDx6QH+FED4aCUtA2elAggXt3Rudy0c4pupVwwXQHhO6w/RABy4baKrArSsClIqgHBv9oywH0C4DxgyXADhbcEJc4BDfcCtHEeBXh4/iPNrwb5pOT/mOApUKEAonAe8T9AP54KEF9GZ3QKILgfzZ4j5IURPWfc1LKJSKYDoaFb/YXgFQ/jFmt8ZLYDwrkCHd4Qeg+gmse8rJgsgvCXgAxH/BtHRk4YEmkIBzpVJA6adQAvOn/zrkcECXGYSmJZ4OrcMmkIBrgi2AOwHOGIClduSAHUCiCaCWQ58xL0T7T6/q5grgOhc5gyTwCMGAYIVQfXb6dQJILqyhUpgB81n/2tzBTjHEKADruaVRFUngOjGcIYAnTw+K+YKMEUWIIMs2mNjBRDdFUYW4OjbJ5hHV76aVp0Av+Q1k3UqE6D8VUHKBBCdBDAEOGYIldMkWpkAZ8Vq2uwJ7Oz++ddNFUBwGMtagOPyaGJdaLJtqgCXcxrEWDMKFBxE3zdUANE9ASwHPO4G/pDPPFCZANNUgjrsQ/NpQpUJIDaPZVfw8amgW7nMA1UJILgpRMOiNsdGgWeqZgoguCnE6QMClIwC/ZaZAgi+IJBS4PGIbatQ/bpAVQKMkwfsFLGlwap3B3nZ6ssYsONeVHEjqkoAsQOjNZ6Ba8EoUGwcfdHMFkBsWxi14JNGgWKbhIeMbAEEt4VdJMwnCHAljzcsqhJgiURwx4iVUxQXhBUJILYaQOMp6Da0AGIFVcVr6hQJIJYGKDEJOAmx0yP8fxopAHtCMpsGbJsogNiLrpgEnCzAP3JYGa5IgCkqAZklU/5togBXmAQoQGx70MXIQAGmc2i87EOsoHLBQAHEloNoeL+FZdOAHDJBigQQGr+yHOgUxPaHqd0irkaA7hy+ubPzQLVrgtQIILaejXOCTiEWWhWmtqauRoCz7AlQ0pO+FRtKmSeAWCKQowJPE0AonaJ2ab0aAf5eJg2ggsvZz6a97L44m0JO5Xz2LwtUI8BU9n2XlYgtC7xjnABia1koBiuaTSl92bYaAf5DMVhNPmUp89mUGgGESgFsCzv9RookAnylVXUvs+/NagCBGylUUxk0TgCxFCZLgk/nbeYpdSUC/J+98/mN4sjieEkt7TibU7XGOXDr1jhSzGWklhijnGwZFMzJXmyIuSQQ2wFfRrISfl0sOYEAF7RWSJxcNl6zAnOJYiD8+OcWOzEEYma+1fOqurrq+2QuPuDuqk+/er/qPezo4qCQ/nLauTElA0CXcSCZI+AT51lVEQCwDlcsB+kvUEmIaF2wDACQBuClgP4CXQ0ozvkGAPTYrAdCVhL5lERbhosAAIWw2SVaTJc+8g0A6FYAAUDM6VXX5rQIAB+xN4CQQBGVxDsATjASLAXAeruOGgAKX7xPGxAIBEBZlVu+AQAFMDksSgwAyZiqCABQhzteDEQAgL6lI74B8B/mgqTkfh0BcH9whStQcZ3kBQt3ADAXhAh0QfhjzwCAWoQl33B3pTxq7zTAHSYDpQQavylZESKiARAACgKAyIe1BAAJYLNFHAaA65IgCQBaEAC8FiKmARqeAQCVBDY+5+4CAuWDJROrIgCsMhvsFICOZwAcggDgxTA5bbrpGQBdagAxAJCPqaglADPcXSkNIGlQiwCAWK6dae6ulEvd8AyAD7qOfdeQNcCdGmqADxANID3xMlQNAIXVfQOgYEmgGABIUaBkVFUCACh6xSaBGAA7KlAAqAEgSXdqqAGgkZcsCsYAOF9HDcBrAXIALClqgKgFKq+rIwDsECSnASRvhzoD4Cg1QOQaIOfmRq0BaAMIaoBaAkAbANIA/6UGYBygrxv4b2qAuOMA1AD0AqgBaAMwDhCrDcBIIOMAPAJoA/gDAJYN5BGAHQGsCIpamuFqAAIAARBsSRg1QMAAsCpYDgDsXkDmFQCjrrtaBCzQxRDf7gVAs8N5MwjTAK6bbTjTAA0CAGmAOt4N5PVwQQDq2B9ghAC41QCJZwAMrzimNmQAVmqoAZxTG7CM1rFHkPOuFgELNDZsaMYvALBOoWwUCQFQxz6BTWh08CPuLiCHC8cxFWcagM2iMQBcX7UX6Rb+KwRAxu3tL9Dw4KO1BIADIxCp5cAIrI7tK2oAQM7UEgColPkqdxcQaGiU5AQ+h1PDqAEAqeXYOGjYXcLBkYhAp6l3gyNPu9ZbwQo4OVR7BsAZ175LsNJ07lDJjI9HohdDE9zf/gBAMbVvfTsCoGF3LAkCBEuseqcBDkMA/ML97Q9A13VU3SEAzAf3F6jzvmhiVQQAqChQMR/cX6BssGhphQwA0GMzHQjoUmQlC+8AgArZmA4EBMoFiZZXygCwymSAjEAhNdE7NiIANNeZDIgaAKwg4AgB6LuQ553HVGUAQO40836w1Jf0sXcAYI1teD+4/1l6x7kqlQHgX22GAkWsaSig8rX2DoDTDAWKCBZQueqfBvgEevDfaAX2Eajbkmx5rYwR+BH04N9zh/sIlFaVvWEhowGg+yzqFne4j5yBNOkj/wCAeoSIlrKFKVBJqDrnHwBYOpCd4kTiQI1N/4xAzH1hJEgkDNDZ9E8DpNCTMxDQ7ztacx9QkwEg/5WBAAlTqus8FSAEgP4MeXKWhPRzptruk2pCAEDma8ILwr0PUiwM8E8fAYBiwfQD+31GmDetPQQAY5e3w3rLefeBQCkAoMJwJoT7eIHr7doCAJUz0w/sLSOQFyjcb08IACwSlPBqgHdfkRQAqxUcX6HJSQyAaR8BAI8vVoYP7koJB9SFAMAMWHYJ6RkGwJwA4SHMUgBgicyj7BHQS4tCa3hEewkA1CSEbkBPJwCyo5Kv/AQA6nBJN6CnEwAtoXRhnRQAmAvDssAecqKSb0gKACyTyfuBA5tR0jl1KQDAQABbhb3bCdhRFYQBxADA+pupIVqBA35C73kKAOjEcnDMuw/RdiWhFCkAsC7HtAIHtQHFayqU4+enFTiYDSg+dkEMACyTQStwQBsweeSrBjiEATDE8YEHCxYHlDeixADAatqFL7YFJGAcUNyNEgMA9AOlQ9nBCJZMkb9dJQZAeh47A5gRPnj5ljAAjngLAIrw2DR3+wBp3QG9QO0tAKAfmHzB3T7IBOhWFEeRAwDMB/J60ECfzyN/ARhdAU8xGgEHmQDY59PY9BeAJniK8XbIQYu3XpUFJQdA+pliPsi2CSDaJFQYADSYTSPggI8HNAEs1NULAoC+hLgrGwAA51U1qSBRALD2BsLdzsOQYdAEsFBUKwjAoVXFdIBVF9qCEyAJAOoGqFt0BN8SMIpqI4wqCAB8kMmbsnV3AndADWAhkSIJAMpxwpqAcoenjcu1ggDoE4WqKKBdczkBKgAb1+slAQAvhyj1D54Bb6jOJVVdDE0SALAoiHdEy67b0IzfADRRK5CO4BsC1tOqxEZFrSQAYJ87+TvuNT8BwBi6nT6LogCgwWCWBb1xAqDxEytZFFEA0JwWz4AyJ4CdYipRAIZRf5YXhP56cKKLZuVmrSgAaEmAHXu2tj5Au8oIqiwAp1EA2Dne/ASw02tbyb4M+i7qa8aCTH0AOwFUWQ0AxwLZKWJf4DyApYErshoA9miYD9iXs/CK2SmkkQUAzghzhtyf0sRXzE4GRRYAuLKBxcF/Cn5oWmq0LAzA4XbF71M3uQ+vl/qtDgAMryiGAuwYTZZSqMIAtHZwohkK0OkJXGNaaq6jqlNp709HD0Dzd1X1kSkNAB7X4kVxg+yZPYUpDYCBVau+zmI/AfAooGp8Xg8AmgZGQCd2T3B0FV8sW5eqVYVQJ5HfEEnvtw3Upa4JAAZGQOxNA0fWVfU+kxJXawZGgPo2ZhWQPjBYqca5ugBgYgTErQKMFIB4f0BrAJgYAS+tgIgVwBmDw1JdzesCgEkkQCVHN6kAoIWylj2XB+DQqsmL/ZRRAVTTGMAaAEZGgBqLVQWMrpksk70u+/IAmKQDdrtFjMepAB6YKACLuXMLABw2erWhODMCU6tGn8lvdQJg2Ei5xVkf3FwyWqPGTJ0AyA1f7nGEB8DJFZMlsjl13QIA+lOjM0Bdia80aORXoxVSFntr2gDAKBq86wrGdggYBYFtxoEtAdA05Ds6O3BqzUxHvjdeLwBSM0dQqWtxHQLDS4XZ+li5FGgRAH3cDPDI4oHpp13D5bHZTcEKAAbFzn+84VhMh8DUmqGCtNpc2QoARhnBPw6BX+LxAHZMF+dIXjsAThqeASq5Hosn0LxvvDZWL1BYAcDkgtB+gejzOMyA9Kzx0tjtqmgHAMNg4F5a8IsoCDi+Zrwy17L6AWAaDNwLCG5GQMDo74XxwtjtpGAJgENd4/dMIogGjDw1XhaLtSA2ATDoFPFKiuvTge9/84L59297uoItAEqcAaq4OxH2/j/omq+K7SFrlgAwqwzcf9fO3fGg97/E92/7BLAGQHNJlXnbgHVA60EJpagS2/N1bAFg0P3qjXDA3VAtwdaFbqkVsd1NzRoAZc6AXR1w/VSQ8Z+RCyvlvojNugKQljoDXuq821vhxQPSqaflvn/7Y1atAaBPtsu9srq5EBoB+fyPRcnFsF4waQ+A4bWS75xcfh5WQKD1cK3sx2C/o649AMxzwq8NgZCOgfTYs5Wy++9groI9AOCBuAcrgZlAEBh5uFaUXwf7k1UsAjC8o8pLcfNiACGBtDX340r5/bdaDWofAIPGwQeWid1emKz74T/3dJDtdzJm2yYAo101EAKdmxdP1VcNtI797+mKStoDrEDDQRs1mwA0l9RgUhRX7m6fmshrt/l569j2hR+KAV/ffhDAMgDlQwGvlEDS7nz38+L27OREXhdpTc5uLz77bqVIBn37wsVQDasADK8rASmKzuWbGxsvniz6L8svNjZu3rhUFG2BF39vpu4ADGYGvtYD7T+UQfISBb9/2ns7nygZcdJH0y4AA5qBfyOh8P1HUhpbuvYApEuKUpZ2FyagbQD04S530t8ooAMAmjvcyZJydCYEAMpcEKDsKYDvsyAAGLnDvSyXCHbUQNE2AOl9qoBScjULA4CytYHRKwBXHROsAzBAXUjM4myeknUAjCZjUfaDQM5aptgHgMGgMgpgPBwA9HGqAE+DQI4AaFIFmMrHEyEBkJ6kCjCT4nEWEgBGE3IpuwpgWgcFwOCVQZG5AC77pzsBgFaAmQIYDw0AOgJGCuBRFhwALaoAXK45LYV3AwBVgEkQMAsQgOaX3FnvgoAuAdAfrnJrIek4bpzuCgDWBYByPQsTAD26zs0FxPkkVWcAsDoQygJ9Px4sAMMsEAZiQM675LkDQJ9c4Qb3DQJnAQPQ/JKHgF8uoGMA9NQdbnFvC/BcFjQA6UOqgJ4WYBXT81wCoIdZGOCXBegaAH2c8cAeMcBKOqS6BSB9wEPgnQfArXEdPAB6hIfAu+TKtI4AgDJj0yIJAVQ0Ns81ADkPgXd4ABV1RHQNgB5hcdBBUtnMPOcAmA/PjiIEVNncVPcApGcLbvjbB8BzreMBoMXakLelwtnp7gHQKX3Btz3AmSwmAHQ6xeogPwyAigDQ6VyX2/46AvC4wv2vBgCdPyAB+1L8VOlMhGoA0C0Wh+w7ANernZVaEQBMCryKAG3qKAHQo6wR3ZWjWzpSAOgK7O1/lQ5AtQDolIlBNbagdbwApHOxEzD2OIsYgN1wwBr3P2YAdDNqAoYe+zAUsVIAdHp2LeLv34uhmBUDkEerA8Ye+zEPU1X89/O5OL3BsYU8IwB7Mv9DjAnge77Mw60eAD31NLa8QHJtK9ME4HVe4EJcF8cb109pTQD+mht8uBaREug8n8kIwNsBgR9iISC5sjChNQH4W2royziOgc7te3lGAA6QyYc3IlACl5/PaL/EGwB0Pv+0G/j2F7fvTWgC0EMJhG0JXHl+KtMEoJclcGw5WHcgGbu75d/2ewaATlvzF4JEIBn7+Z6P2+8bALsxgflnwVmDu9s/kWsCgEiWt+aXb4R0f7Rx+e7CZO7n9+8hALsITM4/3LgUBgPFpZtPtiYyX7ffSwD2fMJjc8s/1p6Bl7v/YvtUlmqPRfn6YHlrdm752aXaQpB0Lm08WZidyLTfonx+uHxkdnv52caNS52iTtLpXN7YeLI9O5On2ntRvj9gPjE5u729fXFxefnJC/9/FhcvXty+NzuZ55muhah6PGZeI0mztCabXyMA9rwDPmTcAFAIAIUAUAgAhQBQCACFAFAIAIUAUAgAhQBQCACFAFAIAIUAUAgAhQBQCACFAIQsaZ6HCkDme0H17gPu/0v/+rj7vxT9Y7t/4tV/ne4XHqZzy0+2PARgcnZ7cfH/1F1LTxvJFrZU0jUoqy7ZWbCzhZHGbCy1Lo+wMsJIhJURBBM29xImDGFjKQoE2ERiIDw2kQITklnBkGCSzRWPkIQ/d/2qR7+q6lS1TbuDlRlid3W7v/rqnO886rv0eP51JqBbwvjKyt3dd4XjxWdYwX3i6YvPecgH0oWZL89X/I67O/L6/v2udhSbl974hc42ILg6mO9YK/Uh6Hh3zdPj+d3d3b3TiAEAF77drr20YyrlE2t7/h0TZpFyCcb6L0DHtczymr32qQjAy91bezAXcDUI1X5sO5ez7Visq9H6pdT4BToEf3GNwfyHyjnGs2NDJ7VPZHd/jRWWN/ORAkAvbfKRiyHhn3r5VHz9hZcFcKnx+eqP+E/tHfaectuFRKX6IYR+qb7/8fJWrHmh3pHdx2rjOZSa/wsGQGH5rY3s6nA5hcE267dQ+TQ2PVa4XYgSADI/XwJr+Qb/mvI8kFlY2zXVXVfGGy2IutTaNOEnxzZSv4ojywQAtcEATRHqgyWOz34c7y3O7UcHADgLb/qK0MGULwMAWu8oGkJL/NcnpYv5t5Br6DpxAAC4BOAnoJ4Y8fq6/3Cz9/b5xU7WcA0IEwBZvaa/m24EzMJOgzaVlvUkaUw/klZ5JLBONSN5AwYAD1ZfNie308ejmYPe42JUAJDU3AzS3hk1YoDY4CeVRWCSXF2XguE8/gZ2CduWAQOMwzrmo/367ZYOEz+msgfppZOIAABf6Lb2Qa4HOAs9wZDCI8X/0OEOpXjJfICZMmjB0meADLA5XnOw0mX6w92Pfbx0Gg0A4En9No+Di0YMELNX5RSQfMcsdtm7E0vAC3iQ12eARAVoNw83OH/2MnF1PHKK/4kIA2Te6/f2QiNTRgwQG1xQXwGYxRZ4zL8E3gu1xDUYYBL6vW00hzrExzMHeXwbDQbAFaNeLo5FoAJH0IaUAriTyuZnBrqLTfzS0mYA8GCoOdjkq6oRWDlJfIiGEZh9Y9Tcz2GYleCfH5JN6iT3PSPxGoAvoFgeLmozAJ6DDtbdZMuHq6MfixNH2YNIuIGJc8N+WvspAxugetxILrCvzPdtLIqxDB2c8Q+YAXrAe2YR9CaOz5bzmb8iIgRlTbv98xQwq/H5Acka4ACVfR0qAaAbS5cB8ByUOCm2cOXTjIWf/riMAgBwxbS7K2IUoMUAEuc+8U7ZZEiC52RX0dJlAPhgbLF7vPv7aOHCcAUICQBJJ2uqRfOcmBme8iqB0vNwQ16LGcoOWLS9h2tOKtzLatW6DPcAABG8SURBVF6bAebBg22yifLt9ceP64uRCAfPOQh2/e/vz+XHyk9nR+AbLwPsyE5xnPNZh6UrQNVsD3YbE1eOe9n7W34nZ5YuAzgHG1xXGIx74IkvP++ikRDC3wd6/Wt6NC0XZtLpdOEbH3AZSXlsgOuU5BSFZYqAYREV4qsgxz0oZtiMNL6YSkvvhc/LAjJA1jnYNDTFK63wRbcDAJyJjQ7OlDsj4/TjWzaFB0/dLrvCPMrQ+INQ3ekpB0l3XmuGD1JM1/K9IAeQAXhxYkdjP4kQmlCHAoBSjnv+IATzCDhKuaaRZF1vWEJbbjne75gIFO8FVhnySVVQBIAiAyT/xz3/e9pMMgwAJK/AsXn2AN97ZiWzARQAwEJQfwre9MyjO2ynZCsA2oQ/fyAD9DH0b97XZqJhACBL7yO+CP3O8JOyM8+BtwFUvkaqQGwI3kP3qLfdAfzgFWBIZ4sfGANcsMEWUx0MgDnmzMOd0sQfbj+AMYCKxpEgs3tAId5if8x5LI4AcxYd6TwSEANwg326r+cfBgAYwQ7pBKaY8rrq1gEOIfB7EGhB4yVqKT596UriCzTLR6YMAKB25YyYhu9vO8kQAEBzrTg1D2IIVlzyDMgGYAtpV14qt6HVNJ10A3mxtXijNSdBDMACwUepTgZAHyTXyu/zb1xGwCwIAD3Nj8eL0i+66lZQnS/u5zbicxWtMCQGwOe5+yeAMABQUhPjgpfCJUe6M5QBiMw/GPjI6Bc9dMI43j4SnEt7TkIYgJkA+6mOBsASnV+a9zHpynUBeQFWoulMx6cCV4Aci6QmrnKCpIAeSkZnVssZIPlSLkx3AgDorNFkTcvKvHH6ZhWIF0BlXvtEqlPe1OKvPjE8eiq6mg3krZYzwHhOJkt2BgCSZbkjLj56iZVOCuxADICbczoeBICKI2RMlR4/wiqZWmUQBpiQByY6AgB01lxrn2KCnGLB+RiuIQyATmRLbb2GJkGlx0epQBtQm5QBDEAHsxc6GwATIrNaUQooOyYOzAvAEhuA6ZRHTq2veyrInIh1j1otZwAaoeye6mwAnJuvZNSM2NbwAkjCf5AbWHJJzXTpjXlyKWhei0KdgTED0EKFgVRHA4DqgBsG5zh3yLkwL4DYIAEAoGY/MTFZhYjHbaVM9KfVegboIU7AdocD4L1uSTx3zPFJIbBYgNXffMBD/gzE9NYjF9qQx20h5gxasFrPAHSwS6ujAUCEYGRiypCH2F2EMwBJRnjgP5GY9LfgFgY99UTEGNU3ZwAMMGluO0UCACTZpuskhJM0aLwCsQESt8JoIJMZqY1CZQe3AkepZzjfBgYgrDeU72wAEJml2+Q+EoRGTsFuIM0HeOXLAD1bHm+bBQfdSQFEM9Y3ywAMMAtoVxBlAPR7cjp1AHDFCQGwjCBSkYB8DTfMAkGM7+dz/u4+XlKuNDRnAFqu/ijV2QAg6+aG0X0Qor5MAW0ALifQ7wLwkk94jyr+rqQACsNtq/UMQL2nVx0OAGKDvQpFTDgEegGZW3HNd+YdLQbyswucawAFwLXVegYgohPaLxQKY7XX2PT0dP0V/IvqKxU1AMxCWi9JYVT3iV0ZQThwo/bex3+UxYneNNCIFn09gxM/acbAMVNnACp+vd5VPqpv3StGDQDnEJ89eCFpnuXfPjZApt53tP5aWVmhr+ov7j5Iyv1Ygkd30U/wca4BRAg0CM+qM0AvuAa5fmLdMGUbAGDETf28nOiKBSSvbNsu18rmYrY9mCOVhchRXehfQxCg+lHX0WnvU03xtA0MkHynVUR7ZEUMAMSYRWYhraYS1FipXToAns+h6j/Xn3ctrbtWE1p7oZy0Ong854+Pkm8aa9Zc0lBngIwWA8RPIweApjGL/msGgDI3Ud35AJkr9bYJzoNWrbuyP2ixsCMpgMQNu4ptYIAerZ5aI6ORA8BVKILmQ06C8XgBeF7efeBGKC+4ne3e937AoZpWsQ0MkNUCQPiBo4gAgEzJAV8dQE4B/jF1lgzmfiC+SQHk7V35NjBAn05LjRZkD5oCgEyyuJl7QubDv1K+SqCUAnzzaln/FU/GMPv6r7001B4G0AGAfpCidQwgy8lVBECOE5RnPUlmiSuZbZQSaC1VYnHr7awImHMPwlsCVBhAp61eC7IHQ2OAk1AYYMCfAaz5MpwAuGXW+zwqPsnBD8sRZwC0ED0ASHNy1Y6+ssgGkFHAkH8W/5zAeaKNbTnZr702gIYROFyMIACe8YFcYy+gbq371QWIKCBgExBaNxzbTAl0mH0PYwy1gwF03ECzgFuLALAUjhAk0gGc4p33+e/4PzAa9IttzLiP6TRNCmCJDMQVaY8OABeC0LUVPQAQKThuFgvoF8QCGkAbD5oxKKgrCa02iK15wio7qUlvUgBNbjptAwMk4QDoLkYYAKbBoFxwLMBN6K4j6PmzxB8/QSXNkkW33c/EQNUERAO3wABYTUUYAOjQ6CxNjx29CmKAKgX4Ps/4QVAnl+SW0JxmbS1oIJkAwG5LNJDEngdfqx6tWAFCyAfImWbR8JN+mz+lcx45dnFobhu4tvciUByfFDjatcofukJQH4FUjaHrdjAAUSK2pwtj04Xqq/6370+h8Xc+igDAE2FoFJhfSIIygjgrAO18qR5fv34eTQWfMifWDZgZvu32NQ/bwAC0pPGVZfE3gZ3/jaGdCtvOAP1hFDjh//CPPCAnkF/UV/OplJVOWcGDitow16c4vnUnhtGr2GgDA9Ck0Fb4dvcBgGGT+yD5UbYoKxj3McO5S9ojebwsM6dL7nRCwkNIP1EXwADnYaRTRwAAxHk2UE9Ys4xGRCGoOpjflWJVsiDiitScZolhh67PjORbzwD0rUYFFREAQKYsadABEQLrEkxgXQDm5NNBCQUkr6R7LtC3ILJ8zcVMlSBAZRAtqy92NgAIexvJVJOO2RBYF4DVKUAktZPdgyvuRtOkRFE/8QrAAP22qKChcwCQJjFXk8KAc96SFNQFPGaPNS4EnHArFpJZy0By7SQifVEDwAA95RDKqiMAAHxu7gZQg3zDCtYB3Cu7cNNklgrgswIcuV1xUlhK5dmNNjAAHexRZzMAvWcDK5BmyNa/N1FtILejl5ACRBl33o0JyLVTdU7bMgcwQPp969J82gqAfvN8NRKcb9oRgh5B/O5UIwLElQQrALPx3Vnj+JlpgwBIj6CllqV6txcANLVFXwyuOCq1RAyAeQoIbucbGDmqPWx2ncl3zroiOrJ93XoG4HrSdTYAaNBF23umEmwz3imqDlajABZs91be7Z35eBXNXBsaH9CV5yB9AidbGuVrHwCsK7Ne0cwaJ/64sFMo6/gQTAGsK4D9uycXZCbv877m+kVNB93QO4QB6GBDp50NgIphe002qZtlD8JOofgiJqUArivAqJICSdJKqTWq2/cY1CuYdrE/THU0AH7LmeUs0i+C2PXiDiF8LtWNxKuQ9eFOP3Nm3LMkAZnUHAIDUJiizXxHA4C12L7R+vy87RLkJJ1COQs/AHKsL4wsZjThWgPouTXbhYN2DGFZy4sdDQCuGa8OBdC904j3LekRhDMs0Bv3XXUCugKI6aS+/LB24bGNfKsZgFMiV/OdDABmBMQ19lnhRFtS+SjpEcTLvL57bWS2lPOoGec3fBiWR6Y3K0EMwFIW4ve2aVgoAOinD2QdbM/i7Iec6yuX9ggqcBTgt91Wf1m5zRgDU6OwgZmPaHOq1QzAmAqNTP2/vTv4aeOIAjCOtFJB6smWc+nNlt1DTpZ8gKgnIkBqODUKSElOpY1ayiUSUklvlSKF0B4jJSGcUpW0CdcmKck/V8DYO/Yae3YxilF/nywgCuzs2t++3Z158+YyC5CeccnTvPPX6921X9N4PapKWPl2a1gISAcMIio99FeL+bq76VaRpdzyrRu4nOY4vpi/xAKkp83U9Id8BtRf38/OexlZKTS4CxjwMVWe5OhhSW9gPjv5CNKextbcvfkLjgDBA83s2/nLK0Bg8tRcLgPqB5sD5r2MLBTZEwIyZ/mXm3mer9Nq8icbqnzXjUjNuXvXLzYCBGdOUqCxyREgrHcz+/TP2NqnlRvr95PsI11EpdAg3yez6Gb65zFdk2mW0XT7QwtLEcy9uFW9wAgQrhx41P67vI1NjgDhMH3S2nn3Zn9lNPtvNh43B859j6gUGnxM/Rf6oCpATFTtv2A0wvkkrZ0PUceysnKzNwK8WNm/M+iV/niyWHQjLBU2ffTG3cnT2OQI0JeAlWxtRVQ93NrsGbKdWcuewmdPNwtCQKuvt687OplEjbIFAePkfa2F2aTNpLkVVchxZ61XgJmt7Qfb2w+2Hp+82j8ff93a7vzrbf+Zc6xAXGOPv584Aerv88917huxD/pCYmoFp9PFk77qALdzllRLp5y1OzKXNofu5/A0w65NSXJcx65d2K6VNI9+bn89/n78P7Pfts+cIsXi5l5OnAA9F7NCBN3IUdXCr6TK9S5ZnKYCRJZU6y8m2TMFLXre5nyfAKM4nZBYPk9jkyRA4/05BQjHQ6JWDVtOrzozYQi4+mvekmp/9Z3Gy/lLN3Rv+qIF6Ei7VKBMwFgTSMYkQOnu+UJAT4Jf1Ioh4VUn7Le/28zbl5smBbTbq7wvHpRjBejmzxUIATN/TKIAV84XAn7+ZtCj+bCHqXJwos6tDXi0js61vNI/eNx/FzCabkZ0rADpMOZS7joBX81PogBFYtnU4Kl+kesFBCEgeVTNdklEL8mdWVSi8nezaFCOFeC34BE6b+wcbwrh2ATI/a6Fb2BvZ07kiiFBCJhe62xgOclW/4ruyOwE5qvPigblSAHCnWvkbGzMScRjE+A894G9eQSxawbVg8vno05Y/KFASbUvMlFjNd9FIL2DjRQgzFMo57wIjPcKMEYBSktPCsaAa31VXmLXDl5OP6bOHd+QZUFjrgGfnz45Vl7fLxaUIwXo2bn661y6jble9BgFKK8+LBT/5+7VSkUiQDl4Yk9On42Xm0VKqt3O3Jw31nPInE41ihWgd+fquRobc7XQMQpQqh88LBADsqOu0auGLWVCQJ5UgKDvYDOT2Nw4bBUJynEC9O9cY731qa4AYxWgVFndzm3AL5lh0PhVw8JOu5PrcHclpnyTLboruadvb3VxPTYwB1ONIgXI7FwjvrHfqhMsQKl+5998t0+zv+9nB4/j1w0MQsDsP+GgVL5U+/Kg8YPGQaTNYQJxlAADBosrB88iGxt3vejxClAqL756vhkbBZLZnZ8GjIHnWDk0zKg4CgH5UgECOnXCp1rBQ3blxvp2TGgOF6yLEmDQztVubMQ0lly7OdkCHB3J4urGx90YPr7bvzX4nux5m93RnblXD3d39/aONna4u/eyVF7fOeVpvkBZ+fG0yec9dafri68+Ho46jL0wFXo5ZjR34M5VjxrbGNXY4eHb6qQLcHwsC1Fcr52ROlS/1WZl9P1Orbu1+sLRby92WMi5y2f8Ya1WG3YAJ6+F8B6mvrI4mjN2rjysseud76VLIMCwxT67XGz5w+rFHkv1rO2Xz7nXAxu70OXFp0r4X0MAAoAAIAAIAAKAACAACAACgAAgAAgAAoAAIAAIAAKAACAACAACgAAgAAgAAoAAIAAIAAKAACAACAACgAAgAAgAAoAAIAAIAAKAACAACAACgAAgAAgAAoAAIAAIAAKAACAACAACgAAgAAgAAoAAIAAIAAKAACAACAACgAAgAAgAAoAAIAAIAAKAACAACAACgAAgAAgAAoAABAABQAAQAAQAAUAAEAAEAAFAABAABAABQAAQAAQAAUAAEAAEAAFAABAABAABQAAQAAQAAUAAEAAEAAFAABAABAABQAAQAAQAAUAAEAAEAAFAABAABAABQAAQAAQAAUAAEAAEAAFAABAABAABQAAQAAQAAUAAEAAEAAFAABAABAABQAAQAAQAAUAAEAAEAAFAABAABAABCAACgAAgAAgAAoAAIAAIAAKAACAACAACgAAgAAgAAoAAIAAIAAKAACAACAACgAAgAAgAAoAAIAAIAAKAACAACAACgAAgAAgAAoAA+LT8BzVTKkOCa3DpAAAAAElFTkSuQmCC;" vertex="1" parent="gcJ8K4zWGFhd17STxBYR-36">
          <mxGeometry x="830.79" y="209" width="92" height="92" as="geometry" />
        </mxCell>
        <mxCell id="gcJ8K4zWGFhd17STxBYR-7" value="" style="shape=image;verticalLabelPosition=bottom;labelBackgroundColor=default;verticalAlign=top;aspect=fixed;imageAspect=0;image=https://miro.medium.com/v2/resize:fit:981/1*vH0yWboPy9ptgOSqClcS4Q.png;" vertex="1" parent="gcJ8K4zWGFhd17STxBYR-36">
          <mxGeometry x="798" width="157.57" height="53" as="geometry" />
        </mxCell>
        <mxCell id="gcJ8K4zWGFhd17STxBYR-34" style="edgeStyle=orthogonalEdgeStyle;rounded=0;orthogonalLoop=1;jettySize=auto;html=1;exitX=1;exitY=0.5;exitDx=0;exitDy=0;exitPerimeter=0;entryX=0;entryY=0.5;entryDx=0;entryDy=0;" edge="1" parent="gcJ8K4zWGFhd17STxBYR-36" source="gcJ8K4zWGFhd17STxBYR-33" target="gcJ8K4zWGFhd17STxBYR-7">
          <mxGeometry relative="1" as="geometry" />
        </mxCell>
        <mxCell id="gcJ8K4zWGFhd17STxBYR-35" style="edgeStyle=orthogonalEdgeStyle;rounded=0;orthogonalLoop=1;jettySize=auto;html=1;exitX=1;exitY=0.5;exitDx=0;exitDy=0;exitPerimeter=0;entryX=0;entryY=0.5;entryDx=0;entryDy=0;" edge="1" parent="gcJ8K4zWGFhd17STxBYR-36" source="gcJ8K4zWGFhd17STxBYR-33" target="gcJ8K4zWGFhd17STxBYR-6">
          <mxGeometry relative="1" as="geometry">
            <Array as="points">
              <mxPoint x="757" y="180" />
              <mxPoint x="757" y="255" />
            </Array>
          </mxGeometry>
        </mxCell>
        <mxCell id="gcJ8K4zWGFhd17STxBYR-33" value="" style="outlineConnect=0;dashed=0;verticalLabelPosition=bottom;verticalAlign=top;align=center;html=1;shape=mxgraph.aws3.vpn_gateway;fillColor=#F58534;gradientColor=none;" vertex="1" parent="gcJ8K4zWGFhd17STxBYR-36">
          <mxGeometry x="647" y="144" width="69" height="72" as="geometry" />
        </mxCell>
        <mxCell id="gcJ8K4zWGFhd17STxBYR-37" value="" style="rounded=0;whiteSpace=wrap;html=1;" vertex="1" parent="gcJ8K4zWGFhd17STxBYR-36">
          <mxGeometry x="165" y="13" width="462" height="343" as="geometry" />
        </mxCell>
        <mxCell id="gcJ8K4zWGFhd17STxBYR-8" value="" style="shape=image;verticalLabelPosition=bottom;labelBackgroundColor=default;verticalAlign=top;aspect=fixed;imageAspect=0;image=data:image/webp,UklGRgZaAABXRUJQVlA4IPpZAADQqwKdASqAB+gDPkkkkUYioiGhIVSYSFAJCWlu/HRZ4sU+jQvlK+S//T6/+F7uOV/QX3X/B/sl/dP2q+eWyPzT+3/3H+0f2//1/337/f6v+0+2b1l6q+kn4A/KPzL/B/3n/G/9f+7////v/iv/leqv+pf6j/ie4J/Cf49/hf7l/gv+v/dP///3PBr5jP6x/pP/F/rveM/6X7ge/H/Gf7D9ifgR/mf+l/73Ym/931DP2N/+Xri/tv/w/lk/rH+M/8v9x/f//w/LD/wPz7+QD1xP4B//+sX9B/aX0vfRP3//N/3z8f/Kd9y/f/7j+yP5LfjlgX+e8Df5b9sP039y/dL80PyL/fd7PAF/Gf59/n/zF/Mz8I307gjvX/yv8L+S3zifh/97/AerX79/iP+V/cfgC/V//h/3PlAvSv2H+AL+X/1r/0/5H3lP8P/3/63/dfu/7xf2H/Sf+n/U/A3/Rf7t/2v8V7V//8/f/5M/tj/+/d6/XL/8g+eKzLxemerrMvF6Z6usy8Xpnq6zLxemerrMvF6Z6usy8Xpnq6zLxemerrMvF6Z6usy8Xpnq6zLxemerrMvF6Z6usy8Xpnq6zLxemerrMvF6Z6usy8Xpnq6zLxemerrMvF6Z6usy8Xpnq6zLxemerrMvF6Z6usy8Xpnq6zLxemerrMvF6Z6usy8Xpnq6zLxemerrMvF6Z6usy8Xpnq6zLxemerrMvF6Z6usy8Xpnq6zLxemerrMvF6Z6usy8Xpnq6zLxemerrMvF6Z6usy8Xpnq6zLxemerrMvF6Z6usy8Xpnq6zLxemerrMvF6Z6usy8Xpnq6zLxemerrMvF6Z6usy8Xpnq6zLxemerrMvF6Z6usy8Xpnq6zLxemenmgaswQsvvL8QQZmjhXGVNPUpgZyIwrUItMigKUYz1dZl4vSdUiNiPEObzLxemerrMvF6Z6usy8Xpnq6zLxemerrMvF6Z6usy8Xpnq6zLxbRccUuc9rLH1NempF/JQJz6M0GK16n1IdSB1MqavO59fI1M9XWZeL0yxslFbeirwX+wIr1emerrMvF6Z6usy8Xpnq6zLxemerrMvF6Z6usy8Xpnq6zLxemewKaGlQXxKIRqSa/1Dc8/q7VQ2KDAUeI+8wWL0z1dZeqkRmjyyZvGKmpTEzSjGerrMvF6Z6usy8Xpnq6zLxemerrMvF6Z6usy8Xpnq6zLxemd8M2WMyDKIRmlGNWPj9jo/eBLNQrQygnmXi2qiQP9nJ6ddWuFzdZqoDN+KzLxemerrMvF6Z6usy8Xpnq6zLxemerrMvF6Z6usy8Xpnq6zKgVTLC4ONJoBPMvGNiTber8X5avwXpnp5g3wW7Xxkaj/xHxuCUApRjPV1mXi9M9XWZeL0z1dZl4vTPV1mXi9M9XWZeL0z1dZl4vTPTwjKTZmgjhCeByup6uthGric3Zy2mWtGM76Q78lZm3NDl6v1A5xmlGM9XWZeL0z1dZl4vTPV1mXi9M9XWZeL0z1dZl4vTPV1mXi9M9PP2w5rWeBa4LF6Z6tXkrz/Gkd603QEorb7+np8cfYNzgctU9Wp7WeMzSjGerrMvF6Z6usy8Xpnq6zLxemerrMvF6Z6usy8Xpnq6zLxemerrCZruGF/9BrlJH3XU9XSzhoA9Q6xWYh4vObkNZUu/wsCT1atFeLqlUoxnq6zLxemerrMvF6Z6usy8Xpnq6zLxemerrMvF6Z6usy8Xpnq6zLqxyqvrOa+fVTY0oxnf7waZ1CjzoutCwtJzI7eoAt47H7U9XSowItTFaerrMvF6Z6usy8Xpnq6zLxemerrMvF6Z6usy8Xpnq6zLxemerrMvF6TqNllZgZJIIUZXWZU5NF0Te2ZmyxmQrrkUizKgstxek7jY7uW8y8Xpnq6zLxemerrMvF6Z6usy8Xpnq6zLxemerrMvF6Z6usy8Xpnq6y9EoAdhxELPbn9Lso6BfeQH51QrrDCR9cqlYKmrVpdk6nq1LgkcloL0z1dZl4vTPV1mXi9M9XWZeL0z1dZl4vTPV1mXi9M9XWZeL0z1dZl4cEbxmspKQI+hv+3iE1Va4675C9iLVysF8UX0HxWXsdE9D0AoMZ6usy8Xpnq6zLxemerrMvF6Z6usy8Xpnq6zLxemerrMvF6Z6usy6oY1XokjTm0oewsNYrKtbrgS//ZCtW/eA6ApQAJb8VhPW4s45IlfBemerrMvF6Z6usy8Xpnq6zLxemerrMvF6Z6usy8Xpnq6zLxemerpQcoHCenYx5+K2EQ+ck5MlREFOMhydZ21RjVcoD/m/FYTaMRTjKerrMvF6Z6usy8Xpnq6zLxemerrMvF6Z6usy8Xpnq6zLxemerrMvF5QPwfAykqI1zTzvSIOMGX2NAhCgs8FAf00sov+8l//W99T+xpXcAMdkWgG/l4vSeJE7vZwSM0oxnq6zLxemerrMvF6Z6usy8Xpnq6zLxemerrMvF6Z6usy8Xpnq1KQqn5o1/IOmGHg5XKBe4VWdXcSNsbi4dtLkKcWjIoPzPoMoyDlxPYI8y8XlSAU0TZmusy8Xpnq6zLxemerrMvF6Z6usy8Xpnq6zLxemerrMvF6Z6usy8XpljYiFwiZJ9J4vgaSWqBjjymCNS6fqcD7FZFZRvEu11JJjPV1l6Og8r4EPyusy8Xpnq6zLxemerrMvF6Z6usy8Xpnq6zLxemerrMvF6Z6usy8XpRQ3uKY1j3QpM9XWaAKYVpAh5U7eV/PIK57EXmNnFaquQhmlGJwxqwSQ3VX69XWZeL0z1dZl4vTPV1mXi9M9XWZeL0z1dZl4vTPV1mXi9M9XWZeLyhC8p7Pe0mM9XWEbklr1mQMgZBL23s5yKotFx3VsiS7t3rlId/MBNpQVEaXX0oxnq6zLxemerrMvF6Z6usy8Xpnq6zLxemerrMvF6Z6usy8Xpnq6zKgl7Rr+ldZlQ/6PIJUS1br2W0o5QGqvwB/4Vd2cV2SkhvvfEZDfsZsR7zGuAg/Ydp6usy8Xpnq6zLxemerrMvF6Z6usy8Xpnq6zLxemerrMvF6Z6usy8XlHZyajPOMy8Ct9kajggG9SXvVn6tz4EAPI9hC8syGxyFyND0L0z1dZl4vTPV1mXi9M9XWZeL0z1dZl4vTPV1mXi9M9XWZeL0z1dZl1YkbJkeXZTPT0nZYn0hkmKEwCsrsBmae7eD8ZZlQ8WBbtf4xIMZ6usy8Xpnq6zLxemerrMvF6Z6usy8Xpnq6zLxemerrMvF6Z6usy8W1xwBacCk/+eIQkadxaH6tGnBXQJwgRLzVz3HGVIjNHk1u4+SgKUYz1dZl4vTPV1mXi9M9XWZeL0z1dZl4vTPV1mXi9M9XWZeL0z1dKqdVGqyEL0oGGsiup5fjHNZnUDUVHhJKlHfs/lLFTolQJQtLo8F6Z6usy8Xpnq6zLxemerrMvF6Z6usy8Xpnq6zLxemerrMvF6Z6usy8W4RKJgyMGRT2ZdUIjjS1Mz5IP3oO/YnIlS2E/NtL1naapWaTq6K1xQVAuF6Pv2P5vxWZeL0z1dZl4vTPV1mXi9M9XWZeL0z1dZl4vTPV1mXi9M9XWZeL0nYqO7ZGUXpOM9LLa7GQomW3BO2Xw01X5skEnq6/6WzBtIDCaZMgDGerrMvF6Z6usy8Xpnq6zLxemerrMvF6Z6usy8Xpnq6zLxemerrMvFtgvedjBc2BZ7mIDrVQTqmZIIl5sII9uqpY/xMGlGM9P5DFAAZVTkCTiAWBQYz1dZl4vTPV1mXi9M9XWZeL0z1dZl4vTPV1mXi9M9XWZeL0z1dYTOQjZlahZ7I36ZnR0Kz9EVY52X0pRJdbeJVXWZeHiS1KklZODwFLE3XU9XWZeL0z1dZl4vTPV1mXi9M9XWZeL0z1dZl4vTPV1mXi9M9XWZUWWgXe5U3IWs1odILfidQuc66re9ZiNJGA1ZNJdausy9BgkKLbkvDKOvZl4vTPV1mXi9M9XWZeL0z1dZl4vTPV1mXi9M9XWZeL0z1dZl4vTO+30l73QYJRhxKR9lA3cXplhY9wyB26KwGLldT1dfdFFZNvMQkCpjPV1mXi9M9XWZeL0z1dZl4vTPV1mXi9M9XWZeL0z1dZl4vTPV1l7Aa55MgrCWmHiK6zLxfkEt7V7pbiQBiMHxWZeMR0fjr+nnvhPMvF6Z6usy8Xpnq6zLxemerrMvF6Z6usy8Xpnq6zLxemerrMvF5SZAHpBLRloNSSDGerrM0lkm+6jpSORQcufNTPV1l6Nt6uYfRelkBQYz1dZl4vTPV1mXi9M9XWZeL0z1dZl4vTPV1mXi9M9XWZeL0zvr3oqAuUVu7rKj9SfWZeL0z1ee0yYyJ4I68BAlaNMFtTekdp9hj/r3D3oxqBW8wx/EmLwxnq6zLxemerrMvF6Z6usy8Xpnq6zLxemerrMvF6Z6usy8Xpnq1CGkvWl49/Bn4rMvF6Z6utzUmm4k3LqEq2J/oO/nm0Wp+q+66Ekd27/1j3qwAn1yyBEcpRlQwTzLxemerrMvF6Z6usy8Xpnq6zLxemerrMvF6Z6usy8Xpnq6zLyUKzLxemerrMvF6Z6uv1U9XWZeL0z1dZl4vTPV1mXi9M9XWZeL0z1dZl4vTPV1mXi9M9XWZeL0z1dZl4vTPV1mXi9M9XWZeL0z1dZl4vTPV1mXi9M9XWZeL0z1dZl4vTPV1mXi9M9XWZeL0z1dZl4vTPV1mXi9M9XWZeL0z1dZl4vTPV1mXi9M9XWZeL0z1dZl4vTPV1mXi9M9XWZeL0z1dZl4vTPV1mXi9M9XWZeL0z1dZl4vTPV1mXi9M9XWZeL0z1dZl4vTPV1mXi9M9XWZeL0z1dZl4do2c/yfNtJ63oojUYz1dZl1g+tSJMkI8SZs9XWZeL0z1dZl4vTPV1mXi9M9XWZeL0z1dZl4vTPV1mXi9M9XWZeL0z1dZlSv5LAtd44NLhpgOp+O0ysUfBDc+hEAzfTwkQeS+Cosxrq8B4Wwi1ddkLxmQuZcZalQz0mgwLYElZiKUJ6U3judChvixQIeWmgxg9NMkNAKyDFsH2duS972BZolWL0z1dZl4vTPV1mXi9M9XWZeL0z1dZl4vTPV1mXi9M9XWZeL0z1dZl1i0XY95pH4O41LtmH1wb9DAbA75vKNK7Rc6k1q0RKoUT0Lt4ItXtYHXanNb7KyMojd7oymzsklyUZ+BWY0XZOVf86sHD7W+HMc2XX2rO/SnZM6d+ERY9oUF4ZKS9OvK5yLqIWuOd94sfJ9E3qg/yEHPf3KTpRjPV1mXi9M9XWZeL0z1dZl4vTPV1mXi9M9XWZeL0z1dZl4vTPV1mXWQLenn7s8ajERWIbbsbIvV3pvahy0LCDWmNuUK4ZCmhKTXmguFBRDnoSbJaERpgqb5e3MRbZxYuIzbOdW59N8zNv3nhPnnPXCGrJ98L70Yz1dZl4vTPV1mXi9M9XWZeL0z1dZl4vTPV1mXi9M9XWZeL0z1dZl1hLP3xGpdJ/bYIIRikbRf8j7fPw5uEFOVNU4sAhvHwpcdGY7btOnaqlVV84K/QviJEPIcfSTXxjMn4cz99g6TzokPqm41HMhWA+lEnSHQ4gAfj/eYT15ESVpA7n1C7PfLbvzmMGAfKdUC9M9XWZeL0z1dZl4vTPV1mXi9M9XWZeL0z1dZl4vTPV1mXi9M9XWZU3y5gfeyM4RowcZKIsYDAKIEbB+5Pnw1b4XS2tFoWfu5JMTjM+NyKmgBHdh2ZYGNHi7BvextW1z4qsr7UpO5OHaBHMDKTPLElyRz/dPyLEnz3hCE8y8Xpnq6zLxemerrMvF6Z6usy8Xpnq6zLxemerrMvF6Z6usy8Xpnq6zLw7PQ8izvejHMUVmXi9M9XWZeL0z1dZl4vTPV1mXi9M9XWZeL0z1dZl4vTPV1mXi9M9XWZeL0z1dZl54pnq6zLxemerrMvF6Z6usy8Xpnq6zLxemerrMvF6Z6usy8Xpnq6zLxemerrMvF6Z6usy6wg82gtb3n1ibDlRZXfelndJgYog2uMgnNvcEfdTdP/BneKXKz7isy8Xpnq6zLxemerrMvF6Z6usy8Xpnq6zLxemerrMvF6Z6usy8Xpnq6zLxemerU4Nl3rG2kcFh5HV/t8ECKfdJZtzRxnehknAv/4GQP/OKPg+Env6gTuseq8ebKACUk0mL9O61pngbNZiW6mwPNZffKG5VO7m57tQVCJI8F6Z6usy8Xpnq6zLxemerrMvF6Z6usy8Xpnq6zLxemerrMvF6Z6usy8O1Ed9ZOKg/o17pB/n8SensliRCw2iZYqIH0dvAQ0RjUIFhpihMTBW0Al09TFnzbysziaiQrl+jpv/84Cvs4TpRwlKsfJryUQlqqbJR5LMVyrW3YR5cOgHyStPbVZjwGW+rrMvF6Z6usy8Xpnq6zLxemerrMvF6Z6usy8Xpnq6zLxemerrMvF6Z6tX/+CteBfNgCe0oSqkKW2veiQw+xGD1rF8RnES7v79JPNMgNISXQP8FKXdvMrhYTv2Gj2OcwDyDvzy/K3aiQRk5TioKmB+rPcrMvF6Z6usy8Xpnq6zLxemerrMvF6Z6usy8Xpnq6zLxemerrMvF6Z6usLPIwusZH91V5ZL/fb6JHggJ1NTIRFiaxAUYYl3gSe7W5qkTIeXQdgRyHQf2qGLweUvelpi+koBlZJkkBcXinq+C8ZPOnAz+a3BTkGpjPV1mXi9M9XWZeL0z1dZl4vTPV1mXi9M9XWZeL0z1dZl4vTPV1mXi9KC3CR+RgfJpUYcbygGhAcXQGwN1lb2f9KQj1hmkXX8UztnSOhhOmLraTHE6mygoiVLjlochz/atP/eGHnGPfz/R88MYCgrhqTx+DoMqXaATu0OO9U1rldT1dZl4vTPV1mXi9M9XWZeL0z1dZl4vTPV1mXi9M9XWZeL0z1dZl4vTPWh+q8OL1t7iBIjisy8Xpnq6zLxemerrMvF6Z6usy8Xpnq6zLxemerrMvF6Z6usy8Xpnq6zLxemerrMvF6Z6usy8Xpnq6zLxemerrMvF6Z6usy8Xpnq6zLxemerrMvF6Z6usy8Xpnq6zLxemerrMvF6Z6usy8Xpnq6zLxemerrMvF6Z6usy8Xpnq6zLxemerrMvF6Z6usy8Xpnq6zLxemerrMvF6Z6usy8Xpnq6zLxemerrMvF6Z6usy8Xpnq6zLxemerrMvF6Z6usy8Xpnq6zLxemerrMvF6Z6usy8Xpnq6zLxemerrMvF6Z6usy8Xpnq6zLxemerrMvF6Z6usy8Xpnq6zLxemerrMvF6Z6usy8Xpnq6zLxemerrMvF6Z6usy8Xpnq6zLxemengAAP7+3bAAAAAAAAAAAAAAAAAAAAAAAAAAAB3AOwqljZP2LOHKN/3gw3DQ9Z/vuxT9+w4uCU53NAhm+PGkTZ4qCqIZLSOCkl2yoRvgOUkw251o7ar+BdaiW1nXCLk30yV/YCqWWPPrr66c5pXwc6ly1c7f0YRBdh66Kji+W27E8SbmknR6hb/EDI5cB4hLzDtQ8m26q0hah/itb1WPwbG5by63i7L3d/sLU15fwgSaYIZ4gtI2ii4gnrJxyaLMCrYX8OIhPmvKEi0FfuBV/+MONB4eFoR/ShFw+JH1CBclP92milKdztgk6Pt0l+Z3j85gVCOjN39/TwfwF4Y4/2/p6hTFAOvssAwFjVI2KR4PTu5Ex/9qz4XvEXkZY7ADs0lyT9T0hrCo8uORZTgT32PgSASGSZQS9Dbwnggv9AAACFjHIExzQx5alCz1PmMsahTbKdHLV5f9CYM0IbFRCnpXZh91pwoouexGP137I0RTWMxs2PP1IEhVGlim9i3GV2hE1D03h1IUV6J9mMhIarnZDCfqEnhVXMQFsWsMRuqVwPnwM+6ao0ndZQMBHq/mz8/pWNrwOY7Jwf54a1wg/bdB4UR3dwPznGVL/ySnLCHv2UZkrR5mvY9Kmixo54N/cf5WJ2j/+n758/55CeGdAnwL+hGxD8vPiL30Dh739ustgQ5XbV/MlpwhChwdnMO45/M7QkVDNf+W/oGnet1YuvZ/Ek6t7RTL35kfeFFDXwBJfaiwy0N7WmHTzKyBDxvm+fVERnC7N7r3Da5kA5bCzdwnK91lCDeUrWctsbpz2rgggIY3P6rT7Wk7WvGvEbNyomBhcY8wSXIMlkmszjFlxMfb6tr14HsBpEJN/5jcwu00XdfXu49EQJ+goDWwv1BqwpO5bOF/Q8teR0pYorE3kXGJA4UdJuiJupT/AzqKeN8jKXA3bWv6EO1DznEheVPGuHFk1T3zkeq1wVxOw2IgRxSeJCdzVm2pRA7mDlhiGSNcXTwneAdPZ4AAAADDwhCKe28oPvT2eUXX4cUjhp1TKCyG516EzgiDehbmjNc5UioOHjRvDDiQ6LEwbwH4Q3hYYdnKwLow14lHihqzFNrrI9OkYyBRtWM+AAABG7JlVl0ojkD4m12OhxU99yW40/gVCadOf6RIGj9ecXgvZ/4qM+LrieGkCEZ9aKl803N6NpU3I125nW9+f3FVf3d6TTCMsC4Z3VTj1Q39w+izbox1NGXYXmgQ6T5Kw6zEdxxzhVe5MvSFU7YuSs+VXJMr3111LMz1GlVnj2BBC7LIInx2XXtCwdpYK96pN8OzyZEQyeOEyT2CIXzesU8i5jGuAMWwgCUzo+9bZLbB/o9ONhHLb5D7AVPWSWEeCHNTSHtLwYUggzHFxJ/9+BfWJZfXx8g9l+VJP6bsxMKU8IpSzZJKfrnAfHEisNe4+StKUej4GAAAAoKf0Dl/Sme+vFrMAV4RcLTYhVCFQRabl2IrnuXga2rSLl8kK5i7zXfAfgFS4fFioNd0GDrYcySHgVlKAkBfqir0T8t2xPzKkgpewhDbeQG03V6XjpNXSPthDFwtu+6+cq2/Fkrmed0RuE9jOiYY3I5XTfp49AMiRFJfgtJ8KT/tNYQgOU0FKCsGNz10hO/XYFlIUlwEAWq7IhGzC2Z2Sju2oyx7nDO3vckSKkua4XNWpnVagK49GW/IJlldPVSGBZ0BMq9H0Wn2nMHN10vvT+RcxjXIDFP6+JtZ58dY3kQiP1HMcKOlYZReeJ80GE9QMpXey8GGDAu5VCRWFRV9sOKl8t2JOsB02N7C+61443FRLa3tqk5kfnPOIj3w9c+yxA1Ni/M86qknF6wVYAAAAYyT2iU75R7MYiML/QNKg8it6GJzw9wrmdgdi9xqltMLrn5TMXTCKAippO39QcjdFgqGmMWv5d6VgD79e698+QRnL6g4FF1JKGZ2oXZ5NR9fYzv94dAEOvMJtZtKiJyjinX/ZDiuTsOUsZ2tT0fAsReCyHRkoo1dM9YIC2e+jhFmnC8Tq/Ib8dXqGPwQb/3AAqLR8WdFYa2NNOpV9lnE62J26aa4esp5GqbGj+hpdZ4WpDUNppsAnQW3QKlUXuyOlup/8YU3bDmrxLP8MTigN6auyFdXVbVAVv7FUQgS03A9tt0xkaeBn8EPN5LIW0nmfWx2e5KP7bAFKzhAKilAZC3YW/oS7JWDEAd2aqUOjl86cZLx6C8nhwAAAEH/qYZphaGwqMYE0jZLEaUl/j+qGXpn0xcPjJ/FdEs2IByuj9LAVDAX4+jJtx4jTX94/wwd8si5ZdF1dMSxeF4Q3PCCHVogNDGjo6hFVi9vVgNaWGtJ1gBmNNSktyzkt+IZnGhCfKzQIWZwf80oFkgLYLKPv4mACa22ymaaJCXBtzlFh9RlVPz9j/33Mj1lDnNws7JZuOTRhnKwocr/Au1D0fJ/68qBitrMh1JmXRA1XmjSP5pSa12PF4Z6LwYhVhCGUDPsxNDsvvwV05qe8LLrFkry+VhRW9U9jhSjV//mAUO7M8XmlF8QGHMbx20zRug92VnC79gAAAApG6eO+UeKzE0qSV7dzFOrs3MaXd2i2fLAWnQsbOBYNp3iaNtqV6EtllsZwQ5FMpcvCy7HsXUv4MFIeyXHCcMAxjzjKWIWCf/SGshaf4rENec0MioS5gKk9mAdUCjsI/8t/9Rwl7xc6C4YIAKTXyaqOecGoLL8KsWIVAksr6BjGApl7MsTrTCH0baRzIQ9TYq/pAubIXo65VPz9jxCqNak2O25+G/9a/6j8u+2Xa53Jj7r5gei1ElhGNoAhXb+4w8c+LHqjSXFrar1nmVA8HLkdFS82o2yWk/0DgNQDRdINHlJ5dnYl3yWZfQrIvSXjfYSfMgJ1TiNfTjWm9PVHUiJw4GI+sWMRoTIdOFgLyElrtt2JAAAALtiI+6GuiusasbCThYDhlvFVL4ZneZUrI8e6uQXtYoYfB0tau51e3P+t2LJ7qPRHN0DWa5KGcPtH0zgv32DSpFMdwAw0+g5G9qEyI2WXHNxyLJ7+JXcO6GHZ6F93bw1j3X5q0biJtIGFembn+H65IDO0x1mYpLvYPOqP4+q7wZVN3T9dM+jqmccshLM+iNDtXf9/UfBWUe6vQd9LdnOgnyN+ujGyDwjVjNGrzKxcgUe4OkldXYuGalyXVS1pe0ljOMeX/Rw900tf4U7+5dhhv/UhcNzyPizT1jTiphOvn5mgU74MHNGphUTBwbBydc8scSS6irafzQegk20G7nk7jyUJsLBSMGO55nLL9GP3uYvCmgAAAAYN1qVbRfiVrD4MY4P18tTfy8g8HNwCC3d5ySUSnOde1SgJey5vT728MgCpbh7DxT//1WdzBqu3Lakt9yFEFDOzQz4JROEbDXPpicOFQoR4Ln8RZBoYpMvxvu8WuuwJivDQ1YH2z433r3/b0xisuETcMduBDzMlhc4MUsj01oVIpf7WJsMkMDZJGP0Snl25wGLoGjLPD1y1wjVVpiTqNfiRR5ujwxXHENa3V9r0Vb/y1pWq2Osqqhc93eQOmOCKrzn/LSNLSG3frIC+sOAVZyC91SZ8JPTrSJpbmoIsQ4D5enn+epiSA9bquBwyCAngritx+5LOWSMiRIIIGGc5vLhg7nj9t6pYAAABQwoFAKHB0Ol/atnEor0/M3iB9Um3vK+i62slJyMZzHaKSx/CbMuRlNaQG0o7cU5yQSuWTDAiQKMMVGQWAmxK115Owv7p4QkUoq04Hc3SGsmc/jO+ZqjmedqGtGMtPK5IMkJsxspE7d/1+2LShDzT7z+eYC9RIrzAbgOjvUC/9CyXgurJCEjyNKTOzjTfmpmXYSq8NtSOZ/XTrYo0as22qhWsXLo6Ka5weH+QOk0cPTc/uI1sLg4xRVLZrovagCQAj7WDHClnddsfvR3Ui4MXfEHuB8SZMuAUnPlrptR0U6BjiQlyG77dQEMQeYWNHMRD+efuz3xFdZCD7V6i2Ku6AAAA0Z6jb3aT8SKFF/z7FIP4JuTSWhKf9nrJ372v8lwcnSUDHHX2RSlVdeDpgA2mcITP2sEuj4JfUxm6pr9Q/huE2DXSe1aeJvmeCuAJ5eI38otgHA86RQXvnQ82ma611bDkyl6yOK7TrzdkuvKJ2lXjJ6p8ZDskBJeWA6ZIr51yOmB09rpNErbnz7FceT4i9ixT5i3nNJH3taMMrg0W1YBXMHMF+Pxs2II33ln54U34HeI1TkNkZnXLG+0jTRtcdW2PUCQyIOdwNNa7AHVGsoR7RcDbITIwOcCJwRhCHjVdBV1QWxmzyaRQA5gpO4cHHL8tWNkXE6zsGWgKOBy0RiJDa5PeQhgvaGMOXbMkHzDcZ8CSsJm9cqymfGnkxJY0V3w0EBmWL66BT2BqVkzqJqXJ2mGVBvhror27EwZ9zIFm6ToffHW5yFlkhhCdAAAB8kLsD5RC97miuLHJ5etrfwZwdSqFTxEZ1wjcbZaw5mh7bm9iDpgA0ZZE4+0yKhM9Nln90x0XIgvQ6LDNqxHmCc+d5RTU2T9r9Voza4LiHLtBoJEoU0GFFRkr7bi80RaRWhcYOsfPJIsXVi1tlVAAtsBMPm/ajAbFM7i/R1F21DQnBG3JFTh4Ue0Alii97DqrzYhCwpVdvrvrHBWOuUkBmGZVKtCKzKTVuE1x1bxrkzfF0TzLHS5OiCPPRGkLfN4og2W1jE1O5r3kSJU1CA+wtmv4k+cKtjOkTfhbQYQzjTrYltxXiz5D4KogzSAXgWPMu5+MrqpbSWNLae3A9SHsMtsyZ8vwYUc8TOAY7yqva8zUWis11qiVckkRPQ1DXj133cCevG3Igy5GGtECySp/fJ1ONT9nm223kpkEAAAwVJJdxfDztq/6yuJ9OfM7Z/TvKp+SRGHDvRXfqVGErv1KiuHvBkKfMcGSamYSIgwi2z8vC3Xd+pt2sTI5/pDO5zX0aio1bCchI6xwzgNPAvWB+4jT30agCq/X2ZSNpQF8YLc6l4pZXllT1QAMuN9IDpi7pzlHGdfQMUSvuwWThGXoyvzaA/uN653NizcA7kTO0UG6/kbhK+R1aa7ipi/js5ie2wx0Mw4fjAKWHPrJ8Aa6VsIj6DFC7MY6UMu3I5CzXikrhFdoDmyVH4jVuonZ9hR3zGxUOhvSV5KCqbEzgiY4nW0SoWuzzZuNKmZ3Qb4aAZhaBNvD+GLUE4BcC6QbFEcsWinTGaXL45UiSmc7LQQqvaOZ/xVp28hqoHFB8/L2xOIIg4Or7demHnb4AAAYiVPd/00VJ+oHocvyBQxWtWILJg1fMfFs3iKH6rtvwq9rqFdyA0I5bI3RS4G4jcGjonLfg43PRMpuExK+clMZ0ILcy4GneYM57Xr5PC+kfilEEk8ZPwIOwkqiIW8PEADFGQ0kTbJKMAXXOelW3zku0TU/eaFdxcQlHhK/rz5xgPzQUZDcE3PtF9h0jVlxmyVhXe01v5jFUdmqog/92Fx2ve5NhlzxWmXAPn0GAFITvMZZblH91b+oSIcARwJK8Y9EJYpIbCElL0Od+qERKnBPWGDtxFbdYEymUWHnUvkcbs9+69hvh5Rq9fxgqcbQk7Ma0XxONJkhbfaHm3bvEj5fTIgnOi1D3d5/sQ4NcdzD6BI9NbdBjjMJf5cx32ePF8cc4HDKw1uMMngtAkVBHU0T1QPZvLsgVstSTS3NYJfmisU24TaSrrrTzwpcyngnLONL0qmvM/oNzjVhKbaEgNqRGAAAAK1YtZjkCsof+RKR+2YtCXFVPm0+pyhr2vbrx8nHIKvQU8uY3BfFENgcNXZyDzLPQLWSudzQoKO1FbLPf0UHmyzm3/1U+N+KLjzR7IFybhkJq0Zm2x8U76YvrXz6FLprYnL76x+Kw8B4eNZCOF5dZW8Yhbs0cXxPDX+kfeF+qkPq5IVpxa6zz2OLH1mrthyfiPuFiWfcR5Ryiew/D3REiNxHHY/vnb/JWcYbAnoBkn9hAckmuy4SufJa1R02UlMGrHJLUiPoPnzBpmrU98qQ/bavPJaFaiBLK25jUWefTYnvr/GKGMQkSgY0RZYgRg/UiZLcXUFvxyAKuCILW77DeYZMo3knP/9IbiwJvhfmPaRhIvF1dklz6zdcSQNcgcAexxrLeDOLabrVInoriZOivXKuF/6VGn+zdGxpQqWc7rTN7yjO59/xHm8qc8Fl0dOdIbAEhcicqsQjWFEO8lBjCuDxMlDOdJYYzqGIjMEA5wfIXVE2uq3qvAZ/7YqjvFBjXch8dQDGOAAAAAx2dd+mb5k+9FXLsWns6DJs5ebREvNjNKBgTqaFDjEUUr3F8megKzHzt6BuFkTGJDKhqAvdYoKLE9ej5KH8YieMGdrS1k4SaPEE7Y4g9KnC/BY3rhoavleflMnqiCE0R2AuzntKr+ULtU+7gYBLPwNGz04sHF/Ba843Hk6WOil2p4lLj5FjldUMK5hHXh5qKwoOw99x6ZaTv7pSnZaXxKJKwA7A0l/QDqBHCaN3NnKDc+zi8b3aI1c/fiV6FLdKdGpMAprMjftGNagJcCJx0wZ2e7pdUkYoEdQPQ0ZX35ylfsd37X9uus/vu0U/i0geZtLszh6/KC68xF0QjffAd64eY7dvM9CsGmaT99RAVrvtFa46unrW2HjELFFf844bxPrCZmhsgXr4jYWFcYmNcmQrnrsTUr28rB1Nq6bDO/EgZ79MibPn/9SwMy1kqa6bzOlACjwV3xgu8NN17vNLTdryFKm+fr/d9Rs9W06ijrnmoBVR+frvnWObu3weADHQLJAeKC/23bvlMyEg5qIGcPyBX4/pbfNoLCyneOBVwaXQ/MkUWBoVZULqi1p09xqM88DcJ4jfaL3Arx+84AAAJF7O6DAwelfJi/XIitdRd9OKrvaezJhS3FJTXKERFg3ZwWIJBk1dDSL6d4v4m7VepQyH9r9Ujm8KC6QLMH2e9EgQpNTyyFN8AyEEA4cbTvZYZCYRxAlhOBkU/NCHtKYtY48nLvpj+5Ou44KtV+U2KkKfR5nsN+txIVz+xAi0xLNCwn1tbwQaEEYndByss8pvB6C78DRdqUfd01CGTxBomSIUcNU3m+m3yTG4QFT/U5I83vz0YSwUkOC36AP7rtL5yjWjJOi9FPfEtr8379MoTw15QgJTux0Vgp2DgWabcZ2aDdCMsBOhnXwyzON92Tqrx+JiSNBtxaPdGzroolwMZLWU86OHsfp49zvqVU25td+LWZf13VrgmW0T0ccWCZnKVjLSsPEbOLvXY3ML1WhAwc120s8xuRRBFoBYUVreTcrVU+KMy2i6qNP6oQmaVt3MSRIYAIAknbS0FbOMlXbhRQw4KibMvhiDI1Oy4/5kWFQDfJrjdzLvcRYNEwAAAEq7QPJUjEKDWBtmp/CSyw58zzgrJ5Viy8Xdmw/XVQYYpg1rW9hKKe1FmxD7WUBXIIO/zn2byCCFV6vx/nFsDZP0sTORnjeN9Hspd3gPHvrcVu+35fhRcePY/V/Ivs3awYiN9j5E0MPDLy0mWDEWdXFN4roKt8Sbm5qFku5ADZYu4i2gKIGyhicElElMkQ8/lgINEYkYp3YbzyRqR0+jEOQH0MCpIQGUnG0ejG3w6SACVtnzQ61+9nQ9dgjPJ3j1DO0nNVz1UPd12CtiBJsKx+K7jnYQ0uCiqZ/318YOYC7iGy9eLVvy6bbdd1ANgfOXL+Tvnbt6ywQEO4wHhWKBEjO62AjT+dqbbS7ycNAfYkxLZqaOzh9ktzTj9XWfbOj61nlLAtAYYxtGPmL6bJdbWAH4K3n1CBcnPKZCSimkslmqitkK8Z6zQjI3KiiOVRl5+O9o5MRAOu3rAeqJpAAAAB6igSQHZQ6kOMeIbE9J8XKtVBuqWGHEwRhlc/fBXYobiZWjTFa+Vsw0S4fX72hj9I6gY52Cm30RXJIestS4Vwk3Mr3Iif4pAB2URaP0XUDLel98r4DQGQBdWDhHw2WqU+RnQwVPfK4xfmv39kqCbwm9nAE5BCvs83xHVigXP7OTfMXJbhNua04EnDFYdvoq+D/JJKtif1/Ir+F4Xh+d/F6qc339lmj/GMtvopkxRwsOdl7F6kJ5LzO1miYp1k/wZsKxMtPWBpABcT+QG4vK2erb7CE9ZueEmkIqmKiC7fGjgxI1H6oY/ea4ZfFaMyY8BSnrxQ8N1d3WLVYqufWDATk7wtTMthspQlGpCTXIINq3X9Yi2ief/+p2J04jngUOEIScr/uOQ0erLCCbIAULqfIjN2N5ieuk/1p4whRn5KVftJulLoAAAfTO9yfdQ+ybTHwwiBFFWOES5+Xrs8vi1ia2ofuQ/xdN6MdUHgHu0N139vlYGzeqjoLP5Nf6ldRQeDHvFnFFE5D0uD99op5XqtslFk9sIcm7IzsALQ3MSXw9a3mGCgjdq7WVaKEKK+EraEWrol3j7z8uJA70AOLFQTs/MHHgvbP68l2fwgtUbwEC5G4XlT35pH2jOfl0VXf8cRAXo7qCnX6NW8JqnLMLjpSLP/tt6chty9mLcvUwMq50Wxq6QsCi03tjeCxUhH2d4NYBiv2KfrjmOIPhZkK6hYV4BSdXSwoAqCGZzuBF00I86ypVXOoR6p5bylPX0zIpOXcYQ0vEL9orUiXB20cBAi0DMmrGjX1dalsj/2/wBV6MBkWKx7qlIUVeAzhBHxEmLv1xF7jAFUaWXbFm8HHIlhU6Ezv8DfcefsaLqovZahBNWb/r+zgHUU+BLgAAEofC+c0OWYpYwWM1t5A5/Ex/zO69fBaxtFhrVWH29yt8ne3Idq1s9zj2yXcKYKi+Xu+rB8kF059bXDT5zvr1hYw5W0OJX3QZzJLg+/DDRpj39oQiovoKRpFA6q8mwW+6ZzIfhRmCyxVvaQy15XQMkdCvBW33zrSXuXYf41yW/O698Yto2eEqLX+VTzs2o4HpLytZao3RBJgdDpIgfQMVcpRDM/UuXyKpIbXKPDzfhTbSUfds9Xk0+pmCwNpDFRk67vcpchBYu6HgrsQVZB20AAQsa6SLZImYbQrjx+rUV5C7QS4aweBByvP9w/l25h32suc+ZZuk/0uzhjG44arwvuq1kqvkEQ0EHbrq35lasaQxz4lctvzUM/rWECZSkMfR/lJJgAAA1rk4piQTiafQWFrEwYVgaKORjCFFonzIpRpGXBEF7H/MaN8VM0X8NI9DC1++S5joPhgX6/2roB3zh4wGamlG7miESF647BMsGONEaLD6oh0jLlBbfOqgTCA3TclaIK/S/lEjh4327w5tslx/pw2yy/cfV7ChdX+sOtn8yoY7blVSZ4Ig4Zrz7tb1iLLPWEaJgn549p3kKTyRnNzbwzGPneTvioUzh/OSsaOMyR8bSV49YncLIOkPwxUMVPWOqMKyLCysMBMsw8HZ4eqcCDXVjvmKLtisSt5DHZmw17Cca2sA3AGQr3l+vsC0yM5NYSMcWgAAAfda3zF/g8QwrarRn3nYsWnP8wvV3nsE4C3x8HzBRrSr9kXsOMUR+lpYD/P6fvRPRmT9yec80WKyHXnl7iu9ab7BMrGRXuKeJVTCNuFv5eD+JHePK1LIe+1LDDxak0PNsNUD/1Mvv/kPzK3PRK8DhCdUvoYz/posKujKxmrJAMyrI9HJXVbYppZmYEB5+xDnfE06UtkmSqqAK8rUr1knq7Qs4Z4SujmX4CHuY2zs1TjDXwLFL21mzSvfyHFI3E9cpOt9w3yJpT0CqEdrdMEmaQ8FlkKlwPOghM+IoAM6npNLs4yXUpiolpoSLsncndQAAAAMiuZkEWpgc079QDniv/B14A8E1Ul0+ZmSaP51/ON9kZ5HlTOPRuST9o79BS3dWdwKX4ReKq7/zMhm5oZGT+8tINKUXanalqJ/bPWr9iOzPGmtgmYYn4mfftbCOjbI5LypuKm543LOyTU89rR0wKo3Iucr8eFRKZjx3UwIzIyIU6msMF29cI7MEND1gKGz+rDIJBUi7ybcQDrKob7OI1l6uLrJc1CHglS0wLqgVJaIwEEvzWteUadzdim1J8oRtqnzfMwuz+tZEDNyUPiKi5v1L+fZHaDuPzgXVufh9/FF9PZWP/gK9JNB0z2mfEUAGdTz6qt8eoPfo3FQvq8PBsCeN7W9U022AAAApbkKZ1aEg0iLEuSwNXtqyMlblLJIS7HK/Iow4SjCPPFC+spOsX58fvCRn0jABWyF8agl6fFY8CsAZUAYaTDJdzycHpvkmTaUCVMpB+VUQsVyYcADsrUMHl1rnDTwasEFBWmhTqgZheCYX3OPQVBvl3xQREYIoJ3ye++4gjmUuE7m/2Wg5XZ3H68bo13FVRWtVArG1AzEKu1HI/jHVkFw2bhWLtkt+KLD81dzIfg1MFiwWghKk5JydRe7MyYpaAy2ygGOsGNF7JNX68bf6kQ3Xnt4aWwLu7efX6QOfB7AooixK73B1NCvqpOl9WMKc1qsvPapuoBrg0enEmUqyepHBuBJyuhsfqzBltIgFKJAOC1IYJ4TnBkRLBjQw2alkAmgX2QM7peVzYVC8dKK2i3CoPilTwTWLQ6MOEON6x3BPrmAAAACi2Wqau5f9wZ347UGRJckqxPbXdGOBTsvP3JIr5OhVODizqv6SOg+JKvEIDeZICddsTBBNG+xR3B9dO11BltZ6daeHJEuUhrYAnFOL9rZTBUGA/55OIUBr9P++wqJsDXNXlkNTs614GqSgH9jbC3rnu/7G2FvXA9X1O9X2bvl6mqqVb/YrHQFaKyR0y/4qRfbZpp/fuLxXhWGxfKS+CDkgh5c7XaKUmml90rqK+luMPNBu09JarqrpyYyOWZb8yOuvoI5cX1kJM2lGL4mT9izzehoVXuo+mExg1vDG+g4fDYcFe2sVAxdQMGYDuy8FvnqIwC37MnKRo6QX2I3OyM9NZjfAw9YmoKasSCSOBN2RTsMNfB1LX2LwYu1C/xGh2I9jxRHIgAADt1tZgrpGPriDryamam6BvZXePDbMhca/7ysQCc3UxnSris1dwdY+hc4jTj/QXpQzb6BVU+WO11UrRDYkYonmTODlhE/FkByvFquh2phR3qTkUkC7640PhjZp1VRHbJ0oxsYCOvNRB308Ck6NfuIys1wB+5TOSSu9BbwUgMDuz2MKKe0+jIZLGmfmtFOarYA2njxzXbkeKtMFoUe4nurFrJzYCW1zdakWkT2rNU0b22a1km5OejdfFpTplFpWNUXClT88jan3WQ4dcrpbMVcWjTHrEkE6Ikzc3JX1OFq2MbZNfpBXUb0w1yfGkl7FDATYa9Tz/kH7cvoryznHidOATXfNAexGezrN7UryWNJ8UXHHOf+EBThgAAA0Fg/PLWZ6MhGPcFN5KRKirCCWIBF4AtkTj66kRqj7mBY8JJqW1xYDSrjC+BTKOWWeYYVgx78RneAIppsUDHWSsJZbBsfXV0Zhrjg0xPrKi1p9SO4AtKKyxf3o2Y7Kx5EoQy349c2tFf8etECq//xyyVaP918BTiJBbTcAV4XhjnsHA1/wEKKK/A6hSAM9FwUlWNTjYmIXRf1RMHvwkDdzcmn8C/p2MUobrUOq7748fpNrCi8O6x6yPmFQPOzGN/wfWRI77P75VkjubI+3FccEnSGMZatu4mcvH3D+0DkG1INWRAz0dEu5YJBrbPwOsS8k2cI9O6wHo2FLRxVrq77nJyA+XGHKfiv7dsfrvo6EfRHoTMmgyrLYAFoAAAAHBMmLd5TEKgR/QmLq1q/DN7gFW0OzTgX6w8ay6j/R1vZZtagl5cWxYtVaA47y2e81sabLrwF41O8eM3dgpN6MwlsVMyuoLiz/nSX6AHXbmJE6UzTBaSptAbarofv11A35E7Fv+YfHbW7DxSN/V/Z8VQotIG61wf7sIjP7nubjwOIdNAWqb+YDQmSrFx9Kx7lY9EIl4Sw2VH8WdzxaIjng0qr2RggZtZZmbYuFP0qtXx+90BXHO8AWjVFiQCywRQctoeZfx4Fg0rIzz6jXw5XCaRk+t0xSlA+8yjKAIi0j1fSuGkHlT1Wpv2rtV1hPOTH0/9d9aRvD+qnGZ1D3Y3utRTwtzcR1seAAAQwq0lQsXzXId+WA+Gu+OpCE0wu4yvkJuGwPUVASPBlhUVWg0tbBABDyCE3eTQ9BnNkK/CY3wTeqZuCA/76ISJmH7h5EDP+FAotSxK8G9svSiSSb8RrTKoCjGb98iOs+0YS5OybbevnP9VH3I0MCyOzObjMw1wvGp72hpNY/v39teVfPa4jyyOxa6F8hLP7g9AMVTdmYGAciGf4d+a3pOV1xcbaTFzQJ2FYgwqWwxeQU4RS7z1Ny2DbiCGt4WjPitcVZFOgSuRAAvn2lSNQR/QCXd8OiX6hz/J4J9mP1gWxZMdRW4BpCsFcpibR5SPQEi3V1JtGZN/Fn/k6tg9wNFoAAAi4vAX+SwmU0JlIoHvEJs4bw01SA4DmQC7VUNf61TuxUb+NNeGytTLzUUSRDMXZQKpKa2Tpe6Geh4RkQL/QjjbAo0smmKSoU1zptVxMDfmzbf5WSZnm8YqF4S5ZGT7/zOho116fcSwxX9IRRcvsZ599aqd5Eojxqe0hmLBdGgK/rBG/eYCk4gljwrOhB2Al/svAgZN1yhvGYRYIVbFq8q1s5AQRlSiqrHGRa/HM/x0rkHAz15EOqZoBwP5EmR8yZO5nyn5CO/nPwcVXCogRb/kat7U5n3ADUPGjFBWpAru4LtgtsciKNbenXvy1Zi6phBzucO1FKor0LFcbKqDPuKp2jmdvqmHMk5ddiHzzd85mlfYHJK4kxNRiJ7Ysp4QAnbDkoqxAAAUocPjRt+ij6RGtqIaEnJcpWrPyAgVani8f73rlCxRoJoNa5mBZcy53JkQTpqq8XSSu9zIxaddxpwk/x+z7PLcrEJpMfoKaC6BD9F2w3Hq5DJEkvPnLIaTvckWCw8BByQgXk3Y1gf8tAPTZ7AuYF1WYSPqAZ7rRDkUVsszNMSLZSGGGTwK48qFioe+mE8bcxSgWQD5fPqyiK3f8cY5SvLrhIO7ETrqA9tm78TSp40PbClNHtx+IWyyh0KoQ89bScBnW4tC+3VrJDAkU8jrviY8ynlmhpGpzOfDCFtp9NB11QWNRR4ACssNOHa+YhseaplYnTAU1nRqfVe4ifw2zA2rONhGF4y01ajSGRvncqctXxLNr832jmdvqmHMk3hHtMfAK6eYQvRUdn9qV0QO345dBwfR/GEgAACuNf1wKrDZF2cY/4cNNTtqc6ckMxhila+c/ZEQIvMqfYVUOv9Tr3aT4fIEjRHkWhqvLC/oSVbIKwEqm4VyGno2vghZT2dNaLMjJCnPVI8lqphdlSZZxyLpLpYCliAhofSdtYFfkTC1nJ9681GhSICKS0dtG3furW8tWqAAAFGYZkQza/llx+IsX0h1fOekI9TZrpC5LYb1qUQI2NTl+rHIFt5si0yitavZDPkuelpqrVF/+ZgC9spkrZVory9/CFKHeUUCiz2j/sS5TekjmgYyCYcFhCNVns22jA7+zDsIc/q/mXjQraB5E0jRdw0AUlSwDEWqdIo/HQa+HG3xcs3p/2gHGx+cs9jujRZGXk2F3PUj1r+O/yXYmUjLQJNF+Jr40j4Iq/Gg25HMIRSksoBVOjyaEbMqCezitLkkSi3wGexDnInIq3VG95DuGh9Z/4+S8MPR5Kx0lKWoSQzc1p8O/GOcXeshFpJdg0stbjbD7n0c4UF8qC165zctNIAACmiXwi1czIvqIlvXafVaFYz6mcbZoIy0Ief3VIQQPrZWT6v4hREzMYOPJZ3g3TFaV5ckc2mo0EqWTybwaTmVW4i3dUI8QV0PmHTxEYB7QdhyD1Ov0AACcatblvXlJ96fRk0CFq4fMmZ0SU7mjA50wyVASf4aohSQR29QbSDiVA6aBPcgYLm+K70V3r+OT5nHKLAMACXmGSpvO34bps3O2nnQ7zVtJjNKMNmD2/UgYJsL8PtkxhM9ILZXZT9L7xfzh14CFYVugL+apetb9Rh4Q2DKoSh6/4wD3N1Qq7pjYUH7rQ79lO6mXv4ECBlzNwk3ycsrHchSItaZoY8EpWUdBvO75Lee/69HeZCPj7GHI0CYRrh6zRib5PRq1j7D/94k3wzDASIrqE18iGjqU1q4lbE0Se16dc92PukmU4LOU3H+Fu8wXGm+N70fHbdfu1ADzbZSW4i62euYJL0bw3AAAAAAAAAAAAAAAAAAAAAAAAAAAAePmxQ4aqbNcqYEqXdUKk5fsgLJzauKA4Ss3KK9d9TdiLutJTQf/0xH++my+swo6SOaqYa4vVP9R0fwNpWOtN7jLRQB0FTsjEEGCxSgxxGpGwhgCsAMNHYIc9Xwylu9etVYzDHKUPa5fktvjA7vn8IjfXdR+4PPAZ1/v0ayyeFem4u3jflncduCMT9NUOAAACPehl7wK0jpBwk7GiiLno69ie35yFB6ahhtPLq7JID5UegWy0dld+yxUn8TbiYTJcYsGfyuAMrNoKdsupI5nsDvgJF1vEsLjEGvWXNODzxieQUmW8Lg1TWU2hmzN3N6Rvg3hfJtDL7bOV9F4wm5e64A/H3XUf3Z5ze7k4UAPc6ItMlgcUqOu5DjLbggF0kWGWdjrklk35FEuX7y0rKBf65PnW266a/yZf4NXPyGBI9WPTo6erAGgV0Z58zUdKBVnsFXn2iKiC48vp3zql7LZvI21tfrbduYLIVFnq3aJTuTXiQvVyFUvlNoVZ4CW7jK6X0h7HUmap9RbDdhr0TloVgS8MoCxjDMBqOhp8rY2f0OcweonBiFbBUi5o2NeejbDwKDorXbAGMnbq/jfDvwgCzvLSv19RJuEUiiTTrRFWMnm8XYAWvWG37pqwGkC4yrCAwX0PBEtWJu/zufy+I/yLyrFAAjcZWa8bNi8vvzuzLhFGFtr4+Uv7scCsZ3Jp8wq88jAqFE+uqcalE1hLsjHN5vSv9jsM/xgXo/y/pYpPOL6ez4/uhkCvfYyO2YX8wU6GAWHzPTDN/Saf3mvOezWpwWGugsy9VQJ70J8lShsYkdzZcUBjULLsDS4q/BkRYO40TsYP4FiA7TVgDZEyzHNB1u6wedzjjcIPs7BRZDeuiPf4zU0EYEOjVljjveKYiLi+QOvYbhMKlNziUdzZJD3I606gerTgqo9EfRPKf8jGfK9KGTWm9GePD9Z6mPs5tEfVSNjKpmoceEruSVdtzf5j7ERtwVA+dGinp9fBCTE0hF4mHVePe+G99fSEf67SNS6BtWG7xt1+1soSfaWVzVH6ExjK6p8JyA57i22ZTIIUQEAb8YMNTHfi753z1TaojaT/tuBnwrOCA6lMgVhGitNd+Jszmr92/iYSllEScZpIf+FFDYUtGBhLFf5qruSPrb9N+UHYKLhkgqqAS3dPxCgnMuLqKCy18RKFl/Gdh5nIjV1yyzThpK/bvmUxqMZZBN/k98x+OAAAAAZE41MX5MqJApS2Z/XYgltp/L7+CVO1ZK60aZ8n5sn2VP4cD4sa1kUJ82RqtxLXcYVvrlam8FQtfho91WvFreNSoGRGAIkowpGv8TdGr4qgP+UzthHcELs+F2vmF7gFIuCP9aiNZTswuKicEjkJJYI+/jSbb4bfytif+LfzC2WiTLQXmJi+Kk+T8P2o2nTXAX442oZyvu6MQq4gj1HKMo46t3ufIic1YFHbQa9WUyqcdFp8/EiJCDEwqgMlns5080j/0dRgutWVEBufqYjduC+LY5ulhS+70eN6Ut993TKsWDxJauiz2rHmi6swBcrzQ/goS5s2TXnPQAl0aonouchKHjM3H/2Bfw5jeI23jygvfoDWhsqEMWr56UcCH81TP4PSern+qTHWTj8nuDf0qDo9ixsujpwrDftPnlsHFMqAb010arBdP62jIpsxULUPA5GZg7pgNtaK0eSAdq6M4J0yB2YDeyUMqPo1H73k+9qBMm66nPs9Zs0dzlTxkMfLUG2w0CJGHiKFWKmk8xwlRjI6+T9pXTC1a8xFzx6iYFb/p4OmqxGWtgyVXsqsG8BWxeXiHq4rzA/JVePCaVxHNsUoLwDytpLHUNwW6imIKhQLxCu0gr81GIDhWlPvxmJdLoIRbpSINSaeGiwreDb34SwqZLsULWar7Lg+98nvBL/Q+p+YMyjAgZfd4J4u3EICeAwSAlZ+ffkIaa3DpNNxu3OO1p+8BbYjyB0vqPNzkIwX2hjF7M8itTS4qMDAXqFheZHFPjPlaY0P/FoLMfG0cJw8kISCFSeJ3lr2MyPlSu0t6DmWLPf4mtz98yveeJhbFCvArmhItfoMckKBwDqUhrj+h5cogEqgl9asD2WzIKRb+FAcoV5pb+Q0iwAqbLdXrrAtXiIN2pDzwNShLThNHZ6510W3rAR/LkQbB63Prpsjck2bOPgTDlSwkfcRjjrYCunvB44TGwXaSvqVZ6bZ+UGF+R0NOEt5oMkv7vxlRuWll0DaMwlJKEtCbEV9KvUGeQ3PLeLlgfWH4E+P28V5qlyuEaFpxYWM/4jrbAag++xS1EQxP3doQNW1uPcQRniW2pOaaTsRkRfeainLOhzL2yveBf5LpTQEFKRAtB0nhtTgnfi3JaZK1/SAu3G3gBS+CEKTXVJlHZ6OWv/NMqc4ouCO2YhZbmKOcAEZLdKHPtIliKsm9JuCAfp5M7q/HOIMfzwwKWnNUOAAAeFQr/NcnL8rBG78QAJxZ3s3SupPHEme0Z/Z7m+0lKFUiVrQcTVf2Ww2tKAKOhPxnwJ5kuBVaRx9//wefGje9appcWvcAUqH5jOpKiL6R4FB8XaHuy35qqPEuJA0A74vjOBHZ/mb/in5jKuAEpQ/a1hMMAnNduxfkAqit8ZhzzHENHgbZwPjAei/1020GXrh/JeV8Q1SPGuqx7AWQg6CUjbWmblqHJg2d8sQ+La+348l+X46aja6qCOt3i0PMd1mr6ZVGY4qgbdCerSjqEAvcPmHLs2uPU88Yxpi5+mmgaimtWjKjE3j+KmqeqV+IHdL1xbBplc8d/zVxXi5ZwYzsNBBFRCUA2RquzBTNRGyk1yFUB+BdREA1ri8TDUkN6jn3MYrHSoIjKHElIAH+5qu9S9KtPDgUCmYWh0vHBhp3Va1YYZ0bgiIa3ojQ9tfsWM1urrumwamYyM9CLOcuXRXGaeTYCwgAbJofZkJpdV67L55K7e6hT/1qFu9pHxnxvvSyy33LtgRLjSPJxWJT8piFENwBdoUUyTNCXjM0ShcWyN/Q703lxozGYonmgZPyv9bbXfyTuBdolEcvM0YwWfDbN+wbTs7duWbZef3xDyNhwSF35tBJraS8uUwnIWxgwvMl3Q+7g3RMa2OmAHkqWRRg458eB/6QnP9IIENWlT3GXDgAAGgMpzxT/Mw4XukcKmI39v6doJxS4PIZAyie28rjKFmxuSXr5zhCytidHyB/W8Rc5dlIesmCfe1STw/rgxNGkOxonbUG6/KLwAKftwMptSdLyJGdMhvOP6cvAmFfTgNAPQOU99OHVXj1ZxuI0IQHShV+Mxei4gB70d6uKObmclQl1pZmgGyr7vdH5uV8LGsvhuL/4mlXa/xxlyuZE7ctxYAyAPT3likYuT9FzBXeyUGKrD4r79J65FH67dBVL9Z66dtk+FDT4442Af+keOie/uRQsidNVgMYztINogafKvONHn8EBrq8PC4PREf1nt1hGQmoBtOReCR9sA5ZMzEvPgYtlBS106oz8g5tEW6yDKM1Th1rU+rRBJDywNEFrv4ZeebeMiiHaq4ROHoQ+CyFKb1jkW6E8xgyle4AcQTvmB6lG/QJhcg5jwLfauUBIkaWdhvUzyE850MMSP4LXJhYpFQTrhVeuDJ1oDxJBkBQlxxEaj4nzGN+d4rU/FXE8ZmfYqu/CTkFz92P6ceT4bw1VY+UXvk0R/5Nj7wdz1bVWS8L5ffXa4Nl5jNsWXlD1Ruwq+cTW1PEb9Xe6a1p3ZraAhbaFb+iHy4iWjqT6s4a4RCx6d8uKtLPNt7amAwcdNYSfUpSUZ02Cq/j4lEBdLnZZxwsHb+nRSloT2EBiUShmqP5yJ5VN/nyc9FRLLHezjiDFuxbzXtHM50dY62EESeHzhS3AKtRaQm66VS4JUz36q5UXqfXfvKfXeWdXvDXBD7r6MAMQfKctcKksXJ2iAvQ3I0pmSl0e6knffMSKsLyC7A3Vs88ZzVf2RWBMcu1Y/mUANuGDfgCKjb7SR/xwCubQ8d7LEHDUrbTQb/d3vIim9hjyi0e0/GopRguP/2Tkwb6G5s+eNNWaEtmq3U6ewffR26N5zb+KbO0vYqSCp3iJDyZffhXcSxs5A4ddKMDc0BIaRFVkxk4b6+qM7I5ufqW6+7KMCwT1mATAYYPlV7XmIYg6n0eg5a/1bGj3py8hlef2sXA4prmzgAQo8N6hI9EQfvXuhuTFW4lxE+pjzMRGwNyRHmBe9jiIqMcTgAAG1srAtunXtd5I7xHPo+uCROfB7/rU07snjD9AfOvP3nFj6VOu0bUWezcMvaW6nVpsPAxo0K+jaA2s62qnrUQ8XzTUywzCKrJwMlfTYpIyj6QFNNiudA6E+NV//bV02dTJs8STfZPAqoD75VIstHK5I4rZyoOHmtyoobXMmL0vXWzEpEUoAOLa3pY5JnRBZhP3B8vnh05hO2c+GWGI2utBTja/zKKs1ncPraH88U95TER2gfF8TYE1QVFWg0BET3SHtMQLWly0o4frVRonIBAmfSIyl8oU74sL7B6DuIHSQeXkwwxqjtMdDBKnFDkznq5wv7bVpn/lzPbY85v7HJVEhhyCMN8B+rStGvydCFG7QfBtrxYbIWo0+P/v9RzTfFyqHMydj1uSo9i4Opwr9MmeNKwdSrFFTgY0YOAP7IWK2eWjgz4ERqkFBhspJPG6ssJD2UDuCY6f0IOsp3HUltq00KM6aWui7Tfx9i3Wd8KpeLNo8qep9SkupUU8m/ns3nfp8R52b7vfLD0EL/bwExFGUC++kvIHO59l8DXltE6TWgJH/RzM5JsHjpskQxutUmA+Y8gRiOs8v8b5N/95QBBa2voSZQgSzEmqKLP44r1qYiF+mEI2liI0dp9Yw5pKqaeN6DXS8PM/TvRXUWXOasFqffO1Rga0utS7vG76zxBOQBui3AJkbnspdlBWZsDrdO9+TE6HE25TaQjj3YAs2kG28Erymu1GutZOeW2H5X+t3hfJfvUEi+aAAAABhqT0RRyNtfK5SYa7DlazWVHwrNwfOHJnol4FBzsAI4BOHtf+hOyAAAAAAAAAAZ24+PCNX8vfpFilrUp653GY0/55ldt7GPch1TBdSVQc84c+dCZNYeYrHlNtFDerO9ABCNSaPaiLtmH3ptZxN4aN7ymMfEZ+p5oxiArv97z8PPqVXxT1EQizqqusvDbj39oVmSyeJq3eP8J7j1eBaA5O7ZcyZ/9U4SzqwUVkVRWZqkly0895TU5/hehB5Td7qCDRnKjKq8daHfdav+9Pm23Camn1etynVfo5DcNrbZDVfiJRi3xqoRQN8HbvRojflMRcr2M+ifKSyVuYBnmSZ+1+MUUIxu56Wxh+IXoAQbGUsxR9uQAIQUl6tnJ7fdko1EFUc6C5g70mK9pUbljXl0HKpRx+Xx6n0+GFqYamOOM1XST52DZSOfjPXngK4WbA2byZaAAAAAO26UspXI4bfqk3A9yfNY1f4bk25Gu4EBFOQfDaIxzDNsooXxEeBMiss/tIEtGJHszWXHd/EMYEv1B3d9qWexzVdszywgTwmwVoQncHCfgg1h8zKpk5OkZZX1wOdVZRHPNXC95UE/Tt3C+oXutG77SWyU3+Ux4+1tOvi39gSxlmkr56DedK24oSGTWnQxeyOu4iWsVGgZh0WYjdfNliiOxVs7YpNI/CH9syqX9P5caeWydD4bTD3j3pDLdyT6k01Cw/6JunybrH5GZCj0pT6K/P3KG4aI4iGfOzMmfAtaJ5spq/lm2oB9ROGblitXjMBSp0jM4VevMnyfqgyblg9WuVw7Gxdz1jYWeQCil+kvVLxof9WiBw8SZaew+z6CutnL6BBRwGRnOoCm93D6I0Fu7u/pPLR9LSqCfa8rynfxc4cshZZnAzd/udf0XbK7QDK92Eb3M8UNAwjQCjCBfOTdeGVgKOfAyFqEQiPTClAy1I73yvxXqTyK5kuGOlkwpsyUg0Nof6zY+MvfhUOQW4X+CeqWiBvNvbxWnYV8yCjPAUCXUs50A9PwuCFuZ/MbYctYn2kcbU3n2eY7ZECdJ8hH6zXJ7Td/8QOORTj6o3+i1zrLYB8Tg43TxIkxRalRxzuioSLiiEkRgPjYW2M0qjdI+KQFPLcP006RCATpu8gbC2fqnTw5mmDHaQJQK0E4KipGnOBgAAA+G9qGxPvL/Q/ng/7UJQN0pq1ldBU9b0sWm8MrjQ6p+xWolPOfiYP7c0+RUWqProScw+v6G0Zs7uX45DO3StH9ZCYOmICaR52JCIMBS/Un3inaWwTspMMMAjfoWGbtbKePFMTUG5CxUZ4R1nxKw4+AAj997b4TajwywkbQrjBoBfsG9V22DRgaNByY+MHEYcLoI5a0wD62BqwJrqrgo2nBG3ZRWZ2RzTymhQrDUfLQOptL5CEimJ6VqBCezIR3A/QJNhDpqv6qhi2Pc8HxvbIwXvxwUD0NnT4hcsZBvbHVS1TP8PiWUfojEcI9OKdRj/y3aJfz0Rj0wXyOph7mB0xfRwqD6EJUEMCEuL0YmaFMUVh0vAaLszHNM5A20sfhtSXJRoFrp6f6+a9cBJmEddqfZpuOghPqIXj9sNA8A4ZGxjTfVFD9QNVnl5l3anYqmRz3qqDMuLzyy/DJbjfr0Emk4+Q+QoKoz99li5NNnPC1gN11sYeSONDwgl8ZUi9MBOAnRWMa4UJv01v8zZnU1vMGzAioBNU7DzDxSQ3XHbUB4Nrdy3/A7qjrsrzdS464IzmtZTtloNagcgbL5iW926hB8GGVFuxPkiheUOQl6Szwsdb4n/L4+X8QqEvZb7wiL7UjGHbFp3tmqfqhoV2FRbFgb//U+QQAJ/e+eRv26jSviAreqcoumb226X7cxhgdYHFfwqNwLfqklqUp7ttsUMaFu4uVWXQw8E3D5pe7aNKnxnzUbbR5TmHG/zkP9R5SmajWLhXOLHo3eHBU+Cnhpxh4e+8WH08BN3Yvy3gWE+SU4lcGWHQYtyYtmQ80kxU/w4fzTn9MJKkW79SUddqiz6vmqNeOgO9v5RcpPhj/uf7RY4tHs46lnPSGFTWdhY62JdtFHsoQrZ05iA1KY9t8QicK+U0QKICsC2QQJByXpeuyOc5qhwAACXFUeFjcK9l2caBa0q/DL8AE9N7L0R3J/sr7zslFpwz8OCND6CYSmxoXTTVLjpX9pnaFhlij1OP2CR6BxlMmTAm3XYhaPcmSRihdT0GXBTi7mVZcWL/11mVKgorXOsybO1yuSRxVVz2gpYMF1rWoOwsgvohKWfdnGhaFUEwt0DjFxXa/TdmEYuK+Q0y6Uy/XDzHMMaaNlyPWzsFIc/w+eUK9ms+OmhpU0AmbHY1tIbUaGPOspBnUXLvCa88SD+rS2efqGtfEUzdd80H0jPeCUGChwWkboIuWNnqH2dxha3WlOUrW8TUV37VyPLuN0VOVgYShInDDHEa+OgDyvJ7L/VvtEJ4wxZj1QosM4eY6d6DoXNnP4LJVB17CIoR8fQ98C0lsWeD0u+T3P1/Iju9yFHgG+WtCxQv+Kbzz510H0RlWUFRlcL7YqSNelm4zicbnYx8SV68KAeGvKiRx3/t2aYg1Hlofb8Zxk7DMkkXWk13Rh03lN9TmXLtYCmNLqZkjcu7nAFKPpU/+4vHanJv4oW1/Yx02G9elFFWRJu8Z9oicw81PBhCHOvLmSkvEQH2bkWSKVZRjttRwmaWi4NP6Yw+xwFIwzD8ODL4Cpr6mZ16HYR3ZQLsvut0d031iLB1MzZ3R5vOHSifL7xW4t89WpqdGITonx6scS6MR0JJ3iXSABB9zaDtZQb11iFSKYtIDp6ygAAAD0C3axkmW++r13NbHDXXlFscgEBNJxU+hJGU6jicGc2+PLTZSNCd1SB6hZF/4RYGKU1OxTNEobKP4mg7T2zQ0I8hbibGmby1hcTQ68jGUfQKI2BIwiCBEXATzSzXky+6NLYMBv5hpVznLFLuyQlKI9A1JzKG2eVy+8TbKeu85q4DN8rs6NqddBQrK5qVsYTZint8xzz528iAXOzSXInLA+suAej+61x/cOnFxNMduCaHSZECipuguE7TclusyV9+hBz2b+5v2MkO36EFupsEsGrM/yFugcWsij69GnP5lsjVynsz1MkmL47NpwglWkWiN5mI/ocbsJuWkv+Oh+8uYXLN3mHdTYIE+Dm/ODobYaBU9Hbjt7zCNUN6R3MaZ2IDc0VENJgiljWqDMsG+E/iy9q91H1u7RaPr/QPCGheZrNMd1o20mk5d9cDFhXS60MpWsN0eGa06U8GP206eugyyTItRYqI+njMO8cZg3Kn/rjCct2qg8/zODSx+8cw3lyQujveQtLIbibGR+q9hoB+wSx1kTrUrJ3TkfoZj3noW3E0XUelnt4dv4uawTrSh1BmX2MOnutbID5GeObotBCzeIGJ/YVPK+ekoL+uIuMLXZzUmPf+4z5bQoPx2d+JGhvk5PNs5J6vQOSD81X9mCM6nLWD+AXRV2mHWwzVe9rZZY0EAAAACCOaaciF76JgGG5TiHpFRFmfNDyWvhLbMC2gbLYJ6hbhzDoSt04kQ53i/P5d/fbLIx00uqltdgMZQyP6V00IQrnLKMsrKkNan3nrpLHH8bW8SWHy2BE+e6huaAHrwYLgtZA3Kupf1VeXX9nt0cY9ot1Be5zrAM2w9UnB/7/KsZ1sD2j0HSEq0IDJ/qS7gH6ki8BjzBJTF2AunpWNcPVh5vDVOajpm/6cHM9UiwpsEcvdnhgvrks5sFEJ2XMEUfTIDu9eD6J4l0yrGsGbodBoDP679LCK4wkpk/URYrOMQ2djA5sbofbN7Zvw/RpagPfh/6gupjGRqfTmWsTf9fxqji1Xh14LhfHddBRyA4I7TUCIveWPOJegsXObHzJUASg51ba2PZ9jjNVafma6GvmuJmPlyg/RJLgCINOz4cR99eWScNmrBDv22f8GTOJH3CnU/GO2oENZgVDGaf7YV7ZsoWL8gLc3LGB8pWXdQOcg7FOWB8K6qBXWNe8hPKNBzHgCvJQvAcvESOVnxDjCrqvep9PgoTAaoBKbQjvLTgw3mUwzcHHflmc4mF5mWylgqQ7ZBl4lk2Y4cypjSTKHldZBJNCMQl26DPDRzR9HzR/nlsf+k5XYt6j7uQNyPXRZUQJu3xPjFGkWMIBwoN0oauyYXJrkAAAAAAAAAAAAAAAAAAAAAAAAAAAAAAAAAAAAAA=;" vertex="1" parent="gcJ8K4zWGFhd17STxBYR-36">
          <mxGeometry x="166" y="14" width="74.88" height="39" as="geometry" />
        </mxCell>
        <mxCell id="HHeeqylkCfdXPC-r-2XA-5" value="" style="group" parent="1" vertex="1" connectable="0">
          <mxGeometry y="-599" width="649" height="537" as="geometry" />
        </mxCell>
        <mxCell id="uFhvsVring2hGXd77Jwu-8" value="AWS Cloud" style="points=[[0,0],[0.25,0],[0.5,0],[0.75,0],[1,0],[1,0.25],[1,0.5],[1,0.75],[1,1],[0.75,1],[0.5,1],[0.25,1],[0,1],[0,0.75],[0,0.5],[0,0.25]];outlineConnect=0;gradientColor=none;html=1;whiteSpace=wrap;fontSize=12;fontStyle=0;container=0;pointerEvents=0;collapsible=0;recursiveResize=0;shape=mxgraph.aws4.group;grIcon=mxgraph.aws4.group_aws_cloud_alt;strokeColor=#232F3E;fillColor=none;verticalAlign=top;align=left;spacingLeft=30;fontColor=#232F3E;dashed=0;" parent="HHeeqylkCfdXPC-r-2XA-5" vertex="1">
          <mxGeometry y="165" width="649" height="372" as="geometry" />
        </mxCell>
        <mxCell id="uFhvsVring2hGXd77Jwu-20" value="" style="sketch=0;pointerEvents=1;shadow=0;dashed=0;html=1;strokeColor=none;fillColor=#505050;labelPosition=center;verticalLabelPosition=bottom;verticalAlign=top;outlineConnect=0;align=center;shape=mxgraph.office.concepts.globe_internet;" parent="HHeeqylkCfdXPC-r-2XA-5" vertex="1">
          <mxGeometry x="281" width="75" height="75" as="geometry" />
        </mxCell>
        <mxCell id="uFhvsVring2hGXd77Jwu-22" style="edgeStyle=orthogonalEdgeStyle;rounded=0;orthogonalLoop=1;jettySize=auto;html=1;entryX=0.5;entryY=0;entryDx=0;entryDy=0;entryPerimeter=0;" parent="HHeeqylkCfdXPC-r-2XA-5" source="uFhvsVring2hGXd77Jwu-20" target="uFhvsVring2hGXd77Jwu-19" edge="1">
          <mxGeometry relative="1" as="geometry" />
        </mxCell>
        <mxCell id="uFhvsVring2hGXd77Jwu-21" style="edgeStyle=orthogonalEdgeStyle;rounded=0;orthogonalLoop=1;jettySize=auto;html=1;exitX=0.5;exitY=0;exitDx=0;exitDy=0;exitPerimeter=0;" parent="HHeeqylkCfdXPC-r-2XA-5" source="uFhvsVring2hGXd77Jwu-19" target="uFhvsVring2hGXd77Jwu-20" edge="1">
          <mxGeometry relative="1" as="geometry" />
        </mxCell>
        <mxCell id="uFhvsVring2hGXd77Jwu-9" value="VPC - Dev Environment" style="points=[[0,0],[0.25,0],[0.5,0],[0.75,0],[1,0],[1,0.25],[1,0.5],[1,0.75],[1,1],[0.75,1],[0.5,1],[0.25,1],[0,1],[0,0.75],[0,0.5],[0,0.25]];outlineConnect=0;gradientColor=none;html=1;whiteSpace=wrap;fontSize=12;fontStyle=0;container=0;pointerEvents=0;collapsible=0;recursiveResize=0;shape=mxgraph.aws4.group;grIcon=mxgraph.aws4.group_vpc;strokeColor=#248814;fillColor=none;verticalAlign=top;align=left;spacingLeft=30;fontColor=#AAB7B8;dashed=0;" parent="HHeeqylkCfdXPC-r-2XA-5" vertex="1">
          <mxGeometry x="26" y="218" width="585" height="285" as="geometry" />
        </mxCell>
        <mxCell id="uFhvsVring2hGXd77Jwu-13" value="Availability zone" style="sketch=0;outlineConnect=0;gradientColor=none;html=1;whiteSpace=wrap;fontSize=12;fontStyle=0;shape=mxgraph.aws4.group;grIcon=mxgraph.aws4.group_availability_zone;strokeColor=#545B64;fillColor=none;verticalAlign=top;align=left;spacingLeft=30;fontColor=#545B64;dashed=1;container=0;" parent="HHeeqylkCfdXPC-r-2XA-5" vertex="1">
          <mxGeometry x="48" y="266" width="541" height="214" as="geometry" />
        </mxCell>
        <mxCell id="uFhvsVring2hGXd77Jwu-12" value="Public subnet" style="points=[[0,0],[0.25,0],[0.5,0],[0.75,0],[1,0],[1,0.25],[1,0.5],[1,0.75],[1,1],[0.75,1],[0.5,1],[0.25,1],[0,1],[0,0.75],[0,0.5],[0,0.25]];outlineConnect=0;gradientColor=none;html=1;whiteSpace=wrap;fontSize=12;fontStyle=0;container=0;pointerEvents=0;collapsible=0;recursiveResize=0;shape=mxgraph.aws4.group;grIcon=mxgraph.aws4.group_security_group;grStroke=0;strokeColor=#248814;fillColor=#E9F3E6;verticalAlign=top;align=left;spacingLeft=30;fontColor=#248814;dashed=0;" parent="HHeeqylkCfdXPC-r-2XA-5" vertex="1">
          <mxGeometry x="355" y="291.5" width="213" height="170" as="geometry" />
        </mxCell>
        <mxCell id="uFhvsVring2hGXd77Jwu-15" value="Private subnet" style="points=[[0,0],[0.25,0],[0.5,0],[0.75,0],[1,0],[1,0.25],[1,0.5],[1,0.75],[1,1],[0.75,1],[0.5,1],[0.25,1],[0,1],[0,0.75],[0,0.5],[0,0.25]];outlineConnect=0;gradientColor=none;html=1;whiteSpace=wrap;fontSize=12;fontStyle=0;container=0;pointerEvents=0;collapsible=0;recursiveResize=0;shape=mxgraph.aws4.group;grIcon=mxgraph.aws4.group_security_group;grStroke=0;strokeColor=#147EBA;fillColor=#E6F2F8;verticalAlign=top;align=left;spacingLeft=30;fontColor=#147EBA;dashed=0;" parent="HHeeqylkCfdXPC-r-2XA-5" vertex="1">
          <mxGeometry x="73" y="291" width="186" height="171" as="geometry" />
        </mxCell>
        <mxCell id="uFhvsVring2hGXd77Jwu-19" value="" style="outlineConnect=0;dashed=0;verticalLabelPosition=bottom;verticalAlign=top;align=center;html=1;shape=mxgraph.aws3.internet_gateway;fillColor=#F58534;gradientColor=none;container=0;" parent="HHeeqylkCfdXPC-r-2XA-5" vertex="1">
          <mxGeometry x="284" y="182" width="69" height="72" as="geometry" />
        </mxCell>
        <mxCell id="uFhvsVring2hGXd77Jwu-25" value="" style="outlineConnect=0;dashed=0;verticalLabelPosition=bottom;verticalAlign=top;align=center;html=1;shape=mxgraph.aws3.s3;fillColor=#E05243;gradientColor=none;container=0;" parent="HHeeqylkCfdXPC-r-2XA-5" vertex="1">
          <mxGeometry x="76" y="404" width="45.24" height="55" as="geometry" />
        </mxCell>
        <mxCell id="uFhvsVring2hGXd77Jwu-16" value="" style="outlineConnect=0;dashed=0;verticalLabelPosition=bottom;verticalAlign=top;align=center;html=1;shape=mxgraph.aws3.ec2;fillColor=#F58534;gradientColor=none;container=0;" parent="HHeeqylkCfdXPC-r-2XA-5" vertex="1">
          <mxGeometry x="126.52000000000001" y="325" width="78.96" height="96" as="geometry" />
        </mxCell>
        <mxCell id="uFhvsVring2hGXd77Jwu-31" style="edgeStyle=orthogonalEdgeStyle;rounded=0;orthogonalLoop=1;jettySize=auto;html=1;exitX=0;exitY=0.5;exitDx=0;exitDy=0;exitPerimeter=0;entryX=0.5;entryY=1;entryDx=0;entryDy=0;entryPerimeter=0;" parent="HHeeqylkCfdXPC-r-2XA-5" source="uFhvsVring2hGXd77Jwu-37" target="uFhvsVring2hGXd77Jwu-19" edge="1">
          <mxGeometry relative="1" as="geometry">
            <Array as="points">
              <mxPoint x="378" y="265" />
              <mxPoint x="318" y="265" />
            </Array>
          </mxGeometry>
        </mxCell>
        <mxCell id="uFhvsVring2hGXd77Jwu-24" value="" style="outlineConnect=0;dashed=0;verticalLabelPosition=bottom;verticalAlign=top;align=center;html=1;shape=mxgraph.aws3.route_table;fillColor=#F58536;gradientColor=none;container=0;" parent="HHeeqylkCfdXPC-r-2XA-5" vertex="1">
          <mxGeometry x="213.35000000000002" y="270" width="45.65" height="42" as="geometry" />
        </mxCell>
        <mxCell id="uFhvsVring2hGXd77Jwu-30" style="edgeStyle=orthogonalEdgeStyle;rounded=0;orthogonalLoop=1;jettySize=auto;html=1;exitX=1;exitY=0.5;exitDx=0;exitDy=0;exitPerimeter=0;entryX=0;entryY=0.5;entryDx=0;entryDy=0;entryPerimeter=0;" parent="HHeeqylkCfdXPC-r-2XA-5" source="uFhvsVring2hGXd77Jwu-24" target="uFhvsVring2hGXd77Jwu-26" edge="1">
          <mxGeometry relative="1" as="geometry" />
        </mxCell>
        <mxCell id="uFhvsVring2hGXd77Jwu-37" value="" style="outlineConnect=0;dashed=0;verticalLabelPosition=bottom;verticalAlign=top;align=center;html=1;shape=mxgraph.aws3.router;fillColor=#F58534;gradientColor=none;" parent="HHeeqylkCfdXPC-r-2XA-5" vertex="1">
          <mxGeometry x="382" y="246" width="37.38" height="39" as="geometry" />
        </mxCell>
        <mxCell id="uFhvsVring2hGXd77Jwu-39" value="Subnet:ACL" style="shape=mxgraph.ibm.box;prType=subnet;fontStyle=0;verticalAlign=top;align=left;spacingLeft=32;spacingTop=4;fillColor=#E6F0E2;rounded=0;whiteSpace=wrap;html=1;strokeColor=#00882B;strokeWidth=1;dashed=0;container=1;spacing=-4;collapsible=0;expand=0;recursiveResize=0;" parent="HHeeqylkCfdXPC-r-2XA-5" vertex="1">
          <mxGeometry x="380" y="317" width="175" height="139" as="geometry" />
        </mxCell>
        <mxCell id="uFhvsVring2hGXd77Jwu-17" value="" style="outlineConnect=0;dashed=0;verticalLabelPosition=bottom;verticalAlign=top;align=center;html=1;shape=mxgraph.aws3.ec2;fillColor=#F58534;gradientColor=none;container=0;" parent="uFhvsVring2hGXd77Jwu-39" vertex="1">
          <mxGeometry x="63.02999999999997" y="47.5" width="48.94" height="59.5" as="geometry" />
        </mxCell>
        <mxCell id="uFhvsVring2hGXd77Jwu-35" value="Security group" style="fillColor=none;strokeColor=#DD3522;verticalAlign=top;fontStyle=0;fontColor=#DD3522;whiteSpace=wrap;html=1;" parent="uFhvsVring2hGXd77Jwu-39" vertex="1">
          <mxGeometry x="43.5" y="21.5" width="88" height="96" as="geometry" />
        </mxCell>
        <mxCell id="uFhvsVring2hGXd77Jwu-23" value="" style="outlineConnect=0;dashed=0;verticalLabelPosition=bottom;verticalAlign=top;align=center;html=1;shape=mxgraph.aws3.route_table;fillColor=#F58536;gradientColor=none;container=0;" parent="HHeeqylkCfdXPC-r-2XA-5" vertex="1">
          <mxGeometry x="522.35" y="270" width="45.65" height="42" as="geometry" />
        </mxCell>
        <mxCell id="uFhvsVring2hGXd77Jwu-38" value="" style="edgeStyle=orthogonalEdgeStyle;rounded=0;orthogonalLoop=1;jettySize=auto;html=1;exitX=0;exitY=0.5;exitDx=0;exitDy=0;exitPerimeter=0;entryX=1;entryY=0.5;entryDx=0;entryDy=0;entryPerimeter=0;" parent="HHeeqylkCfdXPC-r-2XA-5" source="uFhvsVring2hGXd77Jwu-23" target="uFhvsVring2hGXd77Jwu-37" edge="1">
          <mxGeometry relative="1" as="geometry">
            <mxPoint x="522" y="291" as="sourcePoint" />
            <mxPoint x="319" y="254" as="targetPoint" />
            <Array as="points">
              <mxPoint x="493" y="291" />
              <mxPoint x="493" y="266" />
              <mxPoint x="441" y="266" />
            </Array>
          </mxGeometry>
        </mxCell>
        <mxCell id="uFhvsVring2hGXd77Jwu-26" value="" style="outlineConnect=0;dashed=0;verticalLabelPosition=bottom;verticalAlign=top;align=center;html=1;shape=mxgraph.aws3.vpc_nat_gateway;fillColor=#F58534;gradientColor=none;container=0;" parent="HHeeqylkCfdXPC-r-2XA-5" vertex="1">
          <mxGeometry x="338" y="356.25" width="38.81" height="40.5" as="geometry" />
        </mxCell>
        <mxCell id="gcJ8K4zWGFhd17STxBYR-3" value="" style="group" vertex="1" connectable="0" parent="1">
          <mxGeometry x="-850" y="-439" width="547" height="379" as="geometry" />
        </mxCell>
        <mxCell id="HHeeqylkCfdXPC-r-2XA-2" value="" style="group" parent="gcJ8K4zWGFhd17STxBYR-3" vertex="1" connectable="0">
          <mxGeometry width="547" height="379" as="geometry" />
        </mxCell>
        <mxCell id="uFhvsVring2hGXd77Jwu-41" value="" style="rounded=0;whiteSpace=wrap;html=1;" parent="HHeeqylkCfdXPC-r-2XA-2" vertex="1">
          <mxGeometry width="547" height="379" as="geometry" />
        </mxCell>
        <mxCell id="uFhvsVring2hGXd77Jwu-44" value="" style="group" parent="HHeeqylkCfdXPC-r-2XA-2" vertex="1" connectable="0">
          <mxGeometry x="8" y="7" width="78" height="35" as="geometry" />
        </mxCell>
        <mxCell id="uFhvsVring2hGXd77Jwu-42" value="" style="shape=image;html=1;verticalAlign=top;verticalLabelPosition=bottom;labelBackgroundColor=#ffffff;imageAspect=0;aspect=fixed;image=https://cdn4.iconfinder.com/data/icons/socialcones/508/Gitlab-128.png" parent="uFhvsVring2hGXd77Jwu-44" vertex="1">
          <mxGeometry width="35" height="35" as="geometry" />
        </mxCell>
        <mxCell id="uFhvsVring2hGXd77Jwu-43" value="GitLab" style="text;html=1;strokeColor=none;fillColor=none;align=center;verticalAlign=middle;whiteSpace=wrap;rounded=0;" parent="uFhvsVring2hGXd77Jwu-44" vertex="1">
          <mxGeometry x="35" y="6.75" width="43" height="21.5" as="geometry" />
        </mxCell>
        <mxCell id="uFhvsVring2hGXd77Jwu-53" value="" style="shape=image;verticalLabelPosition=bottom;labelBackgroundColor=default;verticalAlign=top;aspect=fixed;imageAspect=0;image=data:image/png,iVBORw0KGgoAAAANSUhEUgAAA5gAAAOYCAYAAACwyFy9AAAACXBIWXMAAAsTAAALEwEAmpwYAAAKT2lDQ1BQaG90b3Nob3AgSUNDIHByb2ZpbGUAAHjanVNnVFPpFj333vRCS4iAlEtvUhUIIFJCi4AUkSYqIQkQSoghodkVUcERRUUEG8igiAOOjoCMFVEsDIoK2AfkIaKOg6OIisr74Xuja9a89+bN/rXXPues852zzwfACAyWSDNRNYAMqUIeEeCDx8TG4eQuQIEKJHAAEAizZCFz/SMBAPh+PDwrIsAHvgABeNMLCADATZvAMByH/w/qQplcAYCEAcB0kThLCIAUAEB6jkKmAEBGAYCdmCZTAKAEAGDLY2LjAFAtAGAnf+bTAICd+Jl7AQBblCEVAaCRACATZYhEAGg7AKzPVopFAFgwABRmS8Q5ANgtADBJV2ZIALC3AMDOEAuyAAgMADBRiIUpAAR7AGDIIyN4AISZABRG8lc88SuuEOcqAAB4mbI8uSQ5RYFbCC1xB1dXLh4ozkkXKxQ2YQJhmkAuwnmZGTKBNA/g88wAAKCRFRHgg/P9eM4Ors7ONo62Dl8t6r8G/yJiYuP+5c+rcEAAAOF0ftH+LC+zGoA7BoBt/qIl7gRoXgugdfeLZrIPQLUAoOnaV/Nw+H48PEWhkLnZ2eXk5NhKxEJbYcpXff5nwl/AV/1s+X48/Pf14L7iJIEyXYFHBPjgwsz0TKUcz5IJhGLc5o9H/LcL//wd0yLESWK5WCoU41EScY5EmozzMqUiiUKSKcUl0v9k4t8s+wM+3zUAsGo+AXuRLahdYwP2SycQWHTA4vcAAPK7b8HUKAgDgGiD4c93/+8//UegJQCAZkmScQAAXkQkLlTKsz/HCAAARKCBKrBBG/TBGCzABhzBBdzBC/xgNoRCJMTCQhBCCmSAHHJgKayCQiiGzbAdKmAv1EAdNMBRaIaTcA4uwlW4Dj1wD/phCJ7BKLyBCQRByAgTYSHaiAFiilgjjggXmYX4IcFIBBKLJCDJiBRRIkuRNUgxUopUIFVIHfI9cgI5h1xGupE7yAAygvyGvEcxlIGyUT3UDLVDuag3GoRGogvQZHQxmo8WoJvQcrQaPYw2oefQq2gP2o8+Q8cwwOgYBzPEbDAuxsNCsTgsCZNjy7EirAyrxhqwVqwDu4n1Y8+xdwQSgUXACTYEd0IgYR5BSFhMWE7YSKggHCQ0EdoJNwkDhFHCJyKTqEu0JroR+cQYYjIxh1hILCPWEo8TLxB7iEPENyQSiUMyJ7mQAkmxpFTSEtJG0m5SI+ksqZs0SBojk8naZGuyBzmULCAryIXkneTD5DPkG+Qh8lsKnWJAcaT4U+IoUspqShnlEOU05QZlmDJBVaOaUt2ooVQRNY9aQq2htlKvUYeoEzR1mjnNgxZJS6WtopXTGmgXaPdpr+h0uhHdlR5Ol9BX0svpR+iX6AP0dwwNhhWDx4hnKBmbGAcYZxl3GK+YTKYZ04sZx1QwNzHrmOeZD5lvVVgqtip8FZHKCpVKlSaVGyovVKmqpqreqgtV81XLVI+pXlN9rkZVM1PjqQnUlqtVqp1Q61MbU2epO6iHqmeob1Q/pH5Z/YkGWcNMw09DpFGgsV/jvMYgC2MZs3gsIWsNq4Z1gTXEJrHN2Xx2KruY/R27iz2qqaE5QzNKM1ezUvOUZj8H45hx+Jx0TgnnKKeX836K3hTvKeIpG6Y0TLkxZVxrqpaXllirSKtRq0frvTau7aedpr1Fu1n7gQ5Bx0onXCdHZ4/OBZ3nU9lT3acKpxZNPTr1ri6qa6UbobtEd79up+6Ynr5egJ5Mb6feeb3n+hx9L/1U/W36p/VHDFgGswwkBtsMzhg8xTVxbzwdL8fb8VFDXcNAQ6VhlWGX4YSRudE8o9VGjUYPjGnGXOMk423GbcajJgYmISZLTepN7ppSTbmmKaY7TDtMx83MzaLN1pk1mz0x1zLnm+eb15vft2BaeFostqi2uGVJsuRaplnutrxuhVo5WaVYVVpds0atna0l1rutu6cRp7lOk06rntZnw7Dxtsm2qbcZsOXYBtuutm22fWFnYhdnt8Wuw+6TvZN9un2N/T0HDYfZDqsdWh1+c7RyFDpWOt6azpzuP33F9JbpL2dYzxDP2DPjthPLKcRpnVOb00dnF2e5c4PziIuJS4LLLpc+Lpsbxt3IveRKdPVxXeF60vWdm7Obwu2o26/uNu5p7ofcn8w0nymeWTNz0MPIQ+BR5dE/C5+VMGvfrH5PQ0+BZ7XnIy9jL5FXrdewt6V3qvdh7xc+9j5yn+M+4zw33jLeWV/MN8C3yLfLT8Nvnl+F30N/I/9k/3r/0QCngCUBZwOJgUGBWwL7+Hp8Ib+OPzrbZfay2e1BjKC5QRVBj4KtguXBrSFoyOyQrSH355jOkc5pDoVQfujW0Adh5mGLw34MJ4WHhVeGP45wiFga0TGXNXfR3ENz30T6RJZE3ptnMU85ry1KNSo+qi5qPNo3ujS6P8YuZlnM1VidWElsSxw5LiquNm5svt/87fOH4p3iC+N7F5gvyF1weaHOwvSFpxapLhIsOpZATIhOOJTwQRAqqBaMJfITdyWOCnnCHcJnIi/RNtGI2ENcKh5O8kgqTXqS7JG8NXkkxTOlLOW5hCepkLxMDUzdmzqeFpp2IG0yPTq9MYOSkZBxQqohTZO2Z+pn5mZ2y6xlhbL+xW6Lty8elQfJa7OQrAVZLQq2QqboVFoo1yoHsmdlV2a/zYnKOZarnivN7cyzytuQN5zvn//tEsIS4ZK2pYZLVy0dWOa9rGo5sjxxedsK4xUFK4ZWBqw8uIq2Km3VT6vtV5eufr0mek1rgV7ByoLBtQFr6wtVCuWFfevc1+1dT1gvWd+1YfqGnRs+FYmKrhTbF5cVf9go3HjlG4dvyr+Z3JS0qavEuWTPZtJm6ebeLZ5bDpaql+aXDm4N2dq0Dd9WtO319kXbL5fNKNu7g7ZDuaO/PLi8ZafJzs07P1SkVPRU+lQ27tLdtWHX+G7R7ht7vPY07NXbW7z3/T7JvttVAVVN1WbVZftJ+7P3P66Jqun4lvttXa1ObXHtxwPSA/0HIw6217nU1R3SPVRSj9Yr60cOxx++/p3vdy0NNg1VjZzG4iNwRHnk6fcJ3/ceDTradox7rOEH0x92HWcdL2pCmvKaRptTmvtbYlu6T8w+0dbq3nr8R9sfD5w0PFl5SvNUyWna6YLTk2fyz4ydlZ19fi753GDborZ752PO32oPb++6EHTh0kX/i+c7vDvOXPK4dPKy2+UTV7hXmq86X23qdOo8/pPTT8e7nLuarrlca7nuer21e2b36RueN87d9L158Rb/1tWeOT3dvfN6b/fF9/XfFt1+cif9zsu72Xcn7q28T7xf9EDtQdlD3YfVP1v+3Njv3H9qwHeg89HcR/cGhYPP/pH1jw9DBY+Zj8uGDYbrnjg+OTniP3L96fynQ89kzyaeF/6i/suuFxYvfvjV69fO0ZjRoZfyl5O/bXyl/erA6xmv28bCxh6+yXgzMV70VvvtwXfcdx3vo98PT+R8IH8o/2j5sfVT0Kf7kxmTk/8EA5jz/GMzLdsAAAAgY0hSTQAAeiUAAICDAAD5/wAAgOkAAHUwAADqYAAAOpgAABdvkl/FRgAAY35JREFUeNrs3Xe4LWV9/+/XkQ4KIlLsvcXYC4qKBWts0Ygldo1GTVFjTOyJ3RhrYo0tURNb7D2KBRTsxq+xa+yKIqBIb+f3xzP8JArn7H3W3mu3+76udR3gLPbMfGbW2vOep23avHlzAAAAMKvzKAEAAAACJgAAAAImAAAAAiYAAAAImAAAAAiYAAAACJgAAAAImAAAACBgAgAAIGACAAAgYAIAACBgAgAAgIAJAACAgAkAAICACQAAAAImAAAAAiYAAAACJgAAAAImAAAACJgAAAAImAAAAAiYAAAACJgAAAAgYAIAACBgAgAAIGACAAAgYAIAAICACQAAgIAJAADA2re9EsDiPOGgQ25fPa56VHW4ijAPTzvkIEUAAFY9LZiweGdU16s+Wr2suriSAACAgAmz2LH60+rT1SOrXZUEAAABE5jFftXzGt1lD1YOAAAETGBWV6veXL2rupZyAAAgYAKzun11WKNVc1/lAABAwARmsUtjXOanq4dUOykJAAACJjCLS1QvrQ6tbqMcAAAImMCsrlu9r3pT9fvKAQCAgAnM6q6N2WafXF1QOQAAEDCBWZyvelL1yep+PocAAAiYwKwuX72mOqS6mXIAACBgArO6yRQyX1NdVjkAABAwgVndrzqielyjGy0AAAiYwDa7YPX0xkRABysHAAACJjCr36/eXH2guoFyAAAgYAKzulX1seol1SWUAwAAAROYxfbVQxvLmjyq2lVJAAAQMIFZXKR6TnVodXvlAABAwARmda3qXdU7q6srBwAAAiYwqzs0us0+t7qQcgAAIGACs9i1+qvqU9WDGuM1AQBAwAS22cWrf2nMOHtL5QAAQMAEZnWD6oPVG6orKwcAAAImMKu7N8ZnPrXaSzkAABAwgVnsUT1hCpr3rjYpCQAAAiYwiytUr60+XN1QOQAAEDCBWd2s+mj1qupyygEAgIAJzGL76gGNZU0eW51PSQAAEDCBWVygekb1iepg5QAAQMAEZnXV6s3Ve6prKwcAAAImMKvbNlozX1RdVDkAABAwgVnsVP1ZY3zmI6qdlQQAAAETmMVFqudXhzVaNgEAQMAEZnLtxtjMN1VXUQ4AAARMYFZ3rY6onlPtqxwAAAiYwCx2qx7VGJ/5p9UOSgIAgIAJzOKS1cuqD1c3Uw4AAARMYFYHVh+qXltdXjkAABAwgVm/P+5dfaZ6crWXkgAAuEEEmMUe1ZMa4zPvXW1SEgAAARNgFpdtdJn9YHWAcgAACJgAs7pF9fHq5Y1JgQAAEDABttn21YOrz1aPrXZXEgAAARNgFhesnlEdWt1FOQAABEyAWV2tekv1zuraygEAIGACzOoOjfGZz68urBwAAAImwCx2rR5RfW76cyclAQAQMAFmcaFGS+ah1W2VAwBAwASY1XWr91T/UV1JOQAABEyAWd2jOqJ6erW3cgAACJgAs9ijelxj/cwHVDsoCQCAgAkwi0tUr6oOqW6mHAAAAibArG5UfbB6dXUZ5QAAEDABZrF9df/q09UTq92VBABAwASYxV7VU6agec9qk5IAAAiYALO4YvX66v3V9ZQDAEDABJjVraqPVi+uLqYcAAACJsAsdq4eVn2memS1q5IAAAiYALPYr3pe9cnqj5QDAEDABJjV1av/rN5WXUs5AAAETIBZ3ak6tHputY9yAAAImACz2LX6q8ayJg+tdlQSAAABE2AWl6xeUh3WmHkWAAABE2Am160+UL2hurJyAAAImACzuntjttmnVOdXDgAAARNgFntUT2yMz7xftZ2SAAAImACzuHz1muqQ6qbKAQAgYALM6sbVh6pXVZdSDgAAARNgFttVD6g+Vf1ttZuSAAAImACz2Kd61hQ076IcAAACJsCsfr96S/W+6gDlAAAQMAFmdZvqo9U/VxdXDgAAARNgFjtWf14dXj282kVJAAAETIBZXKR6QfXx6o7KAQAgYALM6jrVO6bX1ZUDAEDABJjVHatPVM+u9lUOAEDABGAWu1WPbixr8ie+VwEAAROAWV2yekX1sepWygEACJgAzOpG1QeqN1RXUg4AQMAEYFZ3rz5ZPbk6v3IAAAImALPYs3rSFDTvpRwAgIAJwKx+r3pddUijCy0AgIAJwExuVn20elV1GeUAAARMAGaxXfWAxrImj6nOpyQAgIAJwCwuWD2zOqy6i3IAAAImALO6WvWW6n3V/soBAAiYAMzqNtWh1YuqiyoHACBgAjCLHas/a4zP/ItqFyUBAARMAGZxkeqfGi2at6k2KQkAIGACMItrN8Zm3l4pAAABE4ClcH4lAAAETACWwhlKAAAImAAAAAiYAAAAIGACAAAgYAIAACBgAgAAIGACAACAgAkAAMAqsL0SAKx/TzjokEtU31cJgHN1iacdcpDvSZiRFkyAjeEp1XurKysFwP9xyepV1cuVAgRMABZm++oPqk9V/1DtpyTABrdr9bfVp6sHTP8OCJgALMAZ05/nrf6m+kz1p9UOSgNsQH9YfbJ6VrXP9N9OVxYQMAHYNherXlYdUt1cOYAN4irVW6u3V1dXDhAwAVhaN6r+q3pNdTnlANapC1fPq46o7qwcIGACsHw2VfdrjEN6SrWnkgDrxE7VwxrDAh5Z7aYkIGACMB97Vk9sPOG/zxQ8AdaqW1cfr15cXUQ5QMAEYGVcofq36kPVDZQDWGOuVL2+en+1v3KAgAnA6nBQ9ZHGZECXUA5gldur0c3/iOqeygECJgCrz46N5Uw+Wz2uOp+SAKvM9o11LD/b6Oa/h5KAgAnA6rZ39fTGunEHKwewStywMRP2q6pLKQcImACsLVep3ly9o7qmcgAr5FLVv1QfrW6qHCBgArC23bE6tLGu3H7KAczJ+arHNLrDPqjRPRYQMAFYB3ZrrCv32eovqp2VBFhGd60+VT2zMaEPIGACsA5dtPqn6hPVbZUDWGL7V++u3lT9nnKAgAnAxnCt6j3TTeCVlQOY0YUaD68+Wt1OOUDABGBjumt1eGPWWd3YgMXatXpEv+l+v4uSgIAJwMa2e2PdzM80JuLYQUmABbhDo7v986uLKAcImABwdpduLCXw4eog5QDOxVWrt1bvrK6hHCBgAsCWHFh9sHpNdXnlACZ7NWaF/WR1Z+UAARMAFmq76n7TjeTjG91ogY1ph+pPG+MsH1OdV0lAwASAbXHB6mnVp6t7KwdsOLdszAz7supSygECJgAshStWr210nb2BcsC6d7nq9dX7feZBwASA5XJWa8aLqosqB6w7e1RPrD5V3dP9JwiYALDcdqj+rNFt9q8a6+ABa/8+817T5/op1QWUBARMAJinC1fPrY6o7qQcsGbdqLE80euqKygHCJgAsJKuWr2tsSbetZUD1oxLNibv+XB1U+UAARMAVpM7NMZnPqfaVzlg1dqlenRjnOWfVjsqCQiYALAanbd6VPWZ6qGN8ZrA6nFwdXj17DwIAgFTCQBYIy5evaQ6rLqNcsCKu071nurN1dWVAxAwAViL9q/eV/1H9XvKAXO3X/X86uPVbZUDEDABWA/uUX2ienKWP4B52LF6SGOc5SMa4y4BBEwA1o09qydNN7z39nsNls3tq0Orl1aXUA5AwARgPbtc9drqkOpmygFL5iqNMZbvanRPBxAwAdgwblL9V/WqKXQC22av6lnVJxuzxAIImABsSNtVD2gsm/C31W5KAov6/Nz/bJ+f8ykJIGACQF2w0QJzeHVX5YCtuln10erV1eWVAxAwAeB3XbV6U/WBjCGDc3L56nXVh6sbKQcgYALA1t2qsW7fi6uLKwe0e/WERiv/vapNSgIImACwcDtVD6uOqB5e7awkbFB3n4LlUxsT+gAImACwjS5cvaCxrt/tlYMN5IaN7uJvqK6sHICACQBL5zqN9f3eVl1DOVjHLlX9S2MSn1spByBgAsDyuVN1WPWP1T7KwTpy3upRjfUsH1RtrySAgAkAy2+36q+rT7kRZ524Y/Wx6jnVhZQDEDABYP7O6kr4seog5WANuk71zuod1bWUAxAwAWDl3aD6UPUf1e8rB2vAhavnNSavuoNyAAImAKwum6p7NMavPSXLObA67VD9WaN79yOz/A4gYALAqrZ79cQpaN5LOVhFbtmYGfZF1cWUAxAwAWDtuEL1uuq/qgOVgxV05erN1Qcb3bkBBEwAWKNuUX2kek11aeVgjvapntFoTT9YOQABEwDWh+2q+1Wfrh7b6EYLy2XTdL0dNl1veygJIGACwPpzwUaL0ieqOysHy+DG1YcbLeaXVw5AwASA9e8q1Vsb6w9eVzlYAperXt3ojn0z5QAETADYeO7Q6Mb44uqiysE22KMxa/Gnqvu7XwMETADY2HasHlYdUT086xKycAc3HlA8pbqAcgACJgBwlotWL2isU3hb5WALrl29r7H0yFWUAxAwAYBzc73qPdVbqt9XDs7mktWLGpNE3UY5AAETAFiouzTG1T272lc5NrRdG92nj6j+rNpJSQABEwBYrN2qRzfWz3xQtYOSbDh3qA5tdJ/eTzkAARMAmNUlqn9prG9oCYqN4aqNMZbvrK6lHICACQAstQOrD1Wvq66gHOvSvtVzGt1hD1YOQMAEAJb79/G9Gt1mn1ztqSTrwo7VQxrjbh/VGHcJIGACAHOxR/Wk6vDqnn5Pr2k3byxP89LGTLEAAiYAsCKuWL2++mB1feVYU65QvXY6dwcoByBgAgCrxc2rjzVawS6lHKvaXtVTGt2c7+0eCxAwAYDV6KxxfJ+pHlOdV0lW3b3U/RsT+Dyx0c0ZQMAEAFa1C1bPrA6r7qIcq8INqv+qXl1dTjkABEwAWGuuXr2lelt1TeVYEWetYfqx6iDlABAwAWCtu1OjNfP51YWUYy52b3RT/mz1oGp7JQEQMAFgvdi1esQUeP6y2kVJls1dG8vHPLPaWzkABEwAWK8uUr2w0WXztsqxpK5dvbt6U3Vl5QAQMAFgo7hu9Z7qDdWVlGPm0P6C6tDqdsoBIGACwEZ19+pT1TMa6zOycDv1m27HD0+3YwABEwBo9+qxU1B6YLWDkmzVbTNxEoCACQCcq0tVr2ys13hj5ThHv9dY+uU91XWUA0DABAC27CbVh6vXTKGTMRvs0xqzw95FOQAETABg4bav7ld9unpctccGrsOfNroPP34D1wFAwAQAZrZ39fQpaN5zgx37zatDqpdVl3ApAAiYsNK2UwJgnbhC9frqfdX11vmxXq56dfWB6kCnHkDAhNXiV9UZygCsI7epPl79U3XhdXZsu1dPqo6o7p+HhAACJqwyh1W3mG7GANaLHau/aIxLfGS12xo/nk3VvRrdgJ+c9UABBExYpTZXH22M43lw9T0lAdaRC1fPazxMu9MaPYYbVB+qXldd0SkFEDBhLTi9ekW1f/XM6nglAdaRa1Rvm17XXCP7fPHqJY1JfA5yCgEETFiLft6Y7v961RuVA1hn7tQYEvAP1T6rdB93qx7d6A770Gonpw1AwIS17ivVPRqTZXxKOYB15LzV31Sfqf682mEV7dsfNSbweXa1n1MFIGDCevOB6qbVw6sfKQewjlyi+ufG+Mxbr/C+XKt6R/Wf1VWcGgABE9azkxvT/V+vemF1kpIA68j+1fur/2ispTlP+1bPb3TbvaNTASBgwkby4+oR1Q2rtysHsM7co9E99SnV+Zd5WztVD2uMs3xEa38ZFQABE9hmX6juXB1cfUk5gHVkz+qJU/C7X7XdMmzjdtUnqhc3uukCIGACjbFCN6z+tjpKOYB15PLVaxpLhNx4ie4xfr96Q/Xu6tpKDCBgAr/r+MZsh9dvrKN5mpIA68iNq3dWl57x5+xYvb66u5ICCJjA1n2nevB0M/YB5QDWkR2qnWf8Gdstwc8AQMCEDeeIxtqZ96q+rhzAOnBmtXmJfg4AAiawDf69ukFjNsZfKQcAAAImMItjqr9rjM98nXIAACBgArP6WnWf6ubVYcoBAICACczqkOpm1Z80JgUCAAABE9hmp1evaozPfG51opIAACBgArP4WfXX1QHV25UDAAABE5jVl6o7V7etPqMcAAAImMCs3lcdWP1V9SPlAABAwARmcUr1/Mb4zBdN/w4AAAImsM1+UP1FdZNGyyYAAAiYwEw+1RibeXD1ZeUAAEDABGb1n41us4+tjlIOAAAETGAWv66eVV2/ek21WUkAABAwgVl8p3pAdbPqEOUAAEDABGb1seoW1X2qrysHAAACJjCLzdXrqhtWT66OUxIAAARMYBZHV39fHVC9UTkAABAwgVl9pbpHdevGEicAACBgAjP5YHVg9eDqu8oBAICACczitOoV1fWq51YnKgkAAAImMIufV39d3ah6p3IAACBgArP6QvWH1V2mfwYAAAETmMlbG8uaPLL6qXIAACBgArM4qXpBY3zmS6tTlQQAAAETmMUPqodVN6n+SzkAABAwgVkd0Vg7857V/ygHAAACJjCLzdV/VNevnlD9QkkAAARMgFkcXz19Cpqvqc5UEgAAARNgFt+uHlDdqjpUOQAABEyAWX24Oqh6YPUd5QAAEDABZnF69erqutVTq18pCQCAgAkwi2OqJ1U3qN6sHAAAAibArL5S3a26XfVZ5QAAEDABZvXe6kbVX1Y/UA4AAAETYBanVP9cXad6TnWCkgAACJgAs/h59ejqxtW7lAMAQMAEmNXnqztWd6n+RzkAAARMgFm9tbpeo1XzSOUAABAwAWZxQmNc5nWqf6lOVRIAAAETYBY/qv60ukn1X8oBACBgAszqiOpW1X2rbyoHAICACTCr11b7V0+qjlUOAAABE2AWv6yeWl2/+rfqDCUBABAwAWbxjep+1W2qTyoHAICACTCrD1U3rR5S/UA5AAAETIBZnFa9vLp29Y/V8UoCACBgAsziqOpvGuMz36wcAAACJsCs/qe6W3WH6vPKAQAgYALM6t3VgdUjqp8rBwCAgAkwixOrFzbGZ/5zdZKSAAAImACz+GH1l40WzfcpBwCAgAkwq89Vt63u2hirCQCAgAkwk7dUB1RPqI5RDgAAARNgFr+unl5dt3pFdYaSAAAImACz+E714Opm1YeVAwBAwASY1aHVrar7Vt9WDgAAARNgFmdWr62uXz2jOk5JAAAETIBZ/KJ6fHW96t+rzUoCACBgAszia9W9Gl1nP6EcAAACJsCsPlQdVP1Z9QPlAAAQMAFmcWr1kmr/6rnVyUoCACBgAsziyOqvqxtUb1MOAAABE2BWX6j+qLp99XnlAAAQMAFm9Z7qJtWjGq2bAAACJgDb7PjqedUB1cur05QEABAwAZjFd6uHVAdW71UOAEDABGBWn6puV92j+opyAAACJgCzemNjttnHV8coBwAgYAIwi19Vz2iMz3xtdaaSAAACJgCz+EZ13+pm1ceUAwAQMAGY1cerg6oHVt9UDgBAwARgFmdWr65uWD2rOk5JAAABE4BZHFU9tjER0JuUAwAQMAGY1f9Ud6/+oDpCOQAAAROAWb2/OrB6WPVD5QAABEwAZnF69dLq+tULqpOm/75JaQAAAROAbfHj6pHVjasPKgcAsFZsrwQAq9Znq9tU51MKAEDAhHXoaYccpAjM0+YsZQIArBG6yAIAACBgAgAAIGACAAAgYAIAAICACQAAgIAJAACAgAkAAICACcC6sKMSAGzRDkoAAiYAC/NNJQDYou8pAQiYACzMU6u7Vl9SCoDfCZYPqx6qFCBgArAwp1VvqQ6oHl0dqSTABndC9cLq+tVLq+OVBARMABbnxOo50w3Vy6bgCbDRvLu6cfWIPHADAROAmX2v0R3soOojygFsEP9dHVzdofq8coCACcDSOqy6eXWfTAQErF9HVo9sDBP4T+UAAROA5bO5el21f/V31dFKAqwTpzaGA+xfvaA6SUlAwARgPn5ZPaUxPvP11ZlKAqxhH65u0hgO8APlAAETgJXxrere1a2rw5UDWGO+1uj2f6vqCOUAAROA1eFDjaf/D6n+VzmAVe7o6knV9Rrd/vXCAAETgFXmtOrl1XWrZ2adOGD1ObP618YEPk+tjlMSEDABWN2Orh5X3aB6q3IAq8Rhje78989M2CBgArDm/L/qLtXtqy8qB7BCvlf9SXWzRnd+QMAEYA17T3XD6q+qHysHMCfHNbrrX6d6VXW6koCACcD6cGL1/Ora05/WlwOW05sbyyg9rvqFcoCACcD6dGSjJfMm1buVA1hin210y79b9VXlAAETgI3hM9UdqrtXX1EOYEY/rh5ZHdjolg8ImABsQG9qLBfw2MbsswCLcXL1wsbySC+Y/h0QMAHYwI6rntWYiOOVmYgDWJj3NlosH1H9RDlAwASAs/tu9aDGUgIfUQ7gXHylsQTS7RpjLgEBE4BV7O7VNVdw+4dVt6oeUH3H6QAmR1WPb3Srf6tygIAJwNpwcHVo9XfVniu0D6dXr6n2r55S/cppgQ3r9OpfGt3on9HoVg8ImACsESdUu1V/35jt9X4r+Dvg6Cno7l/9u1MDG86Hq4OqP62+rxwgYAKwtl220ZL4X43JNFbKN6p7VbepjnBaYN37VnWfRnf5Q5UDBEwA1peDGi0Jr6wusYL78YHqptVDqx85LbDuHFc9tbp+9brqTCUBAROA9WmH6oHVp6u/qc63QvtxSvWyxrp3z2t06QXWts1ToNy/elLWxQUBE4ANY9/qH6pPNSYEWik/rR7VaOkwoySsXZ+obtnoEvt15QABE4CN6feqN1fva8zuuFK+3FgT787V550WWDN+WD2s33TBBwRMAOg21cer51cXWsH9eHt140ar5s+cFli1Tqz+sfFg6qXVqUoCAiYAnN0u1SOqz1YPr3Zeof04oTEuc//qJdVpTg2sKm+tDmiM4/YgCARMANiii1QvqA6r7riC+/H96s8aLZrvd1pgxX2uul2jO/uXlAMQMAFYjGtX76jeVl11BffjiOoPqntUX3FaYO6OrB5Z3aR6r3IAAiYAs7hTozXzmdXeK7gfb6xuVP1d9UunBZbdKY1u6vs3ejVYTggQMAFYErtXj2m0Jj6osZ7mSji2ekpj/cxXZwF3WC7vrm7Q6Kb+A+UABEwAlsNlqn+pPlbdagX341vVA6ubVR91WmDJfKW6e3WHLBkECJgAzMkBjYl3XltdYQX34+PVLar7Vd92WmCbHVM9bvpsv0k5AAETgHnbVN270W327xrdaFfCGdW/NbrzPSPjxGAxTq9eU12vMc76OCUBBEwAVtKe1d9PQfNeK/i75ufV49MCAwv1oeqm1QMa3c4BBEwAVo3fq15Xfbg6cAX34/81xpDdujrcaYHf8Y0pVN66+oRyAAImAKvZTRstIy+vLrWC+/HBxiRAf1n9yGmBfl09vdGd/DWZhRkQMAFYI3asHtxoHXlUtcsK7ccp1T/3m3X8TnVq2KD+vbp+9YTqaOUABEwA1qILV89pjM+8ywrux0+qR1Y3rN7ltLCBHF7dsjE++ivKAQiYAKwHV6ve0li8/ToruB+fre5Y/VH1RaeFdez71UOqmzS6rAMImACsO7erDq3+qdG6uVLe1piI6G+rI50W1pGTquc3ZlN+eXWakgACJgDr2c7VXzS67j2sMV5zJRxfPbsx4cmrGutpwlr2tupG1V81uoUDCJgAbBiXqF7caNG8zQrux/9Wf1LduHq/08Ia9Pl+0/X788oBCJgAbGT7V++r3tQYq7lSPln9QXXP6qtOC2vAkY3Jqw7M5FWAgAkA/8ddG62ZT6v2XsH9+I/G+LUnVsc4LaxCp1UvaSw78oLqRCUBBEwA+F27V49vjM98QLVphfbjV1PQvUH1OqeFVeSDjRbLP6u+pxyAgAkAW3fZxsQ7h1Q3W8H9+Hp1n+rmjdZVWClfru5W3br6lHIAAiYALN5Nqw9Xr60ut4L7cVbQfUD1baeFOfpF9aTqhtWblQMQMAFgNpuqeze6zT6h2mOF9uOM6jWN8Zn/0FjmBJbL5rNdb0+tjlMSQMAEgKVzwelG+5ONroIr5ajqMWlRYvl8rDqo0WL+LeUABEwAWD5Xrt7YWLPyBiu4H1+agu7tq087LSyBb1X3a3TH/qhyAAImAMzPrRstPS+tLrmC+/Ge6kbVn1c/clrYBr+snt5YduTfGt1jAdaE7ZUAgHX2e+0h1R9Wz69e1MqsCXha9eLqHdXfVn9S7eL0sABvrp78tEMO+qpSAGuRFkwA1qP9GhPvHFbdYQX348fVX1Y3rt7ntLAFR1S3bXSzFi4BARMAVqFrVu9stCReYwX347NTeLhL9UWnhbP5QaPV/cA8hAAETABYE+7YWNbkedVFVnA/3tqYiOhvqyOdlg3txOq51fWql1enKwkgYALA2rFz9chGV8SHVDut0H6cVD27sZ7hKxrjNdlY3l3dtPrr6qfKAQiYALB2Xawx0+xHqluu4H58t3pwdYssQbFRfKn6o8a44M8oByBgAsD6cUD1wer1jbU0V8rHq4Oqe1ffcFrWpZ9Wj5quubcpByBgAsD6dc/qU411By+wQvuweQq6+1dPro51WtaF0xqt5ddvjP89UUkAARMA1r/zVo9rjM+87wr+fvxV9feNlq5/n4Ina9OHGuMsH1Z9XzkAARMANp7LV/9afbi64Qrux9ere1W3qT7ptKwpX6/+uDG+17kDBEwAoJs2Jt55ZXW5FdyPD1Y3acx6+12nZVU7qnpCo5vzG5QDEDABgLPbvnpg9ekpOOyxQvtxemOdxP2rf6hOcGpWlTOqf2uMs3x6dZySAAImAHBu9qyeWh1W3W0F9+Oo6jGNrrtvd1pWhU82usLer/qOcgAImACwUFep3li9q7rOCu7Hf1d3ru7YWFeR+ft2Yw3TmzbWUwVAwASAbXL7RmvmS6qLreB+vKvRLfMR1Y+dlrn4dfW06rrVKxrLkAAgYALATHaqHlp9tnpktesK7cdJ1QsbLaovmv6d5fHmxvIxT8w6pQACJgAsg32r51WfaLRsrpSfVn/R6LL5fqdlSX2+um1j/O3/KAeAgAkAy+0ajS6rb2mM1Vwpn67+oLpH9TWnZSY/qB7emFTpfcoBIGACwLzdpTqiena13wruxxsby5o8pvqF07IoJ1bPbYyz/KfqZCUBEDABYKXsVj26+kz1kGqHFdqPXzfWzbxu9arGepps2buqG1d/Xf1MOQAETABYLS5WvbSxjMXNV3A/vlv9SXVQ9TGn5Rz9v8YYyztWn1MOAAETAFarG1YfrF5fXW4F9+PQKeg+sPqO01LVzxutlTdozBILgIAJAGvi9+09G91mn1xdYIX244zq1Y1us0+tfrlBz8ep1cuqazfGWx7vEgUQMAFgrTl/9aTG+pn3qzat0H4cM+3HDRotq5s30Dn4UHWTxjqmP3RJAgiYALDWXbp6TaPr7I1WcD++Wt27sbTJZ9Z5zb9V3be6dWOmXwAETABYV25RHdKYDOgSK7gfH6gOrP68+sk6q/Gxjdba/avXVme67AAETABYr3ZoLGfymca6lbut0H6cUr24MS7xOdUJa7yuZ0yBcv/GeNNjXWoAAiYAbBT7VM9sdN88eAX346eNdTxvUL19jdbyk9WtGl1iv+XSAhAwAWCjukpjyYx3N1oTV8qXqjtPry+tkdr9sHpwdbNG12MABEwAoLpd9bHq+dV+K7gfb2+0Zv51Y93I1ej46tnVdapXNJYhAUDABADOZrfqEdXnGhPw7LRC+3FCY73I6zTGaa6mAPeWxjjLv61+5pIBEDABgC27SPXP1Seq267gfvxgCro3rv5rhWvy2eqO1V0by60AIGACAItw7eo91RurK6/gfnyqMYnOH1dfn/O2f9po1b1x9S6XBICACQDM5m6NmVKfWV1gBffjDdUB1ZNb/mVATqr+qbpu9cLp3wEQMAGAJbBHY93Mz1R/0lhPcyUcW/39FPxeXW2uzlttWoKfvev053uqG1UPr37k1AMImADA8rhMY+bUj1Y3XcH9+Hb1wOqW1QeXIGBu1xhnee/q9tXnnWqA1W97JQCAdeEG1Yer11bPqL61Qvvx4cYalLPOeHtSdY/qdKcWYO3QggkA6+v3+v0ak/A8ttp9hfZjc3XyjD/jDOESQMAEAFbeBRqtmJ+q7uX3PQACJgAwqytVr6ve1+hCCwACJgAwk1s1xkW+tLqEcgAgYAIAs9ipekh1ePWIfrMECAAImADANrlw9fzqk9WdlQMAARMAmNXVq7dW76yupRwACJgAwKzuUB1aPbfaRzkAEDABgFnsWv1VY1mTh1Q7KAkAAiYAMItLNWaaPay6jXIAIGACALPav7F25psaa2kCgIAJAMzkrtUR1VOqCygHAAImADCLPaonTkHz3u4dABAwAYBZXb56bfWR6mbKAYCACQDM6sbVIdVrqssqBwACJgAwq/s1us0+tjqfcgAgYAIAs7hg9YzGsiYHKwcAAiYAMKurVW+uPlhdTzkABEwAgFndsjq0en61u3IACJgAALPYoXp4dXGlABAwAQBmdUK1WRkABEwAAAAQMAEAABAwAQAAEDABAABAwAQAAEDABAAAQMAEAABAwAQAAAABEwAAAAETAAAAARMAAAABEwAAAARMAAAABEwAAAAETAAAAARMAAAAEDABAAAQMAEAABAwAQAAQMAEAABAwAQAAEDABAAAQMAEAAAAARMAAAABEwAAAAETAAAAARMAAAAETAAAAARMAAAABEwAAAAETAAAABAwAQAAEDABAAAQMAEAAEDABAAAQMAEAABAwAQAAEDABAAAAAETAAAAARMAAAABEwAAAAETAAAABEwAAAAETAAAAARMAAAABEwAAAAQMAEAABAwAQAAEDABAABAwAQAAEDABAAAQMAEAABAwAQAAAABEwAAAAETAAAAARMAAAABEwAAAARMAAAABEwAAAAETAAAAARMAAAAEDABAAAQMAEAABAwAQAAQMAEAABAwAQAAEDABAAAQMAEAAAAARMAAAABEwAAAAETAAAAARMAAAAETAAAAARMAAAABEwAAAAETCUAAABAwAQAAEDABAAAQMAEAAAAARMAAAABEwAAAAETAAAAARMAAAAETAAAAARMAAAABEwAAAAETAAAABAwAThXOykBACBgArAUXl19TRkAAAETgFl9sNq/ekJ1lHIAAAImALP4dfX0KWi+pjpdSQAAAROAWXy3ekB18+rjygEACJgAzOrj1c2qB1XfUw4AQMAEYBZnVq+srtPoPvtLJQEABEwAZvGLxgRAB1RvVA4AQMAEYFZfq+5R3ab6jHIAAAImALP6QHWT6uHVj5QDABAwAZjFSdU/Vdetnl+dqCQAgIAJwCx+Wv1VdcPq7coBAAiYAMzqi9Wdp9eXlAMAEDABmNXbG62Zf1MdrRwAgIAJwCyOr/6xsX7my6pTlQQAEDABmMV3q4dWB1YfVA4AEDABYFafrv6gumdjLU0AQMAEgG12ZvUf1Q2qv69+qSQAIGACwCyOrZ5c7V/9a7VZSQBAwASAWXyzun918+pQ5QAAARMAZvWR6qDqgY1JgQAAARMAttnp1aurA6rnVCcoCQAImAAwiyOrR1fXq96sHAAgYALArP6nult1u+pTygEAAiYAzOq91c2qR1Q/Vg4AEDABYBYnVS+srl/9c3WqkgCAgAkAs/hh9ZfVjap3KwcACJgAMKvPVHeo7tIYqwkACJgAMJO3VjeoHlsdpRwAIGACwCyOq57VGJ/56uoMJQEAARMAZvGd6oHVTasPKwcACJgAMKvDqltW962+oRwAIGACwCw2V69tjM98WqMbLQAgYALANju6emJ1QPVG5QAAARMAZvWV6h7VLarDlQMABEwAmNWHqxtXD6n+VzkAQMAEgFmcXr280W32udUJSgIAAiYAzOJn1V9XN6repRwAIGACwKy+WN1xen1WOQBAwASAWb2rOrB6RPVT5QAAARMAZnFy9cLqetVLqlOVBAAETACYxQ+qP2vMOPtfygEAAiYAzOpT1a2qu1dfVg4AEDABYFZvasw2+/jqKOUAAAETAGbxq+oZ1Q2q11SblQQABEwAmMW3qgdUt6g+rhwAIGACwKwOqW5W3WcKnQCAgAkA2+zM6nWNZU2e1uhGCwAImACwzY6pnljdsPpP5QAAARMAZvU/1cHVbatPKwcACJgAMKv3VQdWf1Z9TzkAQMAEgFmcWr2kMT7zudWJSgIAAiYAzOJn1V83WjTfrRwACJgAwKw+X92hMUbzS8oBgIAJAMzqP6sDqr+qfqocAAiYAMAsTqyeX+1fvbw6TUkAEDABgFn8sHpIddPqg8oBgIAJAMzqk9Wtq/tUX1MOAARMAGBWr2ssa/LE6hjlAEDABABmcVz1tClo/mt1hpIAIGACALP4VnX/6laNLrQAIGACADM5pDEJ0IOq/1UOAARMAGAWp1WvrK5TPbPRjRYABEwAYJsdUz2uun71n8oBgIAJAMzqq9XB1R2qzykHAAImADCrd1cHVo+ofqIcAAiYAMAsTqpeWF27ekF1opIAIGACALP4afXIRovme5UDAAETAJjV56vbVXdrjNUEAAETAJjJmxuzzT6+Oko5ABAwAYBZHFc9o7F+5isa62kCgIAJAGyz71cPrm5efUg5ABAwAYBZHVrdurpf9R3lAEDABABmcWb1b9X+1VMb3WgBQMAEALbZ0dWTpqD5+mqzkgAgYAIAs/h6de/qltXhygGAgAkAzOrD1c2qh1U/Ug4ABEwAYBanVC9tLGvynOpEJQFAwAQAZnFk9ejqgOqtygGAgAkAzOpL1V2qP6y+qBwACJgAwKzeWd2welT1c+UAQMAEAGZxYvW8xrImL2uM1wQAARMA2Gbfqx7aaNF8r3IAIGACALP6XHW76u7VV5QDAAETAJjVmxqzzf59dYxyACBgAgCzOK56cnX96jXVGUoCgIAJAMzim9UDqoOqjygHAAImADCrj1e3qO5ffVs5ABAwAYBZnFn9a2N85rOqE5QEAAETAJjFUdVjq+tVbz7bf9+kNAACJgDAtvif6m7VratPV7tV2ykLwMazvRIAAEvkg9XHqvtUv1YOgI1n0+bNm1UBAACAmekiCwAAgIAJAACAgAkAAICACQAAAAImAAAAAiYAAAACJgAAAAImAAAACJgAAAAImAAAAAiYAAAACJgAAAAgYAIAACBgAgAAIGACAACAgAkAAICACQAAgIAJAACAgAkAAAACJgAAAAImAAAAAiYAAAACJgAAAAiYAAAACJgAAAAImAAAAAiYAAAAIGACAAAgYAIAACBgAgAAgIAJAACAgAkAAICACQAAgIAJAAAAAiYAAAACJgAAAAImAAAAAiYAAAAImAAAAAiYAAAACJgAAAAImAAAACBgAgAAIGACAAAgYAIAAICACQAAgIAJAACAgAkAAICACQAAAAImAAAAAiYAAAACJgAAAAImAAAACJgAAAAImAAAAAiYAAAACJgAAAAgYAIAACBgAgAAIGACAACAgAkAAICACQAAgIAJAACAgAkAAAACJgAAAAImAAAAAiYAAAAbyvZKcM42bdp0qWr36swthPOfVEctQci/bLVztXkL7/lRdbQzc47uX926+k717ep/p9fR1YlbqOty2ru68Faun+9Xv1yi7e1c7VLtW+0w/fsFq59Xp0zb+8VUj1Oqk1w2q8/mzZsVAQAQMNepF1cHbeU9j6meP+N2zlu9pbriVt73l9XLnZZzdKXqrme/T58C1JHV96aw+Zrq8Dnu0/2qp23lPfep3rSNP3+P6oDqetVVqstXF612msLkeabP9+lnC7mnVadWP6t+PAXc71ffqr481ep4lxMAAALm0tup2nFO9dt5jttaj079rX/fVO1aXXp63az67pwD5vYLOKfbbcPPvUL14Oou1cUX+Rnfsdqt2rPffaBxSqM1/snVK11SAAAImEvrzAW8Z6n6s50xx21tVCfPeXubl/ic7txoMX9Eo/Vyqe3UaAHd16UCAICACevX3tUb2nqX7aXwFeUGAEDAhPXp/NXbqhvOaXvfV3IAALaVZUpgdXvuHMPlL5t9VmQAAARMYIltWoL3HFQ9YI77fGR1nFMHAMC20kUWlseZjUl8Nm8hXG5tIqm/2IbtntxYhuTn/Waty10bM8eetzFB0I6d88Oln1W/duoAABAwYXV5bfWxLQTM8zTWnzw3F2ssr7JQ76zeXH2i+tUULs842+d8x2qH6c8LT6+LNJZxuXhj+ZP/l9mKAQAQMGHV+en02lbXrc63gPcdXz2k+vctvOeMxjqXZzmy+sJvvWfnFtatFwAABExYY662wPc9eyvhcqFOVnIAAGZlkh9YnS66gPccVb1EqQAAWC20YK4/e1SXbYyrO/tYuz2qvfu/Y+w2N7pxHlV9e3p9ofrJEu7PZaprNsb6Xba64DnsR41JaX7dmGjmJ9PrB9XXG2MKl8um6lLTPl6qMRbxoo0JcapObIxN/Fj1vrY+Mc9ZLjSdg3N7/3bVN6tjzuXv91rANj5RHb0KrrkLNbr0Xm46x/tN53nz2Wp8VKNr7nemczrLdbZrdaXO+QHZearvTtfTOdm5ulV1h+pV1eHn8J6LT8d05jn87O9N1+g57dP+1VWmfbtko4vzWRM9/aT6RvWp6Vo6yVcVACBgslrdtLpldb0pIO053Uhvi19MN92vqN4zQ2g7uHrgFDzOv40/59QpQH2putcShqmdqhtPdbtNdYmt7OMtqkdVh1YPr/57Adu4V/W0tjzJz72rN81wHD9YwWtuh+qPpuO87vTQYLHX2aGNyZDeW52+iP/3slNI2+Fcrr1nVE/+rf++X/XH1Z9MAbDq0+cSMB9Z/dk5BMxN1Vunn3OWa041uOP0gGIh41i/Xr2oevkijxsAQMBkLv6y+sMl+lkXbLTu3KH6YPXnjZbNhbpo9bLqtkuwLzs2WpLO229mRN1WpzVaU+8/BaMrbsPPOLB6f3XrKfRuLYDtuJX3bDfjMR21QtfbLaunNFrsZrnO7jy9Dq2eUB22wP/3PNVuWwhzVzrbP59/CosPbbTkn92FtnDd7bCFa2CXRgvl31Z3a/EPc644BczbVveZwjYAwLpgDOb68OVl+rm3qj7S6Pa3EHtU71qicHl23232brJ/0Wixevw2hsuz7DeFg62FioV0pZ11SZCVWFLkMVPI3n8Jf+aB1YerRyziuE/fykOOHRotxJ9utCRf5Fzet9hzd5HqlVMovm/b3lOgRuv5m6ewDAAgYLJqfHMZf/bFGt0YF3IT/HfVNZZhH76zBGHqci1sXONC3LC6+Qa8zh5fPXOZvjd2rJ7f6II8q8tXH5qu28tv4X37buPP/+NGC+xSuGn1WF9hAICAyWry9RY++cy2uHqji+GWXLS63zJt/4ersOZ/vMGusds0WgKX2z9UN5rxZ+zdGGO7kPethmECD29MggUAIGBucKcuwc84YQnC4VJ0Id2aezfGnp2b6zUmF1oO31+F5/4qW6nHerJrY73NedipMUnPdnPY1t79ZrbglXTexrhgAIA1zyQ/s7lVY6zXDtv4/585hZS9Z9yP4xoziu7ZWA7hR9WPG8tCHNlYsuHM6b+d0RhHtntjLOL1W9gYy7OWX/jCufz9tRbwM05pzJr6sWlfztPo+rrrVIMLTvu2T79ZXuVi0zGsNhdpjMf87ga4zv+w+v0FvvfExlIcZy0Vsqkxmc6lGrPNLmTM4g0bEwm9f5mP62KNpUR+uUQ/78vV16bP4pmN5U4OnK7lrbl99Y++UgEAAXNj+4PptdJOayy/cMYUMI+Z/ttC7FY9rDG2bkutRpsaXWW/sIXAtTWPbYyzW4jtpsC8V0u7Ludv+1n1xep/G63AZ81uutcC6rb7BrnO77bA972melbnPib4KtWTqrss4GcdvMwB8+ONyXp+PuPPOar6j+rfq682eiT89ufiXxbwPXHW8kLH+loFAARMVoPPbeP/d0Kj5eT61Z228t4tzb66te7WJ1UfWMR+ndFYvmE5lnD4YWMSmLdPgfm3A+xrG0u07LqFn7Fjq6N75XLbq4W1Tr90elCxJV+eguObqrtu5b03mGp86hIfz8cbDzne1ewTR/17Y3mV723hPT+e6vLfbXmt1T0aS58ImADAmmYMJmd55wLes98W/m5rN+snVSevghD+p9W1qwdW7+mcW0c/0bm31C7mmNeDy23lvNfowvz3i/iZj+93W/p+20WqSyzhcXy6umNj1tZ3LsG5e1x1r62Ey7N8v/rsVt6zY0s3My0AgIDJiltIV8EtdQndtJX/d4/G2MqV8qJGq9i/LPBYf+WSqMbY2K1NuPP5FtfV9NttvcV9l8YYxll9r3pwY1bZpWi1PMuHF/n+Y7by95uyHiYAIGCyjmxawHu2NNvt1sZ8blc9ppVrpflGi+tu6bOx9YcKZ6/tYv14AfW/wAz7fXz1guo61SsaE0wtpZ0X+f6FXE+bXW4AwFpnDCZL5UcLeM8fNsbzvbU6pPpS81vjckenaJvsu4D3HLdM255l+Z4vVY90+gAABExWxqwtPF9e4PsuVj1iev2s+npj4pXDGuPUdE1dXRYS8lZja+8Z036d6RQCAAiYa8Xrq7c12zqYu1VPb2HLfCzGztPP3LPR/XVL3e82t/B1Ds/NYdXRbX15j7Pbd3rdePr3/22sofimRgvnCS4xttGmFtbtGwAAAXPV+GxjqYtZbFc9eokC5qbqVtU9G11R922ModvajfbmZm+F+mn14sY6h9vq0tPrjxvj+v6pMSnP6S41AAAQMNe7pRjXt1tL08XwUtXLqluuYD2e3lha4r5L8LOuMAXWW1f3b7SOAgAAq5iZMteHS1bvXeFwWWOW1gdUD69+sEQ/8/bVS9PdEQAABEzm4oXVlVbJvpzZ6Np6nepB1UerX874Mw+uDnCaAQBAwGR5XafRyrfa/Lx6ZXWzaR8PbnTh/XxjjcLFuqVT/TusmwgAwKpiDObad7sW3n30Z1Mo+e33n9mYdXbPZdrHb0+v/5z+/YrV9au7TcFxIft/Gaf6d+w5h23omgwAgIC5gVx9Ae95W/WP1Y+3EDAPqv5tTvv89en1muoWjcl8LreV/+eibX25lfVkIcHuInPYj1OX6eduXqIaAAAgYLJEdqoutpX3/LR6YFsfB3nkCh3Dh6oHVx9uLNlybnbeYOf2Vwt4z3Wnupy8jPuxkOviItt47W7NelqeRqAGADYEYzDXth2q823lPV9vYZPsrOTDhq9Wxy7BDfp68tMFvOey1R8t836csID3/P4if+aO1eW38p7TWrmHHsthIZ+vM3ylAQACJqvdGUv8vuW6Ds/cyns2WuvOVxf4vqdXV1vG/fhxddJW3nON6nqL+Jk3W0AoPaH63io+P4t54LFjY13XrX3+rPUKAAiYrPhN7ta6EV5ggT9r9yW4li6wjf/vTgvY/qkb7Nx+qoV1Eb1EdUj1mEar4A5bef921fmn/+/q1W2rv6peWz36HN7/rba+pumO1Usa67FuzZUby+ps7bvnW63uFsxTFvHe21W/t5X3HN/CWq0BAFY1YzDXtpOmm/ArbuE9V6v+sHrHuQS7K1d3re41475cqHp3oxXms9VnppBwdKP767ndkO9TPamtj7H8URurm+w3q8OrAxfw3r2qZ1ZPbLR8/rSxTMxZy8HsMYX/XaZ/3nP6f377gcDHGpNBnd3JjfGxW2uBu0Z1aGPCpvdM2z/tbNfZhao7VH82nfOtee8qPz8vmh4C/HdjhuRfVMc1Wl7Pmozq/NUfVE9r6y3wP69+6CsNABAwWUlnTiHuJlt4z3aN1ql3Vl9otIrtMQWG32u0Yi1FS/ZFp5BRdfOz7d9ZYefY6Qb89Om/7d0YP3qV6uIL+Pnf3oDn9lULDJhn2bW69gzb3HMKob/dJfb11UMXcJ1crHpW9YwpLJ3V6rzLdH0s1InVm1b5+bnu9DrLadUx0zW+aTp/e7fwpWQ+3vqa1AgAEDBZo46oHrSV95yv0UJ5r2Xcj3NqRT1PY4bRpVhO49Mb8Ny+sTED8IFz2t6FG61uJ51D7d9c3X2BP+c8jS642+pfG5NTrSU7VPtOr23xn77KAID1wBjMte/9je55K23/ZfzZ325039xoTq0eUv1kTtvbq3Nucdtc/W1bH4u5FL5VPXmDnefDq4/6KgMABExWgyMb495W2hWX8Wf/XQtbLmM9+lpjDO0P5/R9cG4tjz+o7t3yznT6g+oujS7VG8VJ1SPbeJNYAQACJqvYc6pPzvgzzqg+17YtV7Jvy7dUxnOq/9jg5/ezjaU95jHxzZbWpzy0umVjLO9SO2z62f9vA53X06oHNCbEAgAQMNe5nRfwnh2WYDubGpOgbM2Wxsse35gJ9v3bsP0TqndVN65u3Zik5NzsdC7//czqI401E5fKj6s/6ZyXzvhtOy7Dudp5xs/PDjOe09/27cZyF3eZwthyrFt6WnXerbznC9VNG63KS9Gq+s3q4dO1941FfG/tsATnbyV9qbpNY5wtAMC6YZKfc/fJ6Yb79C3U7ltLdFN/SHWpLYSGnarvbuXn/KS64xTK/qQxQ+zO5xIGj5z2/T3VB6svn+3vX9mYifT0cwhM59bSclR1cGMM37Uas8leY9qHvRuz1m4tRJ88/ZyvVm+bQu9C10H8amMWzlO3cK4WOwvt4dOf53b+t2vMGrql4PTRLfz/OzaWXlmst06vA6obVbeoLjfVfrcF/owTq19Xv6y+U31len1tquXWHFc9pbH25S0aXXivU12wMaHUlvy6+tn0+Xr/9DpukTU4bvr/duicl67Zvvpiy7uszb831m69QmNipN0XEGp/0WihffMULH/laxYAWG82bd68WRXOqTCbNq3l3T9PY/mRy043/Hs2xrWd0mgZ/Hrzmxhon8YsshecXjtMQWjnxni+zVNQOyv0HufqW7TzVZes9musbbnTdA3sM533M6f3/Wp6HTOF+Z8u4T7sXF26sRzJ3lMAP/+07bOWp/n59CDkW/1mjczV6J+rP9/Ke67b6Lq8qbHG54X6zfqiO03/fa+p1mcd+9fbykRJvo8BAAFTwATWl4UEzAMbXZWXlO9jAGCtMwYTAAAAARMAAAABEwAAAAETAAAABEwAAAAETAAAAARMAAAABEwAAAAQMAEAABAwAQAAEDAB1rtNSgAA8Lu2VwKA/2PXs/3zSdVx1ferb1bfrX5UfXVZUuumxeXWzZs3O1sAgIAJsIq9fQqQ36y+Xf1wCppnKA0AwJZt8gT8XAqzSQ84YHXz/Q0ArDbGYAIAACBgAgAAIGACAAAgYAIAAICACQAAgIAJAACAgAkAAICACQAAAAImAAAAc7O9EgCsTZs2bVIEzs121Z7VftOfezUeKu9V7fRb7z25Onr6+2OqE6Y/f1H9ujpDOWFpbd68WREQMAGAVWlTddnqutUVq6tWl5/C5G5ToNxuofe91WlT6Dyp+lX1/en1nep/q+9WX6uOV3oAfueXkico51IYLQMArF7bVzesbln9QXWpavc5bfuURovnt6ojqi9Vn6u+7bTAwrj/RsAUMAFgNdivunt17+oajdbL1eBXjZbNl1cvc5pAwETARMAEYPXas3po9efVhVbxfv5HdU+nCwRMNi5jMAFgdbt99czqymtgX7/idAEImADA6rNL9azqL9fQPhuHCSBgAgCrzAWqN1cHraF9PrP6sVMHIGByzs6ake9MpViVNzHfqk5VCmCdhsu3Vweusf0+rvqZ0wcgYHLO/qm6WWNNMFaX46sDGuuxAawn563etgbDZdWx1ZFOIYCAyTnbrdpVGVal7Vr4ouEAa8lLqhuv0X3/WeMBIAAb2HmU4FydoQSr1ulpWQbWnwc21rdcq77pFAIgYALAyrtkY8bYtew7TiMAAiYArLwnVhdc48fwPacRAAETAFbWNVrbXWPP8iOnEgABEwBW1kOqHdb4Mfy6+olTCYCACQArZ9/q4HVwHMdmDUwABEwAWFF3qvZcB8dxdPVLpxMAARMAVsam6g7r5Fj+N8tHASBgAsCK2be6/jo5lm87nQAImACwcq5dnX+dHMs3nU4AqrZXAgBYEddbwW0fXX23+nF1zPQ6ttq72mN6z4WrXaoLTEH4gtVO5/Lzfux0AiBgAsDKueoKbPO91Wuqz1ffW+D/s8vZAuYFq8tUV55eF6/2qX7udAIgYALAyti1uuQct/eL6s+rN23D/3vS9Prp9O8fPdvfnbe6aPUDpxQAARMAVsYe1aXntK3jq9tWn1mmn/11pxOAs5jkBwDmb79qtzlt6ynLFC4BQMAEgFXgonPazg+qf1FuAARMAFi/9pzTdg6pfqXcAAiYALB+7Tun7XxCqQEQMAFgfdtpTtv5plIDIGCqDc4NsL5tntN2fqrUALhRXx3OVIINf2MGsJYdX52sDADMk3Uwz91fVRdYZUFzc3XB6s3VDnPY3qOrT1WbVlENNlWnVz92iQJs0a+qU5UBAAFzdfjyKt2vPeYYej+XCSIA1qpNSgDAvOkiu/bsOsdt7azcAACAgAkAAICACQAAgIAJAACAgAkAAAACJgAAAAImAAAAAiYAAAAImAAAACyl7ZUAqtqx2jy9dqh2qk6c/n1TdXp1pjKtuu+v0zfgcZ9nDVyLm6bP0eaz/ftu1anT6+zvO9WlzAp/71dtV+1SnVSd4fr0PbjsX5KbNs3j2t5+ep08/ffT1vln+azjPWn6/C7p8W7evNknT8CE//OLaM9q3+qy1cWqi1R7T/99t+oC0y+rM6vzVuerfn62gHlKdXR1fPWL6sfVD6pvT/987Dr+4l5NLlDdprpj9ZHqZRvouA+q7lx9pnr+Cv0CP2+1a7XP9Dm64PTap9p5+kydp9prulnffLZf+vtMn5/jps/UWZ/NY6sTpr/7ZXXU9Nn7fvW96XP36+kzuJ7M6+b4jA36XbFTtcf0XX+Z6Xrdd/osXWC6jveazsPm6f17T9ffKdM1umm6Pk+crsNfnu27//vTP/9yHV6bq9X5qxtXd6m+Wz1pA9dij6kel5qu74tP1+9e033NHtNnf5fpdcz0fXtMdeRUv89XX6x+ukbO/V7VpatLVJecfvfsNR3rbx/v0Y2HRsdMx/ft6kvVF6bjR8CERdt1+sK9XnXt6grVFacvo+0W8XMutcCbxOOqr1dfrf67+lj1nemmZLUG7u36zZP7pbB5GW9kd5huKv64ulV14em//2qRP2fT9J231I8gT1/G475Bdc/qD8523Mtpu+kX9b7VlaZf5pecbtIvfLYHMzucLSQudzg6erqZ/9p0U3R49eVVcFO03fRZ2pbr6cw5/v7dcdrX5Tpfm6bjWekgu1f1+9WNzvadf5npel7McKCLLeI777jpxvWb0/f/4dX/azyEXK2W43vwrF4+m5dpf687ff/fcQoXNR4wblrENjct8vf/1n7WPB8o7zldy9eurjL98xWm7+QdZ/zZx1WfrN5bvaXxcK9V8Fm+XHWN6mrT76HLTb9/dpjxZ/+q+sTZjnc1f1bXtE2ae8+lMJs2rdZdu9B0k7XTHLZ1m+oDa+SU7VHdtLrFFEauuIS/TLblpvhr1Uerd1RHNLprrBZ3rB67xMFoc/WQ6itL+DP3ru5a3bva/xz+/h3VnRbx8/6weswSH/em6i8bT4KXygWm475Pdf1z+Pv/moL2UgTYvacbles0WvevNN287N3qfgB5XPXp6cboPVPgnHdXxudP1+WZ2/gdcYmz3Swvl1MbD71OXcaAeZ7qG9X9VyDgX7m65RQqr9doJV9pR03X5mHTZ/XLra5W5JtWz1jifdquevwU+pbK+Rotlfea9vm3r9/PNR7ALfRzf43qn5fweP+++uAyBqyrVQdW16quWe3X8s+b8uPqFdWL5xy89pvC8w2qq07/vHfL/xDzR9XLq5c2HmRu/UZHZlrEXeHmzV7n8FrFLtToS795Dq9br4FL+HrVCxtd6Tav0teXqsfN4WZyof5smY7zbku0f5eZboB+tJXtfXqRIejPl+m4H7hEx33x6mnTA6Qtbe/LbdtT612mMPnA6QbiiCmobV7jrzOma+GxLazXwVL5+Dqo3VK9Pj7Hul+sekR1aL9pNVutr9On/XzUKvr+v/syHetjl2j/9p0eBH59K9v7QaPb5GKC9VIe76uX8JzsUl29evT04PSoFb5uv1EdvIzX4K6NVunHNloSj13h4/1m9Ucy0xLnKEUQMNdowLxV9f7p5nKt3IQdW71ouslfSX+6TMf3hBn360pT8PnlArf3vekX1UI9ZJmO+1kzHvfvTU/Wf77A7R01Pd1fiN2mX5wvmR50nLrOg86x1b9OT/2X238Jlv//6y1zqPd1p9aGY9ZojY6pXlkdsMLf/wcv0/HNGrguUz29+uECt3dKddFF/PwbL/HxfqcxJn1bnbfR4+oF03fzanxY8qwlbEU873Tf9k+Nnk6r8d7teVtrJZaPBEwBc/0GzJtMwXIt34wd05icYPd1FjBfP0PAenFjbMRitnfc9LR7pQPmW7fxuK84Bb/FtiKesIiWuivN8ftiNb1ObnR7uoiAOZfXi5axztes3rCOHo6cMQXya63Q9/9yBcxDt3F/Llz9Y6OL4mK3ee0VDJhnNLqwLsbOU6h84dRqthau13+ZIWTuXN18eoD6rTVyvG+eHswKmAKmgLlBAuY+0834GevopuyL05fvegmYhy9yPy42Pb3d1m6ap07dilY6YH6+xXXVvWijC/AvtnF7p3fOYzPPyS6NcTUbNfh8vzE5iIC5vK9nLkN9LzAFjxPWac1Omlpz5j1udLkC5ncW2aNk7+qJbX0oxJZet13BgLl52v+FuFr1lKmlci1eqy9Z5DX2+9WTGxNercXjfZ2AKWAKmBsjYN62rY/HWKuv0xqTI6yHgPmtBbbKXqAxJvVnS7DNxUx2s1wB8wcLvEk8b2OMzY+WYJt/tIjj/ogA1MtbeLdiAXPxr0cucW1v1RhrvBFq97XqDusgYP6yMdPn1uxYPWyJWvAevMIB89Nb+b6/T6PH1XpofX/YVuq7a2MehndOD0/W+vE+XsCc7XWeYHV7XPXuVn7c4nLZvjGxyxsbM+GuZfu19aU07tuY+fPpS/Tk/kKr4LgvuIBjuXtjUp1ntzTdNhdz3N/2NdKDq7dP1yhLb6lmnDzP1NLzvqkVZCO44nRT/g/NvgTDStp9Ad//d2x0pX3xAsPo1lx0hY/596rL/9Z/u/z0O/1L1b9ND+p3WAfX6TPP5TN58cZkPZ+b7mPu0Ogau9Y9qTExFDN8mcNqtEOj7//Tm896eyvtbo2xfHut4WM4b+c+JvLA6sONCViuuMShdqXtsoXQeECjpesNS3zDfMFFvPcbvk6qOqjRmiBkLr1jl+Bn7D09BHjiBr03+ZvqbS1uXPlqsmkLge+a07l9R+e85NS2Wullac7bb8bSHjD9fvtco/Xr0uvs+ty90WX9LFdtjK38QmPIx5XW2fHuOB3vriFgsm6cr3pT9aANeAP8lsaiymvVb0/Ff7HG+I2PTse31C60So77t5/G7zv98v1oY1KHpXbhRbxXC+ZvXL36j2ab/ZHf9eslCArvaL5dRVej2zXWdb3IGt3/3/4e3LPR8nVoYx3ipbYa1j39s0bL3aGNHjrnW8fX560ay339S/WZ6Z/3WsfHe63mv76vgAnLZIfqZdWdNujx37Sx0PH2a3T/z946+YBGd9iHLuN3zT6r5Lgve7Z/vmejO+yft23rVS7EYlrhvtsYE8NvPmMvUIYlc2ZjXoBZPsNvb+WX71gtrt3oMrsWQ+bZh7Lcafr+f0xbmJVzCb4HV7r76Q0aPZC22wDX5qbGg9MHVTttkM/jI1u5Gf8FTFhCz235Zn1cK/6o+vs1uu+XbYxLeV/1qkYL5nK6UKujC/WlGmNv3tVYruVSy7y9/RbxEOL7jSVg+I0HVvdShiVxXGPppW2xp3B5jq411WWttQ5dotE19N8b3X2Xu9vk3o0hCrBcLtPiZitGwGQVelD1F8pQjae+t1mD+33LRlehee37fq2OCQUOnI779nM87oW2jv6qMXMt/9c/tna7Iq4mp7ZtLZjbNbraCZfn7DqNh3RrqTfL71eHNb+HxHu3PiaUYXV7oBIImKxd12q0XvKbm69/bnGTuawGezTfp+77tjq66py/+U7OsVeLm3X4Kz5S5xjSH6cMMzu+0Yq5WI+u7qJ8W3THxmyWa8X5Wtz48Fnt3voeA8jqcEDrbxIjAZMNYecpTJ1PKf6Py7gBXtC1s88GPO4dWlzr29ddKufo/m2c5TCWy0ktvgXzgMZC7Gzd46ubKcM52tRYJgOW0y6NdVQRMFljHlRdXxnO0Z+6Ad6iHZvvE/PVFDD3XsT7v+tSOdcbhz9VhpmcWJ2yyJr/c8s3AdZ6vE97fss3Uc5at68SMAe3UQIBk7X3y+HxynCudk0r5ta+wy60QY99McH6u42xcvyuP87amLM4epHvf2hjXUQW7qqN2Sz5XT67zMPVW9ywFDdnSsAKe2SeQG7NndL/f0s26vWzmBur/61+6VI5RxfI+ouzWMwamBeq/lbJtsmj+t11hqmLKgFzcKHGTPEImKyRYGAR263bubGmJLMHrY163L+ofupSOVcH+324zRZzXT20jTlmeimcv/pLZTjH+whYbjtUl1MGAZO14T6r8GbjjHN4rQZ3y2K/52ajdpHde5Hv/7ZL5Vxdu405lncpHL+I6/VByjWT+2/g77tzcwH3ssyJ+TAWYXslYIXs2PzWyjo3P64+WX2tsYzDj6ojfytU7jD9Qr9EdeXGWJgbrUDYu1h1i+qtLp3fsVGfYF9kurE6c4Hv/0r1R9u4rVOqnzdaQo9urK151p+/bEz08vNpfzZNf3fW0hW7TufozOnztN8UNvaZPleXXQU3zeefQuZi1gu1/t6w0DGYB7f6ehucPl3TZ0x/ntJY9miv6f5or+maXS32nH5vWtLrN/ZrTBx1glKwzC6rBAImq9/1G4OmV8K7qldXn1jgzdF3pveePez9YWPx3avNcb//UMA8R5eebgpP2YDHvZgbq29t5e9/1ZgM6PuNhy/frb43vX7eaKk6aXotlfNMN/EXq25Z3aoxHfymFajnTat3LOL9L6s+MoWUxTqzsfTEQct8TL+uXryMN987VIcu8F7jviv8edlcfaH6dPU/1ZenBwonTOfjxClobjc9FDnP9OdFq9+rrtGYnOi6K3R9nuVe1T9Vp/nqr+pSjSXOBEyWmzHQAiZrwB+twDY/WT2x+uiMP+eHjWn2X1X9dWMW3HlMuX/Q9Iv01y6f/+OLK3zDt1K+NN00L9T3pj9Pn8LmNxoPT/670br5s+rYJQ6QCwlaR02vL1T/0Ogh8OjqdnOu5zVbXIvwf8y4vVPmEDB/Vf19K//w5ZrVtVZo2z+cztWbq6+2sDU7z/4Z+P70u+OsQH3l6i6NlsRLrcDxXG2q5ad89Vf1/4Rt5mQvJRAwWd12rW4+520+ewqCpy/hzzyxekr1+er1jW52y2m/av/qwy6hTqveXr2k0YKyeYMc9+mNVrZXTNfBmYv4f7/SmC31a1OYXI0PKjZP5/PQxoQwz5m+L+bhktMNxFFz2t48utiep9Gd/6gVPq9/2GgZnKcTqxc21pBcquM/rfFA5r+nn/vnjVlxd5njcW2q7ihg9v7q5dOfG2UJppMavUuOa7TY7jJ9vi/Z+lxX9qRGL4Nfr5Lj3SUETFa1K0yveXlS9dRl/PnvbUxe8R8t73idTY2uxRs5YB5fvWEKlv+9wY77HdNxH7GNP+PY6t1r6Jhf2miBe+2cwslFG2NFj4qlvs+46Zy3+b3GJHKHLeM2jq6eXB1S/Wt1mTke362rv2vjrW17SvW+Rg+ij67zYz210Tr7/xrduT9d/WT6Tjx5+vsdGg+q9q4OrB5SXWeNHu+JjV45Zx3vF7ZyvAdVf9IYOz8vu/k6X4TNmzd7ncNrFbvQ9GHbPIfXrZfpGP5yTvu/uXrdHM/N8+dwPO9Zgv380znWf6lev67+pdlmcXvIGj3ul7exZ6973hzrPc/1MB8/h+P5cYufbXipXa7REjGvc/j15j8Zx+UbXc7ndYyntu0PaQ9eg9+DJ08PmmYJEzdeA8f500ZX7gdXV2zMLbAYO1bPWEPn9WvVaxrjii/d4hu9dprTfddZr+Plo4W/tGCyEq43p+18v/qrOR7Xs6q7trzLHfz+9ATv5A1yrZzVYvlPjYk5NopTq3/bgMd9Tp5R3aP5zEB6aV/PS+46zW/G3V82lnSa95I832x0W/1481l6a4fqgCnUrmebqzc1usp/fp0e408brbFvb7S4/2zG3xuPa8wwfp9Verz/02j1f3tj/oTjZvhZp1SPbPQ8uccc9l0L5iJYO4h526nxZG4e/rH5dnf7WfXvy7yNfRrjD9a7MxrjWg9oPM3dKCHrjMYT7AM32HFvyS+qt81pWxdT7iW3/xy39beNbnYr4evV38xxe9de59fNuxszLd9jHYbLs7r63q8xO/E9q/+cMVye3ZMaD1tWix9Vr5zO5/WrRzQexhy3RD//71r4erwImKxTF2o+3Zd+0ny7x57lTS3vjHa7NLqcrWcfqG5S3bsxFmOj+FBjmY67Ncbb8H+viXm4qFIvqU2NWVfn4QuN7nYr6fXV4XPa1u83/4mT5uHwRlf1O1QfW2fH9p1GT6frVLdt9FL52TJs5/uNJZRW2icaD0qv1Zin4qPLFAS/1W9mekbAZIPap7HUxnJ7R0v3dGwxvtrW1xuc1Xrtxvf56s7Vbfq/646ud1+eQuUtG12H+F2fbT6z3u6u1Etqj+bX4+J5rfxyFWdM+zEPl5vT79J5+UZjbembtLYmI1uIT1X3n4LlY5vPg9PDV+hYT6zeOJ3HAxsznv98TmGWVcQYTOZtXjPtfWyFju+kRlep31vGbay3VpYfNLozv7KNM7a0xgQsZx23RcK37JjGzKBXmUMg2tTGWfZmuV2g+XQ7/lljNu/V4EPVd1v+NTL3a4z3/+Uav0aOaow1/+fGjKHryX81lsr54PTwYZ6OnPP2ft2YSf/FrUzPox/5uhUwETCX2ymt7JiNrzZa4gTMLTu5sezGPzSfJ5yrxamNGXGfNYVMFlazn84hYJ5nep2h5EviIs1nvboPraKgdVxjspblDpibGr1ZvrpGr40zG12Kn9LoOrpenNmYwObFrexSKsfOaTunTOfx+Y21lleKh4ICJhvcheewjSOb/9O7s1vuX5b7tfZbWT7QmIjgsxvs+j+0sTyF7jyL97M5bOMCjW6Hv1TuJXHJOW3nM6vsuD/efGbxvPAavS4+Wz2h0cK33vxF48HpSptXb6CHNNaBXWmbfN0KmGxs85jC/fuNrqorZblnrj1/Y3KH09fg+f9+Y8a3f9tg1/0PG8ttvKqVHye2Vs2jVXGTG5UldaE5bee/V9lxf2FO29l3jV0PP2v0WHnZCv+OXk6rZebveX2PfSsQMFkF5jEpwdGtbOve0XMI6TuusYB5avWiRrfQozbQ9X56ozvsU1vZVvX1QBeotWfPOWzjlMaYx9XkF43xhHss83YuuIauhX+vnrgKz9VS22mDfcZ3DARMVtimOQXMY1f4OJd7dua19gvsiMb6dIdtsOv989Vjqg/76C+JnyvBmjOPAHRUq28NvF83Higtd8BcC7PIfqMxc+rbfRxAwITlMo9WiPW+/M6maufGdOCr2dGNFst/arRgbhS/rJ7dmD3wRB/5JaNr8dqz2xy2cUKrrzfH6Y2W1eW2mgPm8Y1eK/+QMc0gYAKr3k7V3o2lG1arXzdm0j10g52bM6v7Vu9ymS45YyPXnnk8UPxFq295o5OaT0+a1dxt/OHVq30EYGM6jxKAG7dlcEr1vxv03PzA5Qkb2plpcf9flwEImCB8Le3NxUa3qY07+N+kB8BGb3H3PQgbmC6yrEfbTdf2SjxAObONN4scAAAImKxbt2ssvL1SAfN8TgEAAAImrA8XmF4AAMAcGYMJAACAgAnAhnG6EgDA6qeLLACLcZ5qt8YskdtVuzdmzFzO2Zs3V/soPQAImACsTXtWF62uUF2xuny1b7XHFCp3ngLmni3/kgxnTtsDAARMANaIK1U3rm5VXbm6bNbzAwAETAAWaPfG0j73ncKldVwBAAETgEXZobpP9ahGyyUAgIAJwKJdo3pedROlAAAETAC21X2rF1TnVwoAYKlZBxNg43h89a/CJQAgYAIwi7+unqYMAICACcAs7lg9UxkAAAETgFlcuHpxxtwDAAImADN6ZnURZQAABEwAZnFgdU9lAAAETABm9fBqO2UAAARMAGZxpeoPlAEAEDCBLdnNZ5cFuHu1szIAAPNkVkHWo+9Wn6o2rcNj21SdXP3KaWYLzlPdSRkAAAETZvfR6oHKwAZ25eryygAAzJtudriuYf25XrWTMgAA86YFE2D9ueYKbPP71RcaXdSPrE5f4p//B9XNnVoAEDABmK+rzXFb/1m9qvp4ddIybmc3AZM1ZLMSAAImAOvBbtWl57StR1XPm9O2zIjLOVmNk7lt53oFNjJj1ViPPDlmI7t4dd45bOdlcwyXuMc4N3tXu6yy49652mODhmsAAZO5m8cvxB2VmQ3sQtWuy7yNY6tnKDVbMY/llHZttBiuJjs0n0m2jnWJAQImG93m6rQ5bGdvpWYD26vlf5BzWPVDpWYrjpnT9/15V9lxn7fxoGe5neASAwRMqF/O6Zf7dkrNBnX+OWzjCGVmAebRwrZjdblVdtwXrc63TgI8gIDJqnfcHLZxsUywwMa1+xy28S1lZgF+PKftXGuVHfe157SdI11igIAJddQctrF3dUGlZoM6cw7b+IUyswDfn9N29l9lx33AOqsvgIDJqjaPcVs7N78nyLARmb2ShfhxdeIctnPjVs9Dxb2m/VluZwiYgIAJw7fntJ3rKTXAijqm+tEctrN3dedVcsy3rS48h+38PF1kAQETqvHEdR7rVN6m+UwTDxuRtWZZiOOa30PFv1wF3/k7TfsxD1+pfu0SAwRMGE9dfzaH7Vy5upVyw7IwiRYL9dU5befK1V+v8LE+rPlNOPT15jPeGkDAZE0EzHk90X5MYwp7YGldQglYoE/OcVuPqw5coeO8TvX3c9zeZ11agIAJw5nV1+a0retXf7vG62UyFRZrHmsPXn0Fjut0p3ZN+lzz68q5a/WG5j+r7NWqNzefJYKqTplzcAcQMFn1Dpvjtp5c3WuNfSZ/v9HV6j3VY10uLNIv57CNGzff3gE3qW7v1K5JR1ZfnOP2Lly9q/rDOW3vdtX7qkvO8Ri/WH3PpQUImPAbR1Qnz2lbm6rXVk9sdXaXPU912eoe1fMbT/s/Vb24MRvhLVwuLNJRLX9r3+81nzHON6/eUh1SXdOpXZNOrz4w523uU72temV1uWXaxmWmn/+u5jNr7Nl9qLFMCcCqtL0SsAK+V32p+XVj2lQ9ZbpZfVb1Xyv4y3nf6eb88o3JIA6oLta5d636vWqP6lcuGxboh421B5e7u94zq0OX4drcp/qD6n7NZz1Blt87G71JdpjjNjdVD6wOrv6zemPj4ebxM/zMXasbVHep7jZ9N8/b5qmeAAImnM3p1Yeb/ziZA6fXF6abjcOr/65OWIbP1b6Np9qXri7a6PZ6lerijQXBFzq28gKN2REPd9mwQD9ttGIud8C8cqN18U+r7874s/atbtRYXuh2U8hk/fjGFO5WYgKe3asHTK/vNSbH+cJ0zf6w+sX0O2DTb4W4XRvra571PX71xrj+S65wLT89/d4CEDDht/xn9ehWptvqNafX6Y3xQV+r/qf6QXV0Ywzb8Y2WmfP81k3H9lNAPE91vuq8083wBasLVReZbkh2n/5+xyX4jF5ewGQRTmssDXGZOWzrFo0u3S9qdEn8WltfOmGn6Sb98o0HLzdrTJKyt1O3bp1R/VsrN8PrWS45vQ6e/v30Rmv/aefw3h2mkLna7pNel+6xgIAJ5+jLjVnwbrrC1/9Fp9c5jXU8ud99qn2eFQjF167+1SXDInyp+U2Ks0+jC/rfVD9qrM/3w8ZstueZAufe1Z6NFvyLVudvfjNusjq8tTEW/pKr7B5oLV2HP270vgEQMOEcnFG9YoUD5taslsXkr+1yYZE+vwLbPG91xekFv+1XjUlxnqYU2+w11THKAKx2ZpFlJb27MTaHLbtMYywmLNSnMzEUq89LG0MRWLwfNbqiAwiYsAXHV89Thq3aszFBECzUT6eQCavJMdVTlWGbPKf6mTIAAiZs3Wsbs/px7rZrTIYCi/EuJWAVek31MWVYlMOrlykDIGDCwpxcPablXxh+rbuaErBI76mOUwZWmTOqv6h+rRQLclL1l9UpSgEImLBwH6lerAxbdG2fVxbp+1mQndXpf6q/VYYFeWwrM2kXgIDJmveEjBnbkktl8XkW7yVZM4/V6aXVvyjDFv1r9UJlAARM2DbHVw/IJAbnZo/qqsrAIn0qrZisXg+v3q8M5+iQ6mHKAAiYMJuvVvfM2JxzsinjMNk2f1+doAysQidX96g+pBT/x6HV3RrjLwEETJjRIdMvViHzd5lJlm3x5erZysAq9avq4OoDSvH//w68c3W0UgACJiyd91d3SnfZ33Z1n1m20bOrT66j4zHr9PoLmXeqXrHB6/C66vbCJSBgwvI4pLpZ9Rml+P9dtjHZDyzWydX9qp+s8eP4XnX36h1O6bq8Rh9c/XljTP5GcmL119V90i0WEDBhWX11Cpkvqs5UjnatrqEMbKNvT+Hs2DW478dWz6quW72p+rjTuW69uLpVY4KqjeAz1S2q5zr1gIAJ83FCY1Hu21df3MB1OLZ6W/UNlwQzOKzRFfEXa2R/T2os1XBAYz3Ao852HKc5nevW4dVNq79p/Q6V+EX1mOom0/ECCJgwZ++rblQ9svrOBjnmYxrjUf+kunb1R40JW2AWH69uucqvpWOrl1fXr+5fff23/v5rjRZZ1q+Tq3+cvvuedbaHC2vd0dVzqutU/5AuscA6tL0SsIacUL2g+rfqvtON53pbG/IbjS5T753+/K7TzjL4YnVg9bzpc7Sarv83Vq+t/ncL7zu1+mh1Jady3ftRo/X6pY0xmveoLr0Gj+O71ZsbD058rwMCJqvKpmqnOW1ru1Vag2OnoPmy6saNtTNvUl1sjZ3LzdW3GmNNP9FY++wb1XHLvN0d5nBsu7X6ekjM47jPs4o/N7/tl9UDqrdWT6z2X8EAcVj1hkbr6kKv/8Na+oXod52+Y+dhxzl9Dje1PvygekL1/EYL/B83Wrj3WuWfscMbD03e3+romj6v+77V9j243QY77o12vDuEgMlMTqk+PKcP02rvknRy9cHptW9jApDbNsZrXa7aeRXt6+nV9xuzeP7PdNPxtSlgHjfnffl+yz9JynGNmRFXk3kc95nTTeVa8t7GrM13qh7Y6Iq+nOHntEaX1yMaax8e3raNszt0+uwv5ef8x81vbOe353A9/qLR2rueHD09jHhDY1btA6o/qK5WXXGFb3g3T9/rX67eWX221deV+6fNZ5KsX6zC62YjHfcv5nS8q2VJnR9m8rdVZdPmzZtV4ZwKs2mTIqxdO1aXr67QeMJ91eqi1T4t79Pukxqtq0dPr+9WX5lC5A+mgHOs08Mqd9Xq1tXtps/QPjMG7p9Mv/y/PIXJ/55uwk9VapbQzo0u01dtjNu8euPB477V7suwvV83Hoz8ZLq2v1B9qdEjxbhKtv40wv03AqaAyZq363Sjsc/0unB1oWrvao9ql+nvt+TE6sjpn49stNL9rPp5Y0KeY6c/12OrARvTxatLNnoEXKHab/rsnFOr4c8brbdHNrq9fnf6bz8+2+cG5mn36Xt+n+qC1SWm7/wLNR5E7jP9bjg3J03X7mnTn0c1Hhb+fHr9rLXXYwEBEwRMAAAA1gbLlAAAACBgAgAAIGACAAAgYAIAAICACQAAgIAJAACAgAkAAICACQAAAAImAAAAAiYAAAACJgAAAAImAAAACJgAAAAImAAAAAiYAAAAIGACAAAgYAIAACBgAgAAIGACAACAgAkAAICACQAAgIAJAACAgAkAAAACJgAAAAImAAAAa87/NwCmMA079WpydgAAAABJRU5ErkJggg==;" parent="HHeeqylkCfdXPC-r-2XA-2" vertex="1">
          <mxGeometry x="414" y="42" width="106.89" height="106.89" as="geometry" />
        </mxCell>
        <mxCell id="HHeeqylkCfdXPC-r-2XA-3" value="" style="group" parent="gcJ8K4zWGFhd17STxBYR-3" vertex="1" connectable="0">
          <mxGeometry x="12" y="53" width="155" height="304" as="geometry" />
        </mxCell>
        <mxCell id="uFhvsVring2hGXd77Jwu-46" value="" style="rounded=0;whiteSpace=wrap;html=1;fillColor=none;strokeColor=#006600;" parent="HHeeqylkCfdXPC-r-2XA-3" vertex="1">
          <mxGeometry width="155" height="304" as="geometry" />
        </mxCell>
        <mxCell id="uFhvsVring2hGXd77Jwu-50" value="" style="group" parent="HHeeqylkCfdXPC-r-2XA-3" vertex="1" connectable="0">
          <mxGeometry x="10" y="13.75" width="91.14999999999998" height="34.25" as="geometry" />
        </mxCell>
        <mxCell id="uFhvsVring2hGXd77Jwu-47" value="Version Control" style="text;html=1;strokeColor=none;fillColor=none;align=center;verticalAlign=middle;whiteSpace=wrap;rounded=0;" parent="uFhvsVring2hGXd77Jwu-50" vertex="1">
          <mxGeometry x="26.149999999999977" width="65" height="34.25" as="geometry" />
        </mxCell>
        <mxCell id="uFhvsVring2hGXd77Jwu-49" value="" style="sketch=0;outlineConnect=0;fontColor=#232F3E;gradientColor=none;fillColor=#232F3D;strokeColor=none;dashed=0;verticalLabelPosition=bottom;verticalAlign=top;align=center;html=1;fontSize=12;fontStyle=0;aspect=fixed;pointerEvents=1;shape=mxgraph.aws4.git_repository;" parent="uFhvsVring2hGXd77Jwu-50" vertex="1">
          <mxGeometry width="26.15" height="34" as="geometry" />
        </mxCell>
        <mxCell id="gcJ8K4zWGFhd17STxBYR-20" value="" style="group" vertex="1" connectable="0" parent="1">
          <mxGeometry x="-409" y="35" width="168.84" height="143" as="geometry" />
        </mxCell>
        <mxCell id="gcJ8K4zWGFhd17STxBYR-15" value="" style="rounded=0;whiteSpace=wrap;html=1;" vertex="1" parent="gcJ8K4zWGFhd17STxBYR-20">
          <mxGeometry width="168.84" height="143" as="geometry" />
        </mxCell>
        <mxCell id="gcJ8K4zWGFhd17STxBYR-16" value="" style="image;sketch=0;aspect=fixed;html=1;points=[];align=center;fontSize=12;image=img/lib/mscae/Docker.svg;" vertex="1" parent="gcJ8K4zWGFhd17STxBYR-20">
          <mxGeometry x="12.06" y="7.4658634538152615" width="44.823" height="36.754285714285714" as="geometry" />
        </mxCell>
        <mxCell id="gcJ8K4zWGFhd17STxBYR-2" value="" style="shape=image;verticalLabelPosition=bottom;labelBackgroundColor=default;verticalAlign=top;aspect=fixed;imageAspect=0;image=data:image/png,iVBORw0KGgoAAAANSUhEUgAAAT4AAACfCAMAAABX0UX9AAAAulBMVEX///8AAAD/aUv5+fn/Y0ORkZGmpqb/Z0iKiop1dXUuLi7/XDgNDQ28vLz/YD5/f3//WjX/5eH/inX/saT/bVDLy8vk5OT/yL81NTX/mIby8vK+vr6NjY3/qJr/opL/+Pebm5tCQkKCgoJUVFT/vrP/8/H/3dj/1M3/uK3/7On/hnD/c1j/e2L/gGj/k4D/ysGurq5PT08jIyPo6OheXl7X19dubm4UFBT/19H/nYz/UyodHR1RUVFFRUV+mOhgAAAI0UlEQVR4nO2ca0PiOhCGuUQrVsIdLwgUBUFRwAuuHI///2+dpqV0kiZposD24Dyf3KYp7bvTZDIzaS6HIAiCIAiCIAiCIAiCIAiCIAiCIAiCIAiCIAiCIAiCIAiCIAiCIAiC7IXaXa3/jV7Dbrfxsf27+X8x6rk+1fqdXbfxtEoJIa4z381t/U84d0mB4bj1e/NetQfXKaz79XZ3c5lnWC1EEHc1Mus0uozEY7iN3d5ihqmF6jmhGoQaKdGNDJaQoF+1tuvbzCqPTvD+PdRpqAglw7Quw/WpBTLtNh5c1r++j1vNIIHxOQ9s2r1ci0Kb2rlg3qTRuz5j/z5n+lW/MW8fAkOmhRs+fHMzFzwqJ+G7x3jQI2G3B/+AazFrX1c2lOOjxdLmaGn5vWf5C3RJ/Or1SCSMahK+r4MZw3kMD078bnRs/pOn+Q0n8dFifDRfVnfOGFC+7kY+37Kqq8T72F9VwRkb+RpMPgvn+eKA5AteXhL+/Qh8ESagMAk3XCgee+dDC5363aqGDg/jkOS7Z1MHWbE/G5RXh5+Ezx2x2Tc/ph+bcSJDNOKQ5AsG/sADeUzIwwRczWujUW3ec6iTbHbo4xNhJulaDH2HJV/NDYRY+78JCGXrYUqkjZG37TzZ/OLZIcm3cfd+gI3bcmjyjSQvrR2h+2zMYcnH+SvfMz6LQE1uF/JdtbyKZZft0f+hfMQyXrVV+dqdo9tPv8uL3T1sk6Hx6yudXlzL9W5+a/ItvjZdTu3uYavIZZHwVEhaqlmIC7A9+d7zmZBv7pqaX6Mh+jCOY/tr25OvlA35hOWaBtrr9/i1Gz23/bHDk+/D2PxoXQi7TK1/7PDky9VNzY/plxs7GwO0Wq6FHKB8NWPz899f//zZ+nznIf3aLa/0/HLmc/FW8jptC/n8ngPm5vz5qiza/EWLPpx8Rci2ZDFmZe78uWy0G4b6peaIXit5DTr5ijf8uS+cTb7pLnu0bXVSGZmbX8Flwb07NgCmLte04mnla58lzr4FFx7oLvsXFn3KpZtDqBCNCQMsNeoUqvrl2lIvnk6+YlK9fH4Qn34qad7QTt7KzpEvPYhbnwwnM97bc4NUXM1NWa510tTTyHchPT9e2X7qLrsbgfRIl25R2UG/AcOlTjM4OP5Hu1xLV08lX0c5tC0lZye42Ik+aTSTzgtIoNVgM50Ex7Rhvna6ekr5TlQdouHvSnfV0talMWGeMD/OqbuHzSQ9TPDyffk0rIc1rXzH29XFFDFyQLpc8zlVNkk4Ep7pc3B7+/Z2O/ihfGufRDsptbaqijE9YfKlkYkNnwh5nHBvd1qIlFfjqyNvUck3uC4vX4PDy2N+jl2Pa6+LcrncuQX/O8cbvP17zQHC2xs5dbUCmzYc+nTpJBtVHCuMLGcSLvW48z1OvyvQkplFW8Ad7zrTMMt7vymD5N7tlPUGdDyEoTxdPmHw4pYf8M3Mlnz3gnxhKOpJHk3QJydf4RMLbdbycfPEAjRkS76azPruVKs5baylDB5YXIGeSZs08uX+BW1wIMiWfB/C2BeWbigXc7pIH3TcxHIze/ng6PcOjmdLvgmvlFNgB9VpTKopQ30GDyy22cvXAm1v4Hi25BNHuWDw02SBNVkO4DN/iW328sGRFIZdMiXffWKUoyPZWiRuVubYoBbvYqO9fHDuAFGXbMmXLHZxmqNcX5MEdlVVffB5r8VGe/lgW1blk8XrHf/91STRw8lFwpVGix/Kl9Wx70Hq39FCr6k2P1W4tK3R4jDlU/l3ji4JotrPsWX5oDFn1HEBmXLjpKU/+slLwqF8ntj4M/my6TaPY+Nz6uZZN0VRM5TvRmy0l2+paMuOfFO4X2NinnZzpTuQoLm8iY328sGwPwh9ZUc+bnqlc7DLMs38CrLLQfkSmQd7+RagDWbRMiMfH4wiublrXDQ0kVyOi32KjfbyVRRXy4p8wpYO0s3VmqYDoLQ6EmZpfx4yACtozpYzIl9iZcH8uZnhAChN9sJoqTh3WMsHl7zcGgbId7YdJb5FIiwQxELnyt0cSa1FQBYinxdyD9bywfANlwYC8ok/skdGyYnCZcGo/qxqMgLK0h5cnk0IGtjKB0XiB1I4Jv69zQyyjTFukMoYN02qxiW7YmCEDtZW5HgnTiEfDMgX3+GV+PgD/E/6jMzvquXtdT+wtLZvXYeRS9Qyy85Npj3ErO1NZ1ksFl9bi9IfeFgh32np6LjT8ul4QrXGFfcrC66t4nnXpQG7/l7lk1eWknXh48jgDZakPd7zJijkUyJsflEly3mRd4sqVkCjIa32lOYERqZq8GQ/k0+cHxSn7UwrCWGsgEg2bGymhPFUIWC0EVOS9nhWPFr+ChimpXyJ6gt59eWfHSklI4gVkMJsltzxQuNw1Lwp289Lp91e6F6TxHVVBVZLOGLZyecZ/khilb1DmPGRS/bXLKGfC17KYXI3eZjruFTsh15IH63DPbOVfJ7k7qXmt8cCtdDnC/8W1CHVLrceGxLeAqNgVfA1BEnW6FjyZIFL8i35zuR1U7Ii3T0WqI1pnLLg/D+nOkskgobclvyoSI3N3NKCtWWixM8LjseDnyjfszeQi/eikqQoGWP36EGfy+Vz3AdpCdCwEAuYKl8uV4YPd/a+NqD4tQZecHGtbrHlvfEm9fJ2rKv1Ln9xZ19Uyntcv7E0bhSzi+v36FRZwBJb4LpKo8/mHmXFga/Gic/RohNL8Fo5CbmBsc/KTXxGsd0qe9cnJ9ee726nPsNVa8F+5NpbtNp7XvqCD5FsdsZQot3mt5lEgm79IEOXskPhcAmi9KSwWkUpNZL+Nb4hDQUkZFYPbNFkb9ZhMg6mXodsxOuZbA6frM9fR6l/7/f7cj2waDP//ma/C7b1VlM/+XfArOKPkKo/PJdkNFv3c361eiyq51JCqKv/7GGSj2mVUlqVuzi/ibtJtzux/O4w4/58OP+tcy6CIAiCIAiCIAiCIAiCIAiCIAiCIAiCIAiCIAiCIAiCIAiCIAiCIMiv5j+r4pgrFPvMaAAAAABJRU5ErkJggg==;" vertex="1" parent="gcJ8K4zWGFhd17STxBYR-20">
          <mxGeometry x="31.420000000000016" y="58" width="106" height="53" as="geometry" />
        </mxCell>
        <mxCell id="gcJ8K4zWGFhd17STxBYR-21" value="" style="group" vertex="1" connectable="0" parent="1">
          <mxGeometry x="-593" y="35" width="168.84" height="143" as="geometry" />
        </mxCell>
        <mxCell id="gcJ8K4zWGFhd17STxBYR-22" value="" style="rounded=0;whiteSpace=wrap;html=1;" vertex="1" parent="gcJ8K4zWGFhd17STxBYR-21">
          <mxGeometry width="168.84" height="143" as="geometry" />
        </mxCell>
        <mxCell id="gcJ8K4zWGFhd17STxBYR-23" value="" style="image;sketch=0;aspect=fixed;html=1;points=[];align=center;fontSize=12;image=img/lib/mscae/Docker.svg;" vertex="1" parent="gcJ8K4zWGFhd17STxBYR-21">
          <mxGeometry x="12.06" y="7.4658634538152615" width="44.823" height="36.754285714285714" as="geometry" />
        </mxCell>
        <mxCell id="gcJ8K4zWGFhd17STxBYR-24" value="" style="group" vertex="1" connectable="0" parent="1">
          <mxGeometry x="-409" y="190" width="168.84" height="143" as="geometry" />
        </mxCell>
        <mxCell id="gcJ8K4zWGFhd17STxBYR-25" value="" style="rounded=0;whiteSpace=wrap;html=1;" vertex="1" parent="gcJ8K4zWGFhd17STxBYR-24">
          <mxGeometry width="168.84" height="143" as="geometry" />
        </mxCell>
        <mxCell id="gcJ8K4zWGFhd17STxBYR-26" value="" style="image;sketch=0;aspect=fixed;html=1;points=[];align=center;fontSize=12;image=img/lib/mscae/Docker.svg;" vertex="1" parent="gcJ8K4zWGFhd17STxBYR-24">
          <mxGeometry x="12.06" y="7.4658634538152615" width="44.823" height="36.754285714285714" as="geometry" />
        </mxCell>
        <mxCell id="gcJ8K4zWGFhd17STxBYR-38" value="" style="shape=image;verticalLabelPosition=bottom;labelBackgroundColor=default;verticalAlign=top;aspect=fixed;imageAspect=0;image=data:image/png,iVBORw0KGgoAAAANSUhEUgAAAOEAAADhCAMAAAAJbSJIAAAAhFBMVEX///8AAABhYWHNzc3T09PCwsJKSkpycnL8/Pz19fXg4OC0tLTj4+Pa2tp/f3/n5+fv7++6urrGxsZoaGg4ODgnJycXFxeXl5eKiop3d3c+Pj4vLy+fn5+urq5PT0+oqKhZWVkeHh6FhYWQkJCbm5tFRUULCws6OjohISEpKSkYGBgyMjKhW/z/AAAIk0lEQVR4nO2caXuyOhCGiYJsoqitS91QW63t//9/h5CFCQFJ+2IRz9wfepUIYx5IJpNJ0LIQBEEQBEEQBEEQBEEQBEEQBEEQBEEQBEEQBEEQBEEQBEEQBEEQBEEQBEGQ/w3O6IOQz9570HZF7sQ7kbz1267MHQjmBDJruz6NMyUFrn7bVWqWqCgwldh2nRrF0wU+WUMd5bLcN/n/tO1qNUfMJZ0zTbHLD1/arldzbJiiV089JlGrtWqSDyYolgU9VrBosU7NwvSs8oIhK0naqlDT8G7ogCI2/L+2VqWGCfRex9rtubUqNcyYKYSx6DorObRWpabR/IrPSt7aq1LDsCdG8oIFKxi1V6WGOTFBrjgWUapz66JOMVQjUUeEbcpJ/SON5w6z0Cux8PD0hKZRONl8i4MTOGPylYfkxw5q9EkZ+edeon7SwRSAUyLQlp/68+JnYYt1/SVbTSAQoQnspBMqPkUwOezpAmGY3gD+n6RMYiikBwTkKZzecvQp/k+Uax2K7J2wvrVeydtkc+5k6+mGmma8fM0qf1gOYfGFa2KutS+aLEyq9hXRAR1Yx2eyo2bWtMRP797Omu7Sf4kfn8/Ai03k/aNxsZ39d8dYin2dGsoEhZ7nsdugnMUU9viRSzwa7I5PqY6Q+l2PrOL46DvfmcIxiSIZ5e9JicLB/RSG2ReslDI+4T/KAh6oz6sUxmT3Ts9KhaVOKkkf3HKXfeDQZ0MV5hcOyQMo5N0T9K2ZVqIoHI0CQhXuLzvLOVtkaK0n2QfMmfnZHeIXrh5B4UXrGmFeIw5U6JEwIpNU4XFvWd/HKHGtCxt5nG/P96lCX/pOLu7iXltUeM3KYPKUO9c8IlAULsjb5eXVytqiTT4uH8TbfGWfODR5p7RSnl1IG7U1nNnWnylUPc2L9qWTmwqzctLPdLzRuu+W1mC+Dc++Q/0qVbjZvMPrQL+8r8LgtBaN5h0Mh7wfgnGNdx5wDlBoZy4p3PvpkOG7tDVG6R3b9pK9FdHxxvX80WjEmwnrmZe/UWgPCMSVfoT70o08U4Tp4GJ1tDCHKUxALe6ncEWKbHklxLRJjvA8u+qCq/9NIbjubgr9V00gcy7jXX7MXH7MBcJu+PgKy6eHJLGWyvH1tN3I4FWJrB5e4Sf5Ocpa/6MrdGW1V6FtTxffuh6NvWLhwRXaotYyL9M/KGo+J6TIUjXx4ArFkijM6sO5Yvq44oIn2hdMPLZCkRxVN9HI1NOKDfULoC8ZF208tkLuL7eFYq5mIo69LRO9XpbsJ/qtwumfKGSOVNt5sS30TYofV2RnCgodxkTERfYxC25n9HZ5k+wzWhw4LNk+mMqzCwq5obDMkJUZkk+gGr+8Z4mHaHY7i3N8Bg+voxfZvs+O+D76wYYo6LMnEWjxNaMo30RB21Zu6Da8G2pdS/TEnysUAnm7B5vJCJ2Z5Wb3yie6QiGQ3331hrjGCqdVJy5/qVAI5O1nRFR2xgqFQJ64PVYbuo1TdeLidwqFQJ64KqiQ1CsUAif1hm7T8DMUAnlCWWaarqcwlPNPYtAPhUB+p8birFdqCERd9ZVrth8KgSKnKyYiXHD/DCs2nLJ2MuhPUxzFl67UCy0xx+GC7Tk0dJtGfakQKGZWIiCUg4x3UCpWOR7OCncq0gxdjRU2OB7OxI2X8d+qcJy3NnZUEdMkwj3JOeiocJzvVDNQeDumkcUGMY0gKBhRcndK965QKMjvDGvdMK0gluYNFNbEpTwINYlLOfmix1h7hLLMRGFeo7jEUGyssHZusTSdW2h3qtRPn00VBlqxaujLWGHt/JDoY1Hp/JAU68vmlQVn1TNVqBm6VBuq4Tdz/I1iQWml+c4jlmDeqd82M1UIvNykzJBrrrCpPI1ALh//o8J8KZ0p/Pi9wspcm9o8lVyb0mRUhXLUYv2wsP/vYq5QxiGlhj5+oLA6X+qDTHEhXwqXopnCV+GgPnkxX1xVF+lJvcK5GPG/+FrCUL1zuiEDKnPegcj2G+W8eYI8USqhDLVKpF+hcCc7zk4xpLhwxVFHk/q1/6hq3YIHN2brFiJk4U4i4Y8EoOwSrM7TiJCFO23WOJRm+pIbCs6j/dJgAwxYe9qA9sA9reHak0g8Mm/Dj8By3Um5PTcyUWIHyAQaAu1mkRuKiR+kj9DoZa2y9cOB/FLBzfVDMVFlToIfyE0AQmC9QrmiMISGZNUWwJBrW2/ht+WZbNpuYg2Yd9M5MJhGszTP5E/ykbZeoZgwnT1wV8mVGbpAQ6ljG9A/Hwb7jsoUsmdYso5foVC8YZTAamoYKBSGmLdJqg0daCXTR90z2KdVppD3Q30vRvkacB7KZ07CO5NSDBTKnTzM0KHS0MC3dk7afk023pcp5KO+tp8G2lOziWIXYObc/Ktao625Qmko8zb+WjUUSkPTnnWyTvFGmctWULYnSgwA9XuiEnEoZuhsCIXZtvWwZMRPckNMoQzPVpWGrgEwdBpE/ngFzFRRsa9NDJQ39rVFMzclD7ldBm8MQ1HRl/RheNmp3HHZheusICvIZy6rckPfNMMIDEWjnlv/pl3l3sQ8Vqzcm1hL4IThtIkNm/9gqLi/FEQIM1JCo/tL/wJ9kguiyYMusHN7hPVVXjh58DWJxbzVwxOXCIShaPf36ksBle9bOCAP0MH3LUTwUHxnRlFi83dmtt3TJ+cD2ntPBgusHYG3wLxgUZDcdfikXX//8GleVw90B6m9kdhtKt8DfhqFPFcHQ1cWXs8rL+kaTKH+Pv4dd5T/MTwxp/2mgsmUshvwwUH7XQz75lVdouK3TdZt16tB8pz+k/4+TflvDP18q+EjY+sCP+uv6hTab319PtlvfdH1G0XgU/0MluDZf3OP8uy/m4ggCIIgCIIgCIIgCIIgCIIgCIIgCIIgCIIgCIIgCIIgCIIgCIIgCIIgCIJ0mP8AvdRk0Zd6tPcAAAAASUVORK5CYII=;" vertex="1" parent="gcJ8K4zWGFhd17STxBYR-24">
          <mxGeometry x="41" y="44.22" width="74.78" height="74.78" as="geometry" />
        </mxCell>
        <mxCell id="gcJ8K4zWGFhd17STxBYR-27" value="" style="group" vertex="1" connectable="0" parent="1">
          <mxGeometry x="-593" y="190" width="168.84" height="143" as="geometry" />
        </mxCell>
        <mxCell id="gcJ8K4zWGFhd17STxBYR-28" value="" style="rounded=0;whiteSpace=wrap;html=1;" vertex="1" parent="gcJ8K4zWGFhd17STxBYR-27">
          <mxGeometry width="168.84" height="143" as="geometry" />
        </mxCell>
        <mxCell id="gcJ8K4zWGFhd17STxBYR-29" value="" style="image;sketch=0;aspect=fixed;html=1;points=[];align=center;fontSize=12;image=img/lib/mscae/Docker.svg;" vertex="1" parent="gcJ8K4zWGFhd17STxBYR-27">
          <mxGeometry x="12.06" y="7.4658634538152615" width="44.823" height="36.754285714285714" as="geometry" />
        </mxCell>
        <mxCell id="HHeeqylkCfdXPC-r-2XA-1" value="Deploy Dev Environment&amp;nbsp;" style="html=1;verticalAlign=bottom;labelBackgroundColor=none;endArrow=open;endFill=0;dashed=1;rounded=0;exitX=1;exitY=0.5;exitDx=0;exitDy=0;entryX=0;entryY=0.25;entryDx=0;entryDy=0;" parent="1" source="uFhvsVring2hGXd77Jwu-53" target="uFhvsVring2hGXd77Jwu-8" edge="1">
          <mxGeometry x="0.7153" y="10" width="160" relative="1" as="geometry">
            <mxPoint x="-169" y="228" as="sourcePoint" />
            <mxPoint x="-9" y="228" as="targetPoint" />
            <Array as="points">
              <mxPoint x="-161" y="-341" />
            </Array>
            <mxPoint as="offset" />
          </mxGeometry>
        </mxCell>
        <mxCell id="gcJ8K4zWGFhd17STxBYR-39" style="edgeStyle=orthogonalEdgeStyle;rounded=0;orthogonalLoop=1;jettySize=auto;html=1;exitX=1;exitY=0.5;exitDx=0;exitDy=0;entryX=0;entryY=0.5;entryDx=0;entryDy=0;entryPerimeter=0;" edge="1" parent="1" source="gcJ8K4zWGFhd17STxBYR-2" target="gcJ8K4zWGFhd17STxBYR-33">
          <mxGeometry relative="1" as="geometry">
            <Array as="points">
              <mxPoint x="-215" y="120" />
              <mxPoint x="-215" y="180" />
            </Array>
          </mxGeometry>
        </mxCell>
      </root>
    </mxGraphModel>
  </diagram>
</mxfile>
